solid Monopoly Modern Hotel Beta
facet normal 0.539665824722963 -0.841879324859617 0.0
outer loop
vertex 5.23881411650737 -16.7974239251798 6.30000000000001
vertex 5.01426344637829 -16.9413665533083 2.53796983429311e-014
vertex 5.23881411650737 -16.7974239251798 2.53796983429311e-014
endloop
endfacet
facet normal 0.539665824722963 -0.841879324859617 0.0
outer loop
vertex 5.01426344637829 -16.9413665533083 2.53796983429311e-014
vertex 5.23881411650737 -16.7974239251798 6.30000000000001
vertex 5.01426344637829 -16.9413665533083 6.30000000000001
endloop
endfacet
facet normal 0.662774558182259 -0.748818993499972 0.0
outer loop
vertex 5.4385432247425 -16.6206450605734 6.30000000000001
vertex 5.23881411650737 -16.7974239251798 2.53796983429311e-014
vertex 5.4385432247425 -16.6206450605734 2.53796983429311e-014
endloop
endfacet
facet normal 0.662774558182259 -0.748818993499972 0.0
outer loop
vertex 5.23881411650737 -16.7974239251798 2.53796983429311e-014
vertex 5.4385432247425 -16.6206450605734 6.30000000000001
vertex 5.23881411650737 -16.7974239251798 6.30000000000001
endloop
endfacet
facet normal 0.770098662356363 -0.637924799829055 -0.0
outer loop
vertex 5.6086940255327 -16.4152401223698 2.53796983429311e-014
vertex 5.4385432247425 -16.6206450605734 6.30000000000001
vertex 5.4385432247425 -16.6206450605734 2.53796983429311e-014
endloop
endfacet
facet normal 0.770098662356363 -0.637924799829055 -0.0
outer loop
vertex 5.4385432247425 -16.6206450605734 6.30000000000001
vertex 5.6086940255327 -16.4152401223698 2.53796983429311e-014
vertex 5.6086940255327 -16.4152401223698 6.30000000000001
endloop
endfacet
facet normal 0.859082107933645 -0.511837798358313 -3.84560787281495e-016
outer loop
vertex 5.74521420986899 -16.1861010316046 2.53796983429311e-014
vertex 5.6086940255327 -16.4152401223698 6.30000000000001
vertex 5.6086940255327 -16.4152401223698 2.53796983429311e-014
endloop
endfacet
facet normal 0.859082107933645 -0.511837798358313 -3.84560787281495e-016
outer loop
vertex 5.6086940255327 -16.4152401223698 6.30000000000001
vertex 5.74521420986899 -16.1861010316046 2.53796983429311e-014
vertex 5.745214209869 -16.1861010316046 6.30000000000001
endloop
endfacet
facet normal 0.927605666462157 -0.373560875289821 -4.1482607887517e-016
outer loop
vertex 5.84485241501713 -15.9386849615469 2.53796983429311e-014
vertex 5.745214209869 -16.1861010316046 6.30000000000001
vertex 5.74521420986899 -16.1861010316046 2.53796983429311e-014
endloop
endfacet
facet normal 0.927605666462157 -0.373560875289821 -4.1482607887517e-016
outer loop
vertex 5.745214209869 -16.1861010316046 6.30000000000001
vertex 5.84485241501713 -15.9386849615469 2.53796983429311e-014
vertex 5.84485241501713 -15.9386849615469 6.30000000000001
endloop
endfacet
facet normal 0.974037381863716 -0.22638723182211 -4.35680909687544e-016
outer loop
vertex 5.90523565892539 -15.6788843697403 2.6789681584205e-014
vertex 5.84485241501713 -15.9386849615469 6.30000000000001
vertex 5.84485241501713 -15.9386849615469 2.53796983429311e-014
endloop
endfacet
facet normal 0.974037381863716 -0.22638723182211 -4.35680909687544e-016
outer loop
vertex 5.84485241501713 -15.9386849615469 6.30000000000001
vertex 5.90523565892539 -15.6788843697403 2.6789681584205e-014
vertex 5.90523565892539 -15.6788843697403 6.30000000000001
endloop
endfacet
facet normal 0.999999997371372 -7.2506938640701e-005 -4.47619558354954e-016
outer loop
vertex 5.90574103845503 -8.70879932981868 1.69197988952874e-014
vertex 5.90523565892539 -15.6788843697403 6.30000000000001
vertex 5.90523565892539 -15.6788843697403 2.6789681584205e-014
endloop
endfacet
facet normal 0.999999997371372 -7.2506938640701e-005 -4.47619558354954e-016
outer loop
vertex 5.90523565892539 -15.6788843697403 6.30000000000001
vertex 5.90574103845503 -8.70879932981868 1.69197988952874e-014
vertex 5.90574103845503 -8.70879932981868 6.30000000000001
endloop
endfacet
facet normal 0.999999085895098 0.00135211277975665 -6.57225383073371e-020
outer loop
vertex 5.90686559474287 6.80083748530652 1.12798659301916e-014
vertex 5.92774210061793 -8.63906302025807 6.30000000000001
vertex 5.92774210061793 -8.63906302025807 2.25597318603832e-014
endloop
endfacet
facet normal 0.999999085895098 0.00135211277975665 -6.57225383073371e-020
outer loop
vertex 5.92774210061793 -8.63906302025807 6.30000000000001
vertex 5.90686559474287 6.80083748530652 1.12798659301916e-014
vertex 5.92774210061793 -8.63906302025807 12.9
endloop
endfacet
facet normal 0.999999085895098 0.00135211277975665 -6.57225383073371e-020
outer loop
vertex 5.92774210061793 -8.63906302025807 12.9
vertex 5.90686559474287 6.80083748530652 1.12798659301916e-014
vertex 5.90686559474287 6.80083748530652 12.9
endloop
endfacet
facet normal 0.974732202872657 0.223376661007855 9.76493642198947e-017
outer loop
vertex 5.84709116233423 7.06167075192559 1.12798659301916e-014
vertex 5.90686559474287 6.80083748530652 12.9
vertex 5.90686559474287 6.80083748530652 1.12798659301916e-014
endloop
endfacet
facet normal 0.974732202872657 0.223376661007855 9.76493642198947e-017
outer loop
vertex 5.90686559474287 6.80083748530652 12.9
vertex 5.84709116233423 7.06167075192559 1.12798659301916e-014
vertex 5.84709116233423 7.06167075192558 12.9
endloop
endfacet
facet normal 0.928766782099618 0.370664625326345 1.62036467187815e-016
outer loop
vertex 5.84709116233423 7.06167075192559 1.12798659301916e-014
vertex 5.74790323691321 7.31020391107264 12.9
vertex 5.84709116233423 7.06167075192558 12.9
endloop
endfacet
facet normal 0.928766782099618 0.370664625326345 1.62036467187815e-016
outer loop
vertex 5.74790323691321 7.31020391107264 12.9
vertex 5.84709116233423 7.06167075192559 1.12798659301916e-014
vertex 5.74790323691321 7.31020391107264 1.12798659301916e-014
endloop
endfacet
facet normal 0.860690615171717 0.509128338393505 3.44400925099895e-017
outer loop
vertex 5.61166314220808 7.54052024210386 1.12798659301916e-014
vertex 5.74790323691321 7.31020391107264 12.9
vertex 5.74790323691321 7.31020391107264 1.12798659301916e-014
endloop
endfacet
facet normal 0.860690615171717 0.509128338393505 3.44400925099895e-017
outer loop
vertex 5.74790323691321 7.31020391107264 12.9
vertex 5.61166314220808 7.54052024210386 1.12798659301916e-014
vertex 5.61166314220809 7.54052024210385 12.9
endloop
endfacet
facet normal 0.772124361736978 0.635471454915376 3.86826628188176e-016
outer loop
vertex 5.61166314220808 7.54052024210386 1.12798659301916e-014
vertex 5.44161428679913 7.74713670446599 12.9
vertex 5.61166314220809 7.54052024210385 12.9
endloop
endfacet
facet normal 0.772124361736978 0.635471454915376 3.86826628188176e-016
outer loop
vertex 5.44161428679913 7.74713670446599 12.9
vertex 5.61166314220808 7.54052024210386 1.12798659301916e-014
vertex 5.44161428679913 7.74713670446601 1.12798659301916e-014
endloop
endfacet
facet normal -0.000292139183296651 0.999999957327348 7.99755638264639e-011
outer loop
vertex -7.09654585379093 0.915062902120552 2.70239732761254e-005
vertex -5.59654593779448 0.915471896973026 3.62794115606637
vertex -5.59654593779448 0.915471896973026 9.16489106828067e-015
endloop
endfacet
facet normal -0.000292139183296651 0.999999957327348 7.99755638264639e-011
outer loop
vertex -5.59654593779448 0.915471896973026 3.62794115606637
vertex -7.09654585379093 0.915062902120552 2.70239732761254e-005
vertex -7.09654585379093 0.915062902120552 3.62796818003964
endloop
endfacet
facet normal -1.0 -5.27676718076405e-016 0.0
outer loop
vertex -5.59654593779448 3.58753074090669 3.62794115606637
vertex -5.59654593779448 0.915471896973026 9.16489106828067e-015
vertex -5.59654593779448 0.915471896973026 3.62794115606637
endloop
endfacet
facet normal -1.0 -5.27676718076405e-016 0.0
outer loop
vertex -5.59654593779448 0.915471896973026 9.16489106828067e-015
vertex -5.59654593779448 3.58753074090669 3.62794115606637
vertex -5.59654593779448 3.58753074090669 9.16489106828067e-015
endloop
endfacet
facet normal 0.665176480006075 0.746686179359661 3.2659153584934e-016
outer loop
vertex 5.24180494970357 7.92513447005415 12.9
vertex 5.44161428679913 7.74713670446601 1.12798659301916e-014
vertex 5.24180494970357 7.92513447005415 1.12798659301916e-014
endloop
endfacet
facet normal 0.665176480006075 0.746686179359661 3.2659153584934e-016
outer loop
vertex 5.44161428679913 7.74713670446601 1.12798659301916e-014
vertex 5.24180494970357 7.92513447005415 12.9
vertex 5.44161428679913 7.74713670446599 12.9
endloop
endfacet
facet normal 0.542393031606545 0.840124871233236 -1.18553868731653e-016
outer loop
vertex 5.0169919047607 8.07027602360948 12.9
vertex 5.24180494970357 7.92513447005415 1.12798659301916e-014
vertex 5.01699190476069 8.07027602360948 1.12798659301916e-014
endloop
endfacet
facet normal 0.542393031606545 0.840124871233236 -1.18553868731653e-016
outer loop
vertex 5.24180494970357 7.92513447005415 1.12798659301916e-014
vertex 5.0169919047607 8.07027602360948 12.9
vertex 5.24180494970357 7.92513447005415 12.9
endloop
endfacet
facet normal 0.406697068602507 0.913563076306244 2.18944834560679e-017
outer loop
vertex 4.7725271781894 8.17910604339886 12.9
vertex 5.01699190476069 8.07027602360948 1.12798659301916e-014
vertex 4.77252717818939 8.17910604339887 1.12798659301916e-014
endloop
endfacet
facet normal 0.406697068602507 0.913563076306244 2.18944834560679e-017
outer loop
vertex 5.01699190476069 8.07027602360948 1.12798659301916e-014
vertex 4.7725271781894 8.17910604339886 12.9
vertex 5.0169919047607 8.07027602360948 12.9
endloop
endfacet
facet normal 0.261319045667916 0.965252483224576 1.53880518463914e-016
outer loop
vertex 4.51423063523162 8.24903366055408 12.9
vertex 4.77252717818939 8.17910604339887 1.12798659301916e-014
vertex 4.51423063523162 8.24903366055408 -7.04991620636974e-016
endloop
endfacet
facet normal 0.261319045667916 0.965252483224576 1.53880518463914e-016
outer loop
vertex 4.77252717818939 8.17910604339887 1.12798659301916e-014
vertex 4.51423063523162 8.24903366055408 12.9
vertex 4.7725271781894 8.17910604339886 12.9
endloop
endfacet
facet normal 0.00026365320974815 0.999999965243492 4.7117344537303e-021
outer loop
vertex -4.69247920043095 8.25146103923784 3.24296145493008e-014
vertex 4.51423063523162 8.24903366055408 12.9
vertex 4.51423063523162 8.24903366055408 -7.04991620636974e-016
endloop
endfacet
facet normal 0.00026365320974815 0.999999965243492 4.7117344537303e-021
outer loop
vertex 4.51423063523162 8.24903366055408 12.9
vertex -4.69247920043095 8.25146103923784 3.24296145493008e-014
vertex -4.69247920043095 8.25146103923784 12.9
endloop
endfacet
facet normal -0.256863705908659 0.966447637788447 -1.39867775896395e-017
outer loop
vertex -4.95223519418342 8.18242275451511 4.44144721001294e-014
vertex -4.69247920043095 8.25146103923784 12.9
vertex -4.69247920043095 8.25146103923784 3.24296145493008e-014
endloop
endfacet
facet normal -0.256863705908659 0.966447637788447 -1.39867775896395e-017
outer loop
vertex -4.69247920043095 8.25146103923784 12.9
vertex -4.95223519418342 8.18242275451511 4.44144721001294e-014
vertex -4.95223519418342 8.18242275451511 12.9
endloop
endfacet
facet normal -0.402516406742547 0.915412771542471 -2.19950637575249e-017
outer loop
vertex -5.19827434298806 8.07423681132801 12.9
vertex -4.95223519418342 8.18242275451511 4.44144721001294e-014
vertex -5.19827434298806 8.07423681132801 4.44144721001294e-014
endloop
endfacet
facet normal -0.402516406742547 0.915412771542471 -2.19950637575249e-017
outer loop
vertex -4.95223519418342 8.18242275451511 4.44144721001294e-014
vertex -5.19827434298806 8.07423681132801 12.9
vertex -4.95223519418342 8.18242275451511 12.9
endloop
endfacet
facet normal -0.538581461879624 0.842573444228815 -0.0
outer loop
vertex -5.42473617470813 7.92948011952488 12.9
vertex -5.19827434298806 8.07423681132801 4.44144721001294e-014
vertex -5.42473617470813 7.92948011952488 4.44144721001294e-014
endloop
endfacet
facet normal -0.538581461879624 0.842573444228815 -0.0
outer loop
vertex -5.19827434298806 8.07423681132801 4.44144721001294e-014
vertex -5.42473617470813 7.92948011952488 12.9
vertex -5.19827434298806 8.07423681132801 12.9
endloop
endfacet
facet normal -0.661817901464875 0.749664635220729 -0.0
outer loop
vertex -5.62622653454641 7.75160067737365 12.9
vertex -5.42473617470813 7.92948011952488 4.44144721001294e-014
vertex -5.62622653454641 7.75160067737365 4.44144721001294e-014
endloop
endfacet
facet normal -0.661817901464875 0.749664635220729 -0.0
outer loop
vertex -5.42473617470813 7.92948011952488 4.44144721001294e-014
vertex -5.62622653454641 7.75160067737365 12.9
vertex -5.42473617470813 7.92948011952488 12.9
endloop
endfacet
facet normal -0.76929032386032 0.638899364231085 0.0
outer loop
vertex -5.62622653454641 7.75160067737365 12.9
vertex -5.79794606985764 7.544835442771 4.44144721001294e-014
vertex -5.79794606985764 7.544835442771 12.9
endloop
endfacet
facet normal -0.76929032386032 0.638899364231085 0.0
outer loop
vertex -5.79794606985764 7.544835442771 4.44144721001294e-014
vertex -5.62622653454641 7.75160067737365 12.9
vertex -5.62622653454641 7.75160067737365 4.44144721001294e-014
endloop
endfacet
facet normal -0.858438814759719 0.512915978805427 0.0
outer loop
vertex -5.79794606985764 7.544835442771 12.9
vertex -5.93580454720982 7.31410941201172 4.44144721001294e-014
vertex -5.93580454720982 7.31410941201172 12.9
endloop
endfacet
facet normal -0.858438814759719 0.512915978805427 0.0
outer loop
vertex -5.93580454720982 7.31410941201172 4.44144721001294e-014
vertex -5.79794606985764 7.544835442771 12.9
vertex -5.79794606985764 7.544835442771 4.44144721001294e-014
endloop
endfacet
facet normal -0.927139922470604 0.374715310817696 0.0
outer loop
vertex -5.93580454720982 7.31410941201172 12.9
vertex -6.03651827874571 7.06491830998777 4.44144721001294e-014
vertex -6.03651827874571 7.06491830998777 12.9
endloop
endfacet
facet normal -0.927139922470604 0.374715310817696 0.0
outer loop
vertex -6.03651827874571 7.06491830998777 4.44144721001294e-014
vertex -5.93580454720982 7.31410941201172 12.9
vertex -5.93580454720982 7.31410941201172 4.44144721001294e-014
endloop
endfacet
facet normal -0.97375723697667 0.227589198855222 0.0
outer loop
vertex -6.03651827874571 7.06491830998777 12.9
vertex -6.09768833722012 6.80319768605066 4.44144721001294e-014
vertex -6.09768833722012 6.80319768605066 12.9
endloop
endfacet
facet normal -0.97375723697667 0.227589198855222 0.0
outer loop
vertex -6.09768833722012 6.80319768605066 4.44144721001294e-014
vertex -6.03651827874571 7.06491830998777 12.9
vertex -6.03651827874571 7.06491830998777 4.44144721001294e-014
endloop
endfacet
facet normal 0.953664821173772 -0.300871083448705 -0.0
outer loop
vertex 5.92774210061793 -8.63906302025807 6.30000000000001
vertex 5.90574103845503 -8.70879932981868 6.30000000000001
vertex 5.90574103845503 -8.70879932981868 1.69197988952874e-014
endloop
endfacet
facet normal 0.953664821173772 -0.300871083448705 8.19783069695405e-020
outer loop
vertex 5.92774210061793 -8.63906302025807 6.30000000000001
vertex 5.90574103845503 -8.70879932981868 12.9
vertex 5.90574103845503 -8.70879932981868 6.30000000000001
endloop
endfacet
facet normal 0.953664821173772 -0.300871083448705 8.19783069695405e-020
outer loop
vertex 5.90574103845503 -8.70879932981868 12.9
vertex 5.92774210061793 -8.63906302025807 6.30000000000001
vertex 5.92774210061793 -8.63906302025807 12.9
endloop
endfacet
facet normal 0.953664821173779 -0.300871083448683 1.44067810037801e-018
outer loop
vertex 5.90574103845503 -8.70879932981868 6.30000000000001
vertex 5.76772065156153 -9.14627968212238 12.9
vertex 5.76772065156153 -9.14627968212238 6.30000000000001
endloop
endfacet
facet normal 0.953664821173779 -0.300871083448683 1.44067810037801e-018
outer loop
vertex 5.76772065156153 -9.14627968212238 12.9
vertex 5.90574103845503 -8.70879932981868 6.30000000000001
vertex 5.90574103845503 -8.70879932981868 12.9
endloop
endfacet
facet normal 0.817026302242253 -0.576600400142379 -9.3221497898012e-033
outer loop
vertex 5.76772065156153 -9.14627968212238 6.30000000000001
vertex 5.46104966643503 -9.58082371109118 12.9
vertex 5.46104966643503 -9.58082371109118 6.30000000000001
endloop
endfacet
facet normal 0.817026302242253 -0.576600400142379 -9.3221497898012e-033
outer loop
vertex 5.46104966643503 -9.58082371109118 12.9
vertex 5.76772065156153 -9.14627968212238 6.30000000000001
vertex 5.76772065156153 -9.14627968212238 12.9
endloop
endfacet
facet normal 0.603018055225961 -0.797727538117809 0.0
outer loop
vertex 5.46104966643503 -9.58082371109118 12.9
vertex 5.03676988807082 -9.90154520382609 6.30000000000001
vertex 5.46104966643503 -9.58082371109118 6.30000000000001
endloop
endfacet
facet normal 0.603018055225961 -0.797727538117809 0.0
outer loop
vertex 5.03676988807082 -9.90154520382609 6.30000000000001
vertex 5.46104966643503 -9.58082371109118 12.9
vertex 5.03676988807082 -9.90154520382609 12.9
endloop
endfacet
facet normal 0.331905963651721 -0.943312478075226 1.06594522096554e-018
outer loop
vertex 5.03676988807082 -9.90154520382609 12.9
vertex 4.53505922872682 -10.0780728802157 6.30000000000001
vertex 5.03676988807082 -9.90154520382609 6.30000000000001
endloop
endfacet
facet normal 0.331905963651721 -0.943312478075226 1.06594522096554e-018
outer loop
vertex 4.53505922872682 -10.0780728802157 6.30000000000001
vertex 5.03676988807082 -9.90154520382609 12.9
vertex 4.53505922872682 -10.0780728802157 12.9
endloop
endfacet
facet normal 0.00172104668661698 -0.999998518998055 1.95764299855855e-019
outer loop
vertex 4.53505922872682 -10.0780728802157 6.30000000000001
vertex -4.53921016596623 -10.0936901446201 12.9
vertex -4.53921016596623 -10.0936901446201 6.30000000000001
endloop
endfacet
facet normal 0.00172104668661698 -0.999998518998055 1.95764299855855e-019
outer loop
vertex -4.53921016596623 -10.0936901446201 12.9
vertex 4.53505922872682 -10.0780728802157 6.30000000000001
vertex 4.53505922872682 -10.0780728802157 12.9
endloop
endfacet
facet normal -0.101809118579942 -0.994803952230778 0.0
outer loop
vertex -4.53921016596623 -10.0936901446201 12.9
vertex -4.66828588993369 -10.0804804205757 6.30000000000001
vertex -4.53921016596623 -10.0936901446201 6.30000000000001
endloop
endfacet
facet normal -0.101809118579942 -0.994803952230778 0.0
outer loop
vertex -4.66828588993369 -10.0804804205757 6.30000000000001
vertex -4.53921016596623 -10.0936901446201 12.9
vertex -4.66828588993369 -10.0804804205757 12.9
endloop
endfacet
facet normal -0.253694034564991 -0.967284516999077 0.0
outer loop
vertex -4.66828588993369 -10.0804804205757 12.9
vertex -4.92742578443247 -10.0125146419483 6.30000000000001
vertex -4.66828588993369 -10.0804804205757 6.30000000000001
endloop
endfacet
facet normal -0.253694034564991 -0.967284516999077 0.0
outer loop
vertex -4.92742578443247 -10.0125146419483 6.30000000000001
vertex -4.66828588993369 -10.0804804205757 12.9
vertex -4.92742578443247 -10.0125146419483 12.9
endloop
endfacet
facet normal -0.399534348445719 -0.916718225199027 0.0
outer loop
vertex -4.92742578443247 -10.0125146419483 12.9
vertex -5.17301874078431 -9.90547758399341 6.30000000000001
vertex -4.92742578443247 -10.0125146419483 6.30000000000001
endloop
endfacet
facet normal -0.399534348445719 -0.916718225199027 0.0
outer loop
vertex -5.17301874078431 -9.90547758399341 6.30000000000001
vertex -4.92742578443247 -10.0125146419483 12.9
vertex -5.17301874078431 -9.90547758399341 12.9
endloop
endfacet
facet normal 0.331905963651708 -0.94331247807523 -1.05747002879866e-015
outer loop
vertex 4.34957656424928 -8.62183578201635 12.9
vertex 4.28872848421951 -8.64324527368325 11.9
vertex 4.34957656424928 -8.62183578201635 11.9
endloop
endfacet
facet normal 0.331905963651708 -0.94331247807523 -1.05747002879866e-015
outer loop
vertex 4.28872848421951 -8.64324527368325 11.9
vertex 4.34957656424928 -8.62183578201635 12.9
vertex 4.28872848421951 -8.64324527368325 12.9
endloop
endfacet
facet normal 0.603018055225972 -0.797727538117801 -9.02880710050635e-016
outer loop
vertex 4.4172803522676 -8.57065714691674 12.9
vertex 4.34957656424928 -8.62183578201635 11.9
vertex 4.4172803522676 -8.57065714691674 11.9
endloop
endfacet
facet normal 0.603018055225972 -0.797727538117801 -9.02880710050635e-016
outer loop
vertex 4.34957656424928 -8.62183578201635 11.9
vertex 4.4172803522676 -8.57065714691674 12.9
vertex 4.34957656424928 -8.62183578201635 12.9
endloop
endfacet
facet normal 0.817026302242247 -0.576600400142387 -6.62791530603065e-016
outer loop
vertex 4.4172803522676 -8.57065714691674 11.9
vertex 4.46621689939324 -8.50131545701731 12.9
vertex 4.4172803522676 -8.57065714691674 12.9
endloop
endfacet
facet normal 0.817026302242247 -0.576600400142387 -6.62791530603065e-016
outer loop
vertex 4.46621689939324 -8.50131545701731 12.9
vertex 4.4172803522676 -8.57065714691674 11.9
vertex 4.46621689939324 -8.50131545701731 11.9
endloop
endfacet
facet normal 0.953664821173789 -0.30087108344865 -4.23539622696546e-016
outer loop
vertex 4.46621689939324 -8.50131545701731 11.9
vertex 4.49219377910374 -8.41897708119265 12.9
vertex 4.46621689939324 -8.50131545701731 12.9
endloop
endfacet
facet normal 0.953664821173789 -0.30087108344865 -4.23539622696546e-016
outer loop
vertex 4.49219377910374 -8.41897708119265 12.9
vertex 4.46621689939324 -8.50131545701731 11.9
vertex 4.49219377910374 -8.41897708119264 11.9
endloop
endfacet
facet normal 0.999999085895098 0.00135211277975531 4.46619100298452e-018
outer loop
vertex 4.49219377910374 -8.41897708119264 11.9
vertex 4.47183566766886 6.63752791620495 12.9
vertex 4.49219377910374 -8.41897708119265 12.9
endloop
endfacet
facet normal 0.999999085895098 0.00135211277975531 4.46619100298452e-018
outer loop
vertex 4.47183566766886 6.63752791620495 12.9
vertex 4.49219377910374 -8.41897708119264 11.9
vertex 4.47183566766886 6.63752791620495 11.9
endloop
endfacet
facet normal -0.535855218294444 -0.84430988684642 0.0
outer loop
vertex -5.17301874078431 -9.90547758399341 12.9
vertex -5.3992131759857 -9.76191954879788 6.30000000000001
vertex -5.17301874078431 -9.90547758399341 6.30000000000001
endloop
endfacet
facet normal -0.535855218294444 -0.84430988684642 0.0
outer loop
vertex -5.3992131759857 -9.76191954879788 6.30000000000001
vertex -5.17301874078431 -9.90547758399341 12.9
vertex -5.3992131759857 -9.76191954879788 12.9
endloop
endfacet
facet normal 0.921847651940933 0.387552456592638 4.06174057871747e-016
outer loop
vertex 4.47183566766886 6.63752791620495 11.9
vertex 4.45605577129524 6.67506260389031 12.9
vertex 4.47183566766886 6.63752791620495 12.9
endloop
endfacet
facet normal 0.921847651940933 0.387552456592638 4.06174057871747e-016
outer loop
vertex 4.45605577129524 6.67506260389031 12.9
vertex 4.47183566766886 6.63752791620495 11.9
vertex 4.45605577129524 6.67506260389031 11.9
endloop
endfacet
facet normal 0.860690615171725 0.509128338393491 5.42953968383076e-016
outer loop
vertex 4.45605577129524 6.67506260389031 11.9
vertex 4.43289918115542 6.71420923610412 12.9
vertex 4.45605577129524 6.67506260389031 12.9
endloop
endfacet
facet normal 0.860690615171725 0.509128338393491 5.42953968383076e-016
outer loop
vertex 4.43289918115542 6.71420923610412 12.9
vertex 4.45605577129524 6.67506260389031 11.9
vertex 4.43289918115542 6.71420923610412 11.9
endloop
endfacet
facet normal 0.772124361736964 0.635471454915393 6.85765681026864e-016
outer loop
vertex 4.43289918115542 6.71420923610412 11.9
vertex 4.40399615039216 6.749327625778 12.9
vertex 4.43289918115542 6.71420923610412 12.9
endloop
endfacet
facet normal 0.772124361736964 0.635471454915393 6.85765681026864e-016
outer loop
vertex 4.40399615039216 6.749327625778 12.9
vertex 4.43289918115542 6.71420923610412 11.9
vertex 4.40399615039216 6.749327625778 11.9
endloop
endfacet
facet normal 0.665176480006081 0.746686179359656 8.12251668863162e-016
outer loop
vertex 4.37003476086696 6.77958172470864 11.9
vertex 4.40399615039216 6.749327625778 12.9
vertex 4.40399615039216 6.749327625778 11.9
endloop
endfacet
facet normal 0.665176480006081 0.746686179359656 8.12251668863162e-016
outer loop
vertex 4.40399615039216 6.749327625778 12.9
vertex 4.37003476086696 6.77958172470864 11.9
vertex 4.37003476086696 6.77958172470864 12.9
endloop
endfacet
facet normal 0.542393031606565 0.840124871233223 9.19400735084416e-016
outer loop
vertex 4.33182351658462 6.80425128674331 12.9
vertex 4.37003476086696 6.77958172470864 11.9
vertex 4.33182351658462 6.80425128674331 11.9
endloop
endfacet
facet normal 0.542393031606565 0.840124871233223 9.19400735084416e-016
outer loop
vertex 4.37003476086696 6.77958172470864 11.9
vertex 4.33182351658462 6.80425128674331 12.9
vertex 4.37003476086696 6.77958172470864 12.9
endloop
endfacet
facet normal 0.406697068602484 0.913563076306254 1.00466202855177e-015
outer loop
vertex 4.29027209599067 6.82274901436618 12.9
vertex 4.33182351658462 6.80425128674331 11.9
vertex 4.29027209599067 6.82274901436618 11.9
endloop
endfacet
facet normal 0.406697068602484 0.913563076306254 1.00466202855177e-015
outer loop
vertex 4.33182351658462 6.80425128674331 11.9
vertex 4.29027209599067 6.82274901436618 12.9
vertex 4.33182351658462 6.80425128674331 12.9
endloop
endfacet
facet normal 0.000127100994076624 0.999999991922669 1.11161160745131e-015
outer loop
vertex -4.47621310504871 6.82386324335879 12.9
vertex 4.29027209599067 6.82274901436618 11.9
vertex -4.47621310504871 6.82386324335879 11.9
endloop
endfacet
facet normal 0.000127100994076624 0.999999991922669 1.11161160745131e-015
outer loop
vertex 4.29027209599067 6.82274901436618 11.9
vertex -4.47621310504871 6.82386324335879 12.9
vertex 4.29027209599067 6.82274901436618 12.9
endloop
endfacet
facet normal -0.256863705908694 0.966447637788438 1.08118202174503e-015
outer loop
vertex -4.50518828963681 6.8161621812405 12.9
vertex -4.47621310504871 6.82386324335879 11.9
vertex -4.50518828963681 6.8161621812405 11.9
endloop
endfacet
facet normal -0.256863705908694 0.966447637788438 1.08118202174503e-015
outer loop
vertex -4.47621310504871 6.82386324335879 11.9
vertex -4.50518828963681 6.8161621812405 12.9
vertex -4.47621310504871 6.82386324335879 12.9
endloop
endfacet
facet normal -0.563903835285108 0.825840459502164 9.3308618346205e-016
outer loop
vertex -4.55813950038972 6.78000581413231 12.9
vertex -4.50518828963681 6.8161621812405 11.9
vertex -4.55813950038972 6.78000581413231 11.9
endloop
endfacet
facet normal -0.563903835285108 0.825840459502164 9.3308618346205e-016
outer loop
vertex -4.50518828963681 6.8161621812405 11.9
vertex -4.55813950038972 6.78000581413231 12.9
vertex -4.50518828963681 6.8161621812405 12.9
endloop
endfacet
facet normal -0.661817901464857 0.749664635220745 8.51024608126468e-016
outer loop
vertex -4.59307567948334 6.74916350458928 12.9
vertex -4.55813950038972 6.78000581413231 11.9
vertex -4.59307567948334 6.74916350458928 11.9
endloop
endfacet
facet normal -0.661817901464857 0.749664635220745 8.51024608126468e-016
outer loop
vertex -4.55813950038972 6.78000581413231 11.9
vertex -4.59307567948334 6.74916350458928 12.9
vertex -4.55813950038972 6.78000581413231 12.9
endloop
endfacet
facet normal -0.769290323860331 0.638899364231071 7.30768318052801e-016
outer loop
vertex -4.59307567948334 6.74916350458928 12.9
vertex -4.62284992994535 6.71331272109666 11.9
vertex -4.62284992994535 6.71331272109666 12.9
endloop
endfacet
facet normal -0.769290323860331 0.638899364231071 7.30768318052801e-016
outer loop
vertex -4.62284992994535 6.71331272109666 11.9
vertex -4.59307567948334 6.74916350458928 12.9
vertex -4.59307567948334 6.74916350458928 11.9
endloop
endfacet
facet normal -0.858438814759717 0.512915978805431 5.93105662418429e-016
outer loop
vertex -4.62284992994535 6.71331272109666 12.9
vertex -4.64675305095925 6.67330740303264 11.9
vertex -4.64675305095925 6.67330740303264 12.9
endloop
endfacet
facet normal -0.858438814759717 0.512915978805431 5.93105662418429e-016
outer loop
vertex -4.64675305095925 6.67330740303264 11.9
vertex -4.62284992994535 6.71331272109666 12.9
vertex -4.62284992994535 6.71331272109666 11.9
endloop
endfacet
facet normal -0.927139922470606 0.374715310817691 4.41315664750725e-016
outer loop
vertex -4.64675305095925 6.67330740303264 12.9
vertex -4.66421568770746 6.63010044774292 11.9
vertex -4.66421568770746 6.63010044774292 12.9
endloop
endfacet
facet normal -0.927139922470606 0.374715310817691 4.41315664750725e-016
outer loop
vertex -4.66421568770746 6.63010044774292 11.9
vertex -4.64675305095925 6.67330740303264 12.9
vertex -4.64675305095925 6.67330740303264 11.9
endloop
endfacet
facet normal -0.999998555354104 -0.0016997910771866 2.48340299972131e-017
outer loop
vertex -4.66421568770746 6.63010044774292 12.9
vertex -4.63854430563205 -8.4725467739676 11.9
vertex -4.63854430563205 -8.4725467739676 12.9
endloop
endfacet
facet normal -0.999998555354104 -0.0016997910771866 2.48340299972131e-017
outer loop
vertex -4.63854430563205 -8.4725467739676 11.9
vertex -4.66421568770746 6.63010044774292 12.9
vertex -4.66421568770746 6.63010044774292 11.9
endloop
endfacet
facet normal -0.909297815404475 -0.416145987485942 -4.38294432672419e-016
outer loop
vertex -4.63854430563205 -8.4725467739676 12.9
vertex -4.62355226234786 -8.50530506701067 11.9
vertex -4.62355226234786 -8.50530506701067 12.9
endloop
endfacet
facet normal -0.909297815404475 -0.416145987485942 -4.38294432672419e-016
outer loop
vertex -4.62355226234786 -8.50530506701067 11.9
vertex -4.63854430563205 -8.4725467739676 12.9
vertex -4.63854430563205 -8.4725467739676 11.9
endloop
endfacet
facet normal -0.856812031897994 -0.515628880101601 -5.50283717776308e-016
outer loop
vertex -4.62355226234786 -8.50530506701067 12.9
vertex -4.59998816722542 -8.54446113642578 11.9
vertex -4.59998816722542 -8.54446113642578 12.9
endloop
endfacet
facet normal -0.856812031897994 -0.515628880101601 -5.50283717776308e-016
outer loop
vertex -4.59998816722542 -8.54446113642578 11.9
vertex -4.62355226234786 -8.50530506701067 12.9
vertex -4.62355226234786 -8.50530506701067 11.9
endloop
endfacet
facet normal -0.767250714718782 -0.641347285613277 -6.92427583949782e-016
outer loop
vertex -4.59998816722542 -8.54446113642578 12.9
vertex -4.57067877625078 -8.57952427877892 11.9
vertex -4.57067877625078 -8.57952427877893 12.9
endloop
endfacet
facet normal -0.767250714718782 -0.641347285613277 -6.92427583949782e-016
outer loop
vertex -4.57067877625078 -8.57952427877892 11.9
vertex -4.59998816722542 -8.54446113642578 12.9
vertex -4.59998816722542 -8.54446113642578 11.9
endloop
endfacet
facet normal -0.659408615759938 -0.751784728138024 -8.18073430222307e-016
outer loop
vertex -4.53632242514424 -8.60965906747281 12.9
vertex -4.57067877625078 -8.57952427877892 11.9
vertex -4.53632242514424 -8.60965906747281 11.9
endloop
endfacet
facet normal -0.659408615759938 -0.751784728138024 -8.18073430222307e-016
outer loop
vertex -4.57067877625078 -8.57952427877892 11.9
vertex -4.53632242514424 -8.60965906747281 12.9
vertex -4.57067877625078 -8.57952427877893 12.9
endloop
endfacet
facet normal -0.535855218294441 -0.844309886846422 -9.24227575059175e-016
outer loop
vertex -4.49773770024964 -8.63414750057461 12.9
vertex -4.53632242514424 -8.60965906747281 11.9
vertex -4.49773770024964 -8.63414750057461 11.9
endloop
endfacet
facet normal -0.535855218294441 -0.844309886846422 -9.24227575059175e-016
outer loop
vertex -4.53632242514424 -8.60965906747281 11.9
vertex -4.49773770024964 -8.63414750057461 12.9
vertex -4.53632242514424 -8.60965906747281 12.9
endloop
endfacet
facet normal -0.399534348445715 -0.916718225199029 -1.00836075296792e-015
outer loop
vertex -4.45584393461184 -8.65240610817937 12.9
vertex -4.49773770024964 -8.63414750057461 11.9
vertex -4.45584393461184 -8.65240610817936 11.9
endloop
endfacet
facet normal -0.399534348445715 -0.916718225199029 -1.00836075296792e-015
outer loop
vertex -4.49773770024964 -8.63414750057461 11.9
vertex -4.45584393461184 -8.65240610817937 12.9
vertex -4.49773770024964 -8.63414750057461 12.9
endloop
endfacet
facet normal -0.253694034564976 -0.967284516999081 -1.06846837765575e-015
outer loop
vertex -4.41163930362881 -8.6639998543662 12.9
vertex -4.45584393461184 -8.65240610817936 11.9
vertex -4.41163930362881 -8.6639998543662 11.9
endloop
endfacet
facet normal -0.253694034564976 -0.967284516999081 -1.06846837765575e-015
outer loop
vertex -4.45584393461184 -8.65240610817936 11.9
vertex -4.41163930362881 -8.6639998543662 12.9
vertex -4.45584393461184 -8.65240610817937 12.9
endloop
endfacet
facet normal 0.00238547635421843 -0.999997154747234 -1.11167559867101e-015
outer loop
vertex 4.28872848421951 -8.64324527368325 11.9
vertex -4.41163930362881 -8.6639998543662 12.9
vertex -4.41163930362881 -8.6639998543662 11.9
endloop
endfacet
facet normal 0.00238547635421843 -0.999997154747234 -1.11167559867101e-015
outer loop
vertex -4.41163930362881 -8.6639998543662 12.9
vertex 4.28872848421951 -8.64324527368325 11.9
vertex 4.28872848421951 -8.64324527368325 12.9
endloop
endfacet
facet normal -2.67235818837309e-017 1.11161501302402e-015 -1.0
outer loop
vertex -4.64675305095925 6.67330740303264 11.9
vertex -4.63854430563205 -8.4725467739676 11.9
vertex -4.66421568770746 6.63010044774292 11.9
endloop
endfacet
facet normal -2.67235818837309e-017 1.11161501302402e-015 -1.0
outer loop
vertex -4.63854430563205 -8.4725467739676 11.9
vertex -4.64675305095925 6.67330740303264 11.9
vertex -4.62284992994535 6.71331272109666 11.9
endloop
endfacet
facet normal -2.67235818837309e-017 1.11161501302402e-015 -1.0
outer loop
vertex -4.63854430563205 -8.4725467739676 11.9
vertex -4.62284992994535 6.71331272109666 11.9
vertex -4.62355226234786 -8.50530506701067 11.9
endloop
endfacet
facet normal -2.67235818837309e-017 1.11161501302402e-015 -1.0
outer loop
vertex -4.62355226234786 -8.50530506701067 11.9
vertex -4.62284992994535 6.71331272109666 11.9
vertex -4.59998816722542 -8.54446113642578 11.9
endloop
endfacet
facet normal -2.67235818837309e-017 1.11161501302402e-015 -1.0
outer loop
vertex -4.59998816722542 -8.54446113642578 11.9
vertex -4.62284992994535 6.71331272109666 11.9
vertex -4.59307567948334 6.74916350458928 11.9
endloop
endfacet
facet normal -2.67235818837309e-017 1.11161501302402e-015 -1.0
outer loop
vertex -4.59998816722542 -8.54446113642578 11.9
vertex -4.59307567948334 6.74916350458928 11.9
vertex -4.57067877625078 -8.57952427877892 11.9
endloop
endfacet
facet normal -2.67235818837309e-017 1.11161501302402e-015 -1.0
outer loop
vertex -4.57067877625078 -8.57952427877892 11.9
vertex -4.59307567948334 6.74916350458928 11.9
vertex -4.55813950038972 6.78000581413231 11.9
endloop
endfacet
facet normal -2.67235818837309e-017 1.11161501302402e-015 -1.0
outer loop
vertex -4.57067877625078 -8.57952427877892 11.9
vertex -4.55813950038972 6.78000581413231 11.9
vertex -4.53632242514424 -8.60965906747281 11.9
endloop
endfacet
facet normal -2.67235818837309e-017 1.11161501302402e-015 -1.0
outer loop
vertex -4.53632242514424 -8.60965906747281 11.9
vertex -4.55813950038972 6.78000581413231 11.9
vertex -4.50518828963681 6.8161621812405 11.9
endloop
endfacet
facet normal -2.67235818837309e-017 1.11161501302402e-015 -1.0
outer loop
vertex -4.53632242514424 -8.60965906747281 11.9
vertex -4.50518828963681 6.8161621812405 11.9
vertex -4.49773770024964 -8.63414750057461 11.9
endloop
endfacet
facet normal -2.67235818837309e-017 1.11161501302402e-015 -1.0
outer loop
vertex -4.49773770024964 -8.63414750057461 11.9
vertex -4.50518828963681 6.8161621812405 11.9
vertex -4.47621310504871 6.82386324335879 11.9
endloop
endfacet
facet normal -2.67235818837309e-017 1.11161501302402e-015 -1.0
outer loop
vertex -4.49773770024964 -8.63414750057461 11.9
vertex -4.47621310504871 6.82386324335879 11.9
vertex -4.45584393461184 -8.65240610817936 11.9
endloop
endfacet
facet normal -2.67235818837309e-017 1.11161501302402e-015 -1.0
outer loop
vertex -4.45584393461184 -8.65240610817936 11.9
vertex -4.47621310504871 6.82386324335879 11.9
vertex 4.29027209599067 6.82274901436618 11.9
endloop
endfacet
facet normal -2.67235818837309e-017 1.11161501302402e-015 -1.0
outer loop
vertex -4.45584393461184 -8.65240610817936 11.9
vertex 4.29027209599067 6.82274901436618 11.9
vertex -4.41163930362881 -8.6639998543662 11.9
endloop
endfacet
facet normal -2.67235818837309e-017 1.11161501302402e-015 -1.0
outer loop
vertex -4.41163930362881 -8.6639998543662 11.9
vertex 4.29027209599067 6.82274901436618 11.9
vertex 4.28872848421951 -8.64324527368325 11.9
endloop
endfacet
facet normal -2.67235818837309e-017 1.11161501302402e-015 -1.0
outer loop
vertex 4.28872848421951 -8.64324527368325 11.9
vertex 4.29027209599067 6.82274901436618 11.9
vertex 4.34957656424928 -8.62183578201635 11.9
endloop
endfacet
facet normal -2.67235818837309e-017 1.11161501302402e-015 -1.0
outer loop
vertex 4.34957656424928 -8.62183578201635 11.9
vertex 4.29027209599067 6.82274901436618 11.9
vertex 4.33182351658462 6.80425128674331 11.9
endloop
endfacet
facet normal -2.67235818837309e-017 1.11161501302402e-015 -1.0
outer loop
vertex 4.34957656424928 -8.62183578201635 11.9
vertex 4.33182351658462 6.80425128674331 11.9
vertex 4.37003476086696 6.77958172470864 11.9
endloop
endfacet
facet normal -2.67235818837309e-017 1.11161501302402e-015 -1.0
outer loop
vertex 4.34957656424928 -8.62183578201635 11.9
vertex 4.37003476086696 6.77958172470864 11.9
vertex 4.4172803522676 -8.57065714691674 11.9
endloop
endfacet
facet normal -2.67235818837309e-017 1.11161501302402e-015 -1.0
outer loop
vertex 4.4172803522676 -8.57065714691674 11.9
vertex 4.37003476086696 6.77958172470864 11.9
vertex 4.40399615039216 6.749327625778 11.9
endloop
endfacet
facet normal -2.67235818837309e-017 1.11161501302402e-015 -1.0
outer loop
vertex 4.4172803522676 -8.57065714691674 11.9
vertex 4.40399615039216 6.749327625778 11.9
vertex 4.43289918115542 6.71420923610412 11.9
endloop
endfacet
facet normal -2.67235818837309e-017 1.11161501302402e-015 -1.0
outer loop
vertex 4.4172803522676 -8.57065714691674 11.9
vertex 4.43289918115542 6.71420923610412 11.9
vertex 4.46621689939324 -8.50131545701731 11.9
endloop
endfacet
facet normal -2.67235818837309e-017 1.11161501302402e-015 -1.0
outer loop
vertex 4.46621689939324 -8.50131545701731 11.9
vertex 4.43289918115542 6.71420923610412 11.9
vertex 4.45605577129524 6.67506260389031 11.9
endloop
endfacet
facet normal -2.67235818837309e-017 1.11161501302402e-015 -1.0
outer loop
vertex 4.46621689939324 -8.50131545701731 11.9
vertex 4.45605577129524 6.67506260389031 11.9
vertex 4.47183566766886 6.63752791620495 11.9
endloop
endfacet
facet normal -2.67235818837309e-017 1.11161501302402e-015 -1.0
outer loop
vertex 4.46621689939324 -8.50131545701731 11.9
vertex 4.47183566766886 6.63752791620495 11.9
vertex 4.49219377910374 -8.41897708119264 11.9
endloop
endfacet
facet normal -0.00040899480019546 0.999999916361615 1.29618025959318e-007
outer loop
vertex -7.09724598519253 4.27501812120453 2.70239732836851e-005
vertex -6.09637701886366 4.27542695414741 4.31583831968654
vertex -6.09724606919607 4.275427116057 1.67245220489102e-014
endloop
endfacet
facet normal -0.00040899480019546 0.999999916361615 1.29618025959318e-007
outer loop
vertex -6.09637701886366 4.27542695414741 4.31583831968654
vertex -7.09724598519253 4.27501812120453 2.70239732836851e-005
vertex -7.09637693486012 4.27501795929493 4.31586534365981
endloop
endfacet
facet normal 2.70239728323023e-005 6.58908060761385e-009 0.999999999634852
outer loop
vertex -7.09538997345093 0.227166688879834 4.31586534365981
vertex -6.09637701886366 4.27542695414741 4.31583831968654
vertex -7.09637693486012 4.27501795929493 4.31586534365981
endloop
endfacet
facet normal 2.70239728323023e-005 6.58908060761385e-009 0.999999999634852
outer loop
vertex -6.09637701886366 4.27542695414741 4.31583831968654
vertex -7.09538997345093 0.227166688879834 4.31586534365981
vertex -6.09539005745448 0.227575683732309 4.31583831968654
endloop
endfacet
facet normal 0.000408994893034351 -0.999999916361539 -3.0342826311705e-007
outer loop
vertex -6.09539005745448 0.227575683732309 4.31583831968654
vertex -7.09480482896234 0.227168098005183 2.70239732764793e-005
vertex -6.09480491296589 0.227577092857657 9.51874498446532e-015
endloop
endfacet
facet normal 0.000408994893034351 -0.999999916361539 -3.0342826311705e-007
outer loop
vertex -7.09480482896234 0.227168098005183 2.70239732764793e-005
vertex -6.09539005745448 0.227575683732309 4.31583831968654
vertex -7.09538997345093 0.227166688879834 4.31586534365981
endloop
endfacet
facet normal -0.999999915996454 -0.000408994852474531 2.70239732669605e-005
outer loop
vertex -7.09538997345093 0.227166688879834 4.31586534365981
vertex -7.09654585379093 0.915062902120552 3.62796818003964
vertex -7.09480482896234 0.227168098005183 2.70239732764793e-005
endloop
endfacet
facet normal -0.999999915996454 -0.000408994852474531 2.70239732669605e-005
outer loop
vertex -7.09654585379093 0.915062902120552 3.62796818003964
vertex -7.09538997345093 0.227166688879834 4.31586534365981
vertex -7.09637693486012 4.27501795929493 4.31586534365981
endloop
endfacet
facet normal -0.999999915996454 -0.000408994852474531 2.70239732669605e-005
outer loop
vertex -7.09654585379093 0.915062902120552 3.62796818003964
vertex -7.09637693486012 4.27501795929493 4.31586534365981
vertex -7.09654585379093 3.58712174605422 3.62796818003964
endloop
endfacet
facet normal -0.999999915996454 -0.000408994852474531 2.70239732669605e-005
outer loop
vertex -7.09654585379093 3.58712174605422 3.62796818003964
vertex -7.09637693486012 4.27501795929493 4.31586534365981
vertex -7.09654585379093 3.58712174605422 2.70239732761254e-005
endloop
endfacet
facet normal -0.999999915996454 -0.000408994852474531 2.70239732669605e-005
outer loop
vertex -7.09654585379093 3.58712174605422 2.70239732761254e-005
vertex -7.09637693486012 4.27501795929493 4.31586534365981
vertex -7.09724598519253 4.27501812120453 2.70239732836851e-005
endloop
endfacet
facet normal -0.999999915996454 -0.000408994852474531 2.70239732669605e-005
outer loop
vertex -7.09654585379093 0.915062902120552 2.70239732761254e-005
vertex -7.09480482896234 0.227168098005183 2.70239732764793e-005
vertex -7.09654585379093 0.915062902120552 3.62796818003964
endloop
endfacet
facet normal -0.99999861679609 -0.00164118302704894 0.000270044771443988
outer loop
vertex -6.09768833722012 6.80319768605066 12.9
vertex -6.07353136036 -8.64141610922004 6.30000000000001
vertex -6.07353136036 -8.64141610922004 12.9
endloop
endfacet
facet normal -0.99999861679609 -0.00164118302704894 0.000270044771443988
outer loop
vertex -6.07353136036 -8.64141610922004 6.30000000000001
vertex -6.09768833722012 6.80319768605066 12.9
vertex -6.07353136036 -8.64141610922004 1.40998324127395e-014
endloop
endfacet
facet normal -0.99999861679609 -0.00164118302704894 0.000270044771443988
outer loop
vertex -6.07353136036 -8.64141610922004 1.40998324127395e-014
vertex -6.09768833722012 6.80319768605066 12.9
vertex -6.09539005745448 0.227575683732309 4.31583831968654
endloop
endfacet
facet normal -0.99999861679609 -0.00164118302704894 0.000270044771443988
outer loop
vertex -6.09539005745448 0.227575683732309 4.31583831968654
vertex -6.09768833722012 6.80319768605066 12.9
vertex -6.09637701886366 4.27542695414741 4.31583831968654
endloop
endfacet
facet normal -0.99999861679609 -0.00164118302704894 0.000270044771443988
outer loop
vertex -6.09637701886366 4.27542695414741 4.31583831968654
vertex -6.09768833722012 6.80319768605066 12.9
vertex -6.09724606919607 4.275427116057 1.67245220489102e-014
endloop
endfacet
facet normal -0.99999861679609 -0.00164118302704894 0.000270044771443988
outer loop
vertex -6.09724606919607 4.275427116057 1.67245220489102e-014
vertex -6.09768833722012 6.80319768605066 12.9
vertex -6.09768833722012 6.80319768605066 4.44144721001294e-014
endloop
endfacet
facet normal -0.99999861679609 -0.00164118302704894 0.000270044771443988
outer loop
vertex -6.09480491296589 0.227577092857657 9.51874498446532e-015
vertex -6.07353136036 -8.64141610922004 1.40998324127395e-014
vertex -6.09539005745448 0.227575683732309 4.31583831968654
endloop
endfacet
facet normal 0.953664821173772 -0.300871083448705 -3.1895780029159e-019
outer loop
vertex 5.92774210061793 -8.63906302025807 6.30000000000001
vertex 5.90574103845503 -8.70879932981868 1.69197988952874e-014
vertex 5.92774210061793 -8.63906302025807 2.25597318603832e-014
endloop
endfacet
facet normal -4.04543744665471e-007 8.95172141215839e-008 -0.999999999999914
outer loop
vertex -6.03651827874571 7.06491830998777 4.44144721001294e-014
vertex -6.09724606919607 4.275427116057 1.67245220489102e-014
vertex -6.09768833722012 6.80319768605066 4.44144721001294e-014
endloop
endfacet
facet normal -4.04543744665471e-007 8.95172141215839e-008 -0.999999999999914
outer loop
vertex -6.09724606919607 4.275427116057 1.67245220489102e-014
vertex -7.09654585379093 3.58712174605422 2.70239732761254e-005
vertex -7.09724598519253 4.27501812120453 2.70239732836851e-005
endloop
endfacet
facet normal -4.04543744665471e-007 8.95172141215839e-008 -0.999999999999914
outer loop
vertex -7.09654585379093 3.58712174605422 2.70239732761254e-005
vertex -6.09724606919607 4.275427116057 1.67245220489102e-014
vertex -5.59654593779448 3.58753074090669 9.16489106828067e-015
endloop
endfacet
facet normal -4.04543744665471e-007 8.95172141215839e-008 -0.999999999999914
outer loop
vertex -5.59654593779448 3.58753074090669 9.16489106828067e-015
vertex -6.09724606919607 4.275427116057 1.67245220489102e-014
vertex -6.03651827874571 7.06491830998777 4.44144721001294e-014
endloop
endfacet
facet normal -4.04543744665471e-007 8.95172141215839e-008 -0.999999999999914
outer loop
vertex -5.59654593779448 3.58753074090669 9.16489106828067e-015
vertex -6.03651827874571 7.06491830998777 4.44144721001294e-014
vertex -5.93580454720982 7.31410941201172 4.44144721001294e-014
endloop
endfacet
facet normal -4.04543744665471e-007 8.95172141215839e-008 -0.999999999999914
outer loop
vertex -5.59654593779448 3.58753074090669 9.16489106828067e-015
vertex -5.93580454720982 7.31410941201172 4.44144721001294e-014
vertex -5.79794606985764 7.544835442771 4.44144721001294e-014
endloop
endfacet
facet normal -4.04543744665471e-007 8.95172141215839e-008 -0.999999999999914
outer loop
vertex -5.59654593779448 3.58753074090669 9.16489106828067e-015
vertex -5.79794606985764 7.544835442771 4.44144721001294e-014
vertex -5.62622653454641 7.75160067737365 4.44144721001294e-014
endloop
endfacet
facet normal -4.04543744665471e-007 8.95172141215839e-008 -0.999999999999914
outer loop
vertex -5.59654593779448 3.58753074090669 9.16489106828067e-015
vertex -5.62622653454641 7.75160067737365 4.44144721001294e-014
vertex -5.42473617470813 7.92948011952488 4.44144721001294e-014
endloop
endfacet
facet normal -4.04543744665471e-007 8.95172141215839e-008 -0.999999999999914
outer loop
vertex -5.59654593779448 3.58753074090669 9.16489106828067e-015
vertex -5.42473617470813 7.92948011952488 4.44144721001294e-014
vertex -5.59654593779448 0.915471896973026 9.16489106828067e-015
endloop
endfacet
facet normal -4.04543744665471e-007 8.95172141215839e-008 -0.999999999999914
outer loop
vertex -5.59654593779448 0.915471896973026 9.16489106828067e-015
vertex -7.09480482896234 0.227168098005183 2.70239732764793e-005
vertex -7.09654585379093 0.915062902120552 2.70239732761254e-005
endloop
endfacet
facet normal -4.04543744665471e-007 8.95172141215839e-008 -0.999999999999914
outer loop
vertex -7.09480482896234 0.227168098005183 2.70239732764793e-005
vertex -5.59654593779448 0.915471896973026 9.16489106828067e-015
vertex -6.09480491296589 0.227577092857657 9.51874498446532e-015
endloop
endfacet
facet normal -4.04543744665471e-007 8.95172141215839e-008 -0.999999999999914
outer loop
vertex -6.09480491296589 0.227577092857657 9.51874498446532e-015
vertex -5.59654593779448 0.915471896973026 9.16489106828067e-015
vertex -6.07353136036 -8.64141610922004 1.40998324127395e-014
endloop
endfacet
facet normal -4.04543744665471e-007 8.95172141215839e-008 -0.999999999999914
outer loop
vertex -6.07353136036 -8.64141610922004 1.40998324127395e-014
vertex -5.59654593779448 0.915471896973026 9.16489106828067e-015
vertex -6.03425271283338 -15.9419200909113 2.7494673204842e-014
endloop
endfacet
facet normal -4.04543744665471e-007 8.95172141215839e-008 -0.999999999999914
outer loop
vertex -6.03425271283338 -15.9419200909113 2.7494673204842e-014
vertex -5.59654593779448 0.915471896973026 9.16489106828067e-015
vertex -5.93308528927089 -16.1899885983745 2.7494673204842e-014
endloop
endfacet
facet normal -4.04543744665471e-007 8.95172141215839e-008 -0.999999999999914
outer loop
vertex -5.93308528927089 -16.1899885983745 2.7494673204842e-014
vertex -5.59654593779448 0.915471896973026 9.16489106828067e-015
vertex -5.7949459815059 -16.4195324147483 2.6084689963568e-014
endloop
endfacet
facet normal -4.04543744665471e-007 8.95172141215839e-008 -0.999999999999914
outer loop
vertex -5.7949459815059 -16.4195324147483 2.6084689963568e-014
vertex -5.59654593779448 0.915471896973026 9.16489106828067e-015
vertex -5.62312614462221 -16.6250823494079 2.6084689963568e-014
endloop
endfacet
facet normal -4.04543744665471e-007 8.95172141215839e-008 -0.999999999999914
outer loop
vertex -5.62312614462221 -16.6250823494079 2.6084689963568e-014
vertex -5.59654593779448 0.915471896973026 9.16489106828067e-015
vertex -5.42171961767822 -16.8017408982801 2.6084689963568e-014
endloop
endfacet
facet normal -4.04543744665471e-007 8.95172141215839e-008 -0.999999999999914
outer loop
vertex -5.42171961767822 -16.8017408982801 2.6084689963568e-014
vertex -5.59654593779448 0.915471896973026 9.16489106828067e-015
vertex -5.42473617470813 7.92948011952488 4.44144721001294e-014
endloop
endfacet
facet normal -4.04543744665471e-007 8.95172141215839e-008 -0.999999999999914
outer loop
vertex -5.42171961767822 -16.8017408982801 2.6084689963568e-014
vertex -5.42473617470813 7.92948011952488 4.44144721001294e-014
vertex -5.19827434298806 8.07423681132801 4.44144721001294e-014
endloop
endfacet
facet normal -4.04543744665471e-007 8.95172141215839e-008 -0.999999999999914
outer loop
vertex -5.42171961767822 -16.8017408982801 2.6084689963568e-014
vertex -5.19827434298806 8.07423681132801 4.44144721001294e-014
vertex -5.19552518247683 -16.9452989334756 2.6084689963568e-014
endloop
endfacet
facet normal -4.04543744665471e-007 8.95172141215839e-008 -0.999999999999914
outer loop
vertex -5.19552518247683 -16.9452989334756 2.6084689963568e-014
vertex -5.19827434298806 8.07423681132801 4.44144721001294e-014
vertex -4.95223519418342 8.18242275451511 4.44144721001294e-014
endloop
endfacet
facet normal -4.04543744665471e-007 8.95172141215839e-008 -0.999999999999914
outer loop
vertex -5.19552518247683 -16.9452989334756 2.6084689963568e-014
vertex -4.95223519418342 8.18242275451511 4.44144721001294e-014
vertex -4.94993222612499 -17.0523359914305 2.6084689963568e-014
endloop
endfacet
facet normal -4.04543744665471e-007 8.95172141215839e-008 -0.999999999999914
outer loop
vertex -4.94993222612499 -17.0523359914305 2.6084689963568e-014
vertex -4.95223519418342 8.18242275451511 4.44144721001294e-014
vertex -4.69247920043095 8.25146103923784 3.24296145493008e-014
endloop
endfacet
facet normal -4.04543744665471e-007 8.95172141215839e-008 -0.999999999999914
outer loop
vertex -4.94993222612499 -17.0523359914305 2.6084689963568e-014
vertex -4.69247920043095 8.25146103923784 3.24296145493008e-014
vertex -4.69079233162622 -17.1203017700579 1.3747336602421e-014
endloop
endfacet
facet normal -4.04543744665471e-007 8.95172141215839e-008 -0.999999999999914
outer loop
vertex -4.69079233162622 -17.1203017700579 1.3747336602421e-014
vertex -4.69247920043095 8.25146103923784 3.24296145493008e-014
vertex 4.51423063523162 8.24903366055408 -7.04991620636974e-016
endloop
endfacet
facet normal -4.04543744665471e-007 8.95172141215839e-008 -0.999999999999914
outer loop
vertex -4.69079233162622 -17.1203017700579 1.3747336602421e-014
vertex 4.51423063523162 8.24903366055408 -7.04991620636974e-016
vertex -4.56171660765875 -17.1335114941023 2.46747067222941e-014
endloop
endfacet
facet normal -4.04543744665471e-007 8.95172141215839e-008 -0.999999999999914
outer loop
vertex -4.56171660765875 -17.1335114941023 2.46747067222941e-014
vertex 4.51423063523162 8.24903366055408 -7.04991620636974e-016
vertex 4.51255278703429 -17.1178942296979 1.33948407921025e-014
endloop
endfacet
facet normal -4.04543744665471e-007 8.95172141215839e-008 -0.999999999999914
outer loop
vertex 4.51255278703429 -17.1178942296979 1.33948407921025e-014
vertex 4.51423063523162 8.24903366055408 -7.04991620636974e-016
vertex 4.77023910986509 -17.0490448094106 2.53796983429311e-014
endloop
endfacet
facet normal -4.04543744665471e-007 8.95172141215839e-008 -0.999999999999914
outer loop
vertex 4.77023910986509 -17.0490448094106 2.53796983429311e-014
vertex 4.51423063523162 8.24903366055408 -7.04991620636974e-016
vertex 4.77252717818939 8.17910604339887 1.12798659301916e-014
endloop
endfacet
facet normal -4.04543744665471e-007 8.95172141215839e-008 -0.999999999999914
outer loop
vertex 4.77023910986509 -17.0490448094106 2.53796983429311e-014
vertex 4.77252717818939 8.17910604339887 1.12798659301916e-014
vertex 5.01426344637829 -16.9413665533083 2.53796983429311e-014
endloop
endfacet
facet normal -4.04543744665471e-007 8.95172141215839e-008 -0.999999999999914
outer loop
vertex 5.01426344637829 -16.9413665533083 2.53796983429311e-014
vertex 4.77252717818939 8.17910604339887 1.12798659301916e-014
vertex 5.01699190476069 8.07027602360948 1.12798659301916e-014
endloop
endfacet
facet normal -4.04543744665471e-007 8.95172141215839e-008 -0.999999999999914
outer loop
vertex 5.01426344637829 -16.9413665533083 2.53796983429311e-014
vertex 5.01699190476069 8.07027602360948 1.12798659301916e-014
vertex 5.23881411650737 -16.7974239251798 2.53796983429311e-014
endloop
endfacet
facet normal -4.04543744665471e-007 8.95172141215839e-008 -0.999999999999914
outer loop
vertex 5.23881411650737 -16.7974239251798 2.53796983429311e-014
vertex 5.01699190476069 8.07027602360948 1.12798659301916e-014
vertex 5.24180494970357 7.92513447005415 1.12798659301916e-014
endloop
endfacet
facet normal -4.04543744665471e-007 8.95172141215839e-008 -0.999999999999914
outer loop
vertex 5.23881411650737 -16.7974239251798 2.53796983429311e-014
vertex 5.24180494970357 7.92513447005415 1.12798659301916e-014
vertex 5.4385432247425 -16.6206450605734 2.53796983429311e-014
endloop
endfacet
facet normal -4.04543744665471e-007 8.95172141215839e-008 -0.999999999999914
outer loop
vertex 5.4385432247425 -16.6206450605734 2.53796983429311e-014
vertex 5.24180494970357 7.92513447005415 1.12798659301916e-014
vertex 5.44161428679913 7.74713670446601 1.12798659301916e-014
endloop
endfacet
facet normal -4.04543744665471e-007 8.95172141215839e-008 -0.999999999999914
outer loop
vertex 5.4385432247425 -16.6206450605734 2.53796983429311e-014
vertex 5.44161428679913 7.74713670446601 1.12798659301916e-014
vertex 5.6086940255327 -16.4152401223698 2.53796983429311e-014
endloop
endfacet
facet normal -4.04543744665471e-007 8.95172141215839e-008 -0.999999999999914
outer loop
vertex 5.6086940255327 -16.4152401223698 2.53796983429311e-014
vertex 5.44161428679913 7.74713670446601 1.12798659301916e-014
vertex 5.61166314220808 7.54052024210386 1.12798659301916e-014
endloop
endfacet
facet normal -4.04543744665471e-007 8.95172141215839e-008 -0.999999999999914
outer loop
vertex 5.6086940255327 -16.4152401223698 2.53796983429311e-014
vertex 5.61166314220808 7.54052024210386 1.12798659301916e-014
vertex 5.74521420986899 -16.1861010316046 2.53796983429311e-014
endloop
endfacet
facet normal -4.04543744665471e-007 8.95172141215839e-008 -0.999999999999914
outer loop
vertex 5.74521420986899 -16.1861010316046 2.53796983429311e-014
vertex 5.61166314220808 7.54052024210386 1.12798659301916e-014
vertex 5.74790323691321 7.31020391107264 1.12798659301916e-014
endloop
endfacet
facet normal -4.04543744665471e-007 8.95172141215839e-008 -0.999999999999914
outer loop
vertex 5.74521420986899 -16.1861010316046 2.53796983429311e-014
vertex 5.74790323691321 7.31020391107264 1.12798659301916e-014
vertex 5.84485241501713 -15.9386849615469 2.53796983429311e-014
endloop
endfacet
facet normal -4.04543744665471e-007 8.95172141215839e-008 -0.999999999999914
outer loop
vertex 5.84485241501713 -15.9386849615469 2.53796983429311e-014
vertex 5.74790323691321 7.31020391107264 1.12798659301916e-014
vertex 5.84709116233423 7.06167075192559 1.12798659301916e-014
endloop
endfacet
facet normal -4.04543744665471e-007 8.95172141215839e-008 -0.999999999999914
outer loop
vertex 5.84485241501713 -15.9386849615469 2.53796983429311e-014
vertex 5.84709116233423 7.06167075192559 1.12798659301916e-014
vertex 5.90523565892539 -15.6788843697403 2.6789681584205e-014
endloop
endfacet
facet normal -4.04543744665471e-007 8.95172141215839e-008 -0.999999999999914
outer loop
vertex 5.90523565892539 -15.6788843697403 2.6789681584205e-014
vertex 5.84709116233423 7.06167075192559 1.12798659301916e-014
vertex 5.90686559474287 6.80083748530652 1.12798659301916e-014
endloop
endfacet
facet normal -4.04543744665471e-007 8.95172141215839e-008 -0.999999999999914
outer loop
vertex 5.90523565892539 -15.6788843697403 2.6789681584205e-014
vertex 5.90686559474287 6.80083748530652 1.12798659301916e-014
vertex 5.90574103845503 -8.70879932981868 1.69197988952874e-014
endloop
endfacet
facet normal -4.04543744665471e-007 8.95172141215839e-008 -0.999999999999914
outer loop
vertex 5.90574103845503 -8.70879932981868 1.69197988952874e-014
vertex 5.90686559474287 6.80083748530652 1.12798659301916e-014
vertex 5.92774210061793 -8.63906302025807 2.25597318603832e-014
endloop
endfacet
facet normal -4.04543744665471e-007 8.95172141215839e-008 -0.999999999999914
outer loop
vertex -6.03425271283338 -15.9419200909113 2.7494673204842e-014
vertex -6.09603780205253 -15.6812374587022 2.7494673204842e-014
vertex -6.07353136036 -8.64141610922004 1.40998324127395e-014
endloop
endfacet
facet normal 9.02069029517122e-017 -2.36264101831353e-016 -1.0
outer loop
vertex -6.07353136036 -8.64141610922004 6.30000000000001
vertex -6.03425271283338 -15.9419200909113 6.30000000000001
vertex -6.09603780205253 -15.6812374587022 6.30000000000001
endloop
endfacet
facet normal 9.02069029517122e-017 -2.36264101831353e-016 -1.0
outer loop
vertex -6.03425271283338 -15.9419200909113 6.30000000000001
vertex -6.07353136036 -8.64141610922004 6.30000000000001
vertex -6.01174627114086 -8.90209874142912 6.30000000000001
endloop
endfacet
facet normal 9.02069029517122e-017 -2.36264101831353e-016 -1.0
outer loop
vertex -6.03425271283338 -15.9419200909113 6.30000000000001
vertex -6.01174627114086 -8.90209874142912 6.30000000000001
vertex -5.93308528927089 -16.1899885983745 6.30000000000001
endloop
endfacet
facet normal 9.02069029517122e-017 -2.36264101831353e-016 -1.0
outer loop
vertex -5.93308528927089 -16.1899885983745 6.30000000000001
vertex -6.01174627114086 -8.90209874142912 6.30000000000001
vertex -5.91057884757837 -9.15016724889228 6.30000000000001
endloop
endfacet
facet normal 9.02069029517122e-017 -2.36264101831353e-016 -1.0
outer loop
vertex -5.93308528927089 -16.1899885983745 6.30000000000001
vertex -5.91057884757837 -9.15016724889228 6.30000000000001
vertex -5.7949459815059 -16.4195324147483 6.30000000000001
endloop
endfacet
facet normal 9.02069029517122e-017 -2.36264101831353e-016 -1.0
outer loop
vertex -5.7949459815059 -16.4195324147483 6.30000000000001
vertex -5.91057884757837 -9.15016724889228 6.30000000000001
vertex -5.77243953981338 -9.37971106526615 6.30000000000001
endloop
endfacet
facet normal 9.02069029517122e-017 -2.36264101831353e-016 -1.0
outer loop
vertex -5.7949459815059 -16.4195324147483 6.30000000000001
vertex -5.77243953981338 -9.37971106526615 6.30000000000001
vertex -5.62312614462221 -16.6250823494079 6.30000000000001
endloop
endfacet
facet normal 9.02069029517122e-017 -2.36264101831353e-016 -1.0
outer loop
vertex -5.62312614462221 -16.6250823494079 6.30000000000001
vertex -5.77243953981338 -9.37971106526615 6.30000000000001
vertex -5.60061970292969 -9.58526099992567 6.30000000000001
endloop
endfacet
facet normal 9.02069029517122e-017 -2.36264101831353e-016 -1.0
outer loop
vertex -5.62312614462221 -16.6250823494079 6.30000000000001
vertex -5.60061970292969 -9.58526099992567 6.30000000000001
vertex -5.42171961767822 -16.8017408982801 6.30000000000001
endloop
endfacet
facet normal 9.02069029517122e-017 -2.36264101831353e-016 -1.0
outer loop
vertex -5.42171961767822 -16.8017408982801 6.30000000000001
vertex -5.60061970292969 -9.58526099992567 6.30000000000001
vertex -5.3992131759857 -9.76191954879788 6.30000000000001
endloop
endfacet
facet normal 9.02069029517122e-017 -2.36264101831353e-016 -1.0
outer loop
vertex -5.42171961767822 -16.8017408982801 6.30000000000001
vertex -5.3992131759857 -9.76191954879788 6.30000000000001
vertex -5.19552518247683 -16.9452989334756 6.30000000000001
endloop
endfacet
facet normal 9.02069029517122e-017 -2.36264101831353e-016 -1.0
outer loop
vertex -5.19552518247683 -16.9452989334756 6.30000000000001
vertex -5.3992131759857 -9.76191954879788 6.30000000000001
vertex -5.17301874078431 -9.90547758399341 6.30000000000001
endloop
endfacet
facet normal 9.02069029517122e-017 -2.36264101831353e-016 -1.0
outer loop
vertex -5.19552518247683 -16.9452989334756 6.30000000000001
vertex -5.17301874078431 -9.90547758399341 6.30000000000001
vertex -4.94993222612499 -17.0523359914305 6.30000000000001
endloop
endfacet
facet normal 9.02069029517122e-017 -2.36264101831353e-016 -1.0
outer loop
vertex -4.94993222612499 -17.0523359914305 6.30000000000001
vertex -5.17301874078431 -9.90547758399341 6.30000000000001
vertex -4.92742578443247 -10.0125146419483 6.30000000000001
endloop
endfacet
facet normal 9.02069029517122e-017 -2.36264101831353e-016 -1.0
outer loop
vertex -4.94993222612499 -17.0523359914305 6.30000000000001
vertex -4.92742578443247 -10.0125146419483 6.30000000000001
vertex -4.69079233162622 -17.1203017700579 6.30000000000001
endloop
endfacet
facet normal 9.02069029517122e-017 -2.36264101831353e-016 -1.0
outer loop
vertex -4.69079233162622 -17.1203017700579 6.30000000000001
vertex -4.92742578443247 -10.0125146419483 6.30000000000001
vertex -4.66828588993369 -10.0804804205757 6.30000000000001
endloop
endfacet
facet normal 9.02069029517122e-017 -2.36264101831353e-016 -1.0
outer loop
vertex -4.69079233162622 -17.1203017700579 6.30000000000001
vertex -4.66828588993369 -10.0804804205757 6.30000000000001
vertex -4.56171660765875 -17.1335114941023 6.30000000000001
endloop
endfacet
facet normal 9.02069029517122e-017 -2.36264101831353e-016 -1.0
outer loop
vertex -4.56171660765875 -17.1335114941023 6.30000000000001
vertex -4.66828588993369 -10.0804804205757 6.30000000000001
vertex -4.53921016596623 -10.0936901446201 6.30000000000001
endloop
endfacet
facet normal 9.02069029517122e-017 -2.36264101831353e-016 -1.0
outer loop
vertex -4.56171660765875 -17.1335114941023 6.30000000000001
vertex -4.53921016596623 -10.0936901446201 6.30000000000001
vertex 4.51255278703429 -17.1178942296979 6.30000000000001
endloop
endfacet
facet normal 9.02069029517122e-017 -2.36264101831353e-016 -1.0
outer loop
vertex 4.51255278703429 -17.1178942296979 6.30000000000001
vertex -4.53921016596623 -10.0936901446201 6.30000000000001
vertex 4.53505922872682 -10.0780728802157 6.30000000000001
endloop
endfacet
facet normal 9.02069029517122e-017 -2.36264101831353e-016 -1.0
outer loop
vertex 4.51255278703429 -17.1178942296979 6.30000000000001
vertex 4.53505922872682 -10.0780728802157 6.30000000000001
vertex 4.77023910986509 -17.0490448094106 6.30000000000001
endloop
endfacet
facet normal 9.02069029517122e-017 -2.36264101831353e-016 -1.0
outer loop
vertex 4.77023910986509 -17.0490448094106 6.30000000000001
vertex 4.53505922872682 -10.0780728802157 6.30000000000001
vertex 5.03676988807082 -9.90154520382609 6.30000000000001
endloop
endfacet
facet normal 9.02069029517122e-017 -2.36264101831353e-016 -1.0
outer loop
vertex 4.77023910986509 -17.0490448094106 6.30000000000001
vertex 5.03676988807082 -9.90154520382609 6.30000000000001
vertex 5.01426344637829 -16.9413665533083 6.30000000000001
endloop
endfacet
facet normal 9.02069029517122e-017 -2.36264101831353e-016 -1.0
outer loop
vertex 5.01426344637829 -16.9413665533083 6.30000000000001
vertex 5.03676988807082 -9.90154520382609 6.30000000000001
vertex 5.23881411650737 -16.7974239251798 6.30000000000001
endloop
endfacet
facet normal 9.02069029517122e-017 -2.36264101831353e-016 -1.0
outer loop
vertex 5.23881411650737 -16.7974239251798 6.30000000000001
vertex 5.03676988807082 -9.90154520382609 6.30000000000001
vertex 5.46104966643503 -9.58082371109118 6.30000000000001
endloop
endfacet
facet normal 9.02069029517122e-017 -2.36264101831353e-016 -1.0
outer loop
vertex 5.23881411650737 -16.7974239251798 6.30000000000001
vertex 5.46104966643503 -9.58082371109118 6.30000000000001
vertex 5.4385432247425 -16.6206450605734 6.30000000000001
endloop
endfacet
facet normal 9.02069029517122e-017 -2.36264101831353e-016 -1.0
outer loop
vertex 5.4385432247425 -16.6206450605734 6.30000000000001
vertex 5.46104966643503 -9.58082371109118 6.30000000000001
vertex 5.6086940255327 -16.4152401223698 6.30000000000001
endloop
endfacet
facet normal 9.02069029517122e-017 -2.36264101831353e-016 -1.0
outer loop
vertex 5.6086940255327 -16.4152401223698 6.30000000000001
vertex 5.46104966643503 -9.58082371109118 6.30000000000001
vertex 5.76772065156153 -9.14627968212238 6.30000000000001
endloop
endfacet
facet normal 9.02069029517122e-017 -2.36264101831353e-016 -1.0
outer loop
vertex 5.6086940255327 -16.4152401223698 6.30000000000001
vertex 5.76772065156153 -9.14627968212238 6.30000000000001
vertex 5.745214209869 -16.1861010316046 6.30000000000001
endloop
endfacet
facet normal 9.02069029517122e-017 -2.36264101831353e-016 -1.0
outer loop
vertex 5.745214209869 -16.1861010316046 6.30000000000001
vertex 5.76772065156153 -9.14627968212238 6.30000000000001
vertex 5.84485241501713 -15.9386849615469 6.30000000000001
endloop
endfacet
facet normal 9.02069029517122e-017 -2.36264101831353e-016 -1.0
outer loop
vertex 5.84485241501713 -15.9386849615469 6.30000000000001
vertex 5.76772065156153 -9.14627968212238 6.30000000000001
vertex 5.90574103845503 -8.70879932981868 6.30000000000001
endloop
endfacet
facet normal 9.02069029517122e-017 -2.36264101831353e-016 -1.0
outer loop
vertex 5.84485241501713 -15.9386849615469 6.30000000000001
vertex 5.90574103845503 -8.70879932981868 6.30000000000001
vertex 5.90523565892539 -15.6788843697403 6.30000000000001
endloop
endfacet
facet normal 0.999994889574349 -0.00319700253141809 -2.11685923413724e-019
outer loop
vertex -6.07353136036 -8.64141610922004 1.40998324127395e-014
vertex -6.09603780205253 -15.6812374587022 6.30000000000001
vertex -6.09603780205253 -15.6812374587022 2.7494673204842e-014
endloop
endfacet
facet normal 0.999994889574349 -0.00319700253141809 -2.11685923413724e-019
outer loop
vertex -6.09603780205253 -15.6812374587022 6.30000000000001
vertex -6.07353136036 -8.64141610922004 1.40998324127395e-014
vertex -6.07353136036 -8.64141610922004 6.30000000000001
endloop
endfacet
facet normal -0.973043052572536 -0.230623541383617 0.0
outer loop
vertex -6.09603780205253 -15.6812374587022 6.30000000000001
vertex -6.03425271283338 -15.9419200909113 2.7494673204842e-014
vertex -6.03425271283338 -15.9419200909113 6.30000000000001
endloop
endfacet
facet normal -0.973043052572536 -0.230623541383617 0.0
outer loop
vertex -6.03425271283338 -15.9419200909113 2.7494673204842e-014
vertex -6.09603780205253 -15.6812374587022 6.30000000000001
vertex -6.09603780205253 -15.6812374587022 2.7494673204842e-014
endloop
endfacet
facet normal -0.925958648274912 -0.377624921959472 1.03624375214614e-016
outer loop
vertex -6.03425271283338 -15.9419200909113 6.30000000000001
vertex -5.93308528927089 -16.1899885983745 2.7494673204842e-014
vertex -5.93308528927089 -16.1899885983745 6.30000000000001
endloop
endfacet
facet normal -0.925958648274912 -0.377624921959472 1.03624375214614e-016
outer loop
vertex -5.93308528927089 -16.1899885983745 2.7494673204842e-014
vertex -6.03425271283338 -15.9419200909113 6.30000000000001
vertex -6.03425271283338 -15.9419200909113 2.7494673204842e-014
endloop
endfacet
facet normal -0.856812031897991 -0.515628880101606 9.54385802771768e-017
outer loop
vertex -5.93308528927089 -16.1899885983745 6.30000000000001
vertex -5.7949459815059 -16.4195324147483 2.6084689963568e-014
vertex -5.7949459815059 -16.4195324147483 6.30000000000001
endloop
endfacet
facet normal -0.856812031897991 -0.515628880101606 9.54385802771768e-017
outer loop
vertex -5.7949459815059 -16.4195324147483 2.6084689963568e-014
vertex -5.93308528927089 -16.1899885983745 6.30000000000001
vertex -5.93308528927089 -16.1899885983745 2.7494673204842e-014
endloop
endfacet
facet normal -0.767250714718788 -0.64134728561327 0.0
outer loop
vertex -5.7949459815059 -16.4195324147483 6.30000000000001
vertex -5.62312614462221 -16.6250823494079 2.6084689963568e-014
vertex -5.62312614462221 -16.6250823494079 6.30000000000001
endloop
endfacet
facet normal -0.767250714718788 -0.64134728561327 0.0
outer loop
vertex -5.62312614462221 -16.6250823494079 2.6084689963568e-014
vertex -5.7949459815059 -16.4195324147483 6.30000000000001
vertex -5.7949459815059 -16.4195324147483 2.6084689963568e-014
endloop
endfacet
facet normal -0.65940861575993 -0.751784728138031 3.25601415542519e-019
outer loop
vertex -5.42171961767822 -16.8017408982801 6.30000000000001
vertex -5.62312614462221 -16.6250823494079 2.6084689963568e-014
vertex -5.42171961767822 -16.8017408982801 2.6084689963568e-014
endloop
endfacet
facet normal -0.65940861575993 -0.751784728138031 3.25601415542519e-019
outer loop
vertex -5.62312614462221 -16.6250823494079 2.6084689963568e-014
vertex -5.42171961767822 -16.8017408982801 6.30000000000001
vertex -5.62312614462221 -16.6250823494079 6.30000000000001
endloop
endfacet
facet normal -0.535855218294444 -0.84430988684642 0.0
outer loop
vertex -5.19552518247683 -16.9452989334756 6.30000000000001
vertex -5.42171961767822 -16.8017408982801 2.6084689963568e-014
vertex -5.19552518247683 -16.9452989334756 2.6084689963568e-014
endloop
endfacet
facet normal -0.535855218294444 -0.84430988684642 0.0
outer loop
vertex -5.42171961767822 -16.8017408982801 2.6084689963568e-014
vertex -5.19552518247683 -16.9452989334756 6.30000000000001
vertex -5.42171961767822 -16.8017408982801 6.30000000000001
endloop
endfacet
facet normal -1.93028390203951e-005 -1.47429964472495e-010 -0.9999999998137
outer loop
vertex -5.59654593779448 3.58753074090669 3.62794115606637
vertex -7.09654585379093 0.915062902120552 3.62796818003964
vertex -7.09654585379093 3.58712174605422 3.62796818003964
endloop
endfacet
facet normal -1.93028390203951e-005 -1.47429964472495e-010 -0.9999999998137
outer loop
vertex -7.09654585379093 0.915062902120552 3.62796818003964
vertex -5.59654593779448 3.58753074090669 3.62794115606637
vertex -5.59654593779448 0.915471896973026 3.62794115606637
endloop
endfacet
facet normal -0.399534348445719 -0.916718225199027 0.0
outer loop
vertex -4.94993222612499 -17.0523359914305 6.30000000000001
vertex -5.19552518247683 -16.9452989334756 2.6084689963568e-014
vertex -4.94993222612499 -17.0523359914305 2.6084689963568e-014
endloop
endfacet
facet normal -0.399534348445719 -0.916718225199027 0.0
outer loop
vertex -5.19552518247683 -16.9452989334756 2.6084689963568e-014
vertex -4.94993222612499 -17.0523359914305 6.30000000000001
vertex -5.19552518247683 -16.9452989334756 6.30000000000001
endloop
endfacet
facet normal -0.253694034564991 -0.967284516999077 3.92018223217392e-019
outer loop
vertex -4.69079233162622 -17.1203017700579 6.30000000000001
vertex -4.94993222612499 -17.0523359914305 2.6084689963568e-014
vertex -4.69079233162622 -17.1203017700579 1.3747336602421e-014
endloop
endfacet
facet normal -0.253694034564991 -0.967284516999077 3.92018223217392e-019
outer loop
vertex -4.94993222612499 -17.0523359914305 2.6084689963568e-014
vertex -4.69079233162622 -17.1203017700579 6.30000000000001
vertex -4.94993222612499 -17.0523359914305 6.30000000000001
endloop
endfacet
facet normal -0.101809118579942 -0.994803952230778 4.10406760948317e-020
outer loop
vertex -4.56171660765875 -17.1335114941023 2.46747067222941e-014
vertex -4.69079233162622 -17.1203017700579 6.30000000000001
vertex -4.69079233162622 -17.1203017700579 1.3747336602421e-014
endloop
endfacet
facet normal -0.101809118579942 -0.994803952230778 4.10406760948317e-020
outer loop
vertex -4.69079233162622 -17.1203017700579 6.30000000000001
vertex -4.56171660765875 -17.1335114941023 2.46747067222941e-014
vertex -4.56171660765875 -17.1335114941023 6.30000000000001
endloop
endfacet
facet normal 0.00172104668661699 -0.999998518998055 6.86820430937163e-020
outer loop
vertex 4.51255278703429 -17.1178942296979 6.30000000000001
vertex -4.56171660765875 -17.1335114941023 2.46747067222941e-014
vertex 4.51255278703429 -17.1178942296979 1.33948407921025e-014
endloop
endfacet
facet normal 0.00172104668661699 -0.999998518998055 6.86820430937163e-020
outer loop
vertex -4.56171660765875 -17.1335114941023 2.46747067222941e-014
vertex 4.51255278703429 -17.1178942296979 6.30000000000001
vertex -4.56171660765875 -17.1335114941023 6.30000000000001
endloop
endfacet
facet normal 0.000292139183296903 -0.999999957327348 -7.99755637486155e-011
outer loop
vertex -5.59654593779448 3.58753074090669 3.62794115606637
vertex -7.09654585379093 3.58712174605422 2.70239732761254e-005
vertex -5.59654593779448 3.58753074090669 9.16489106828067e-015
endloop
endfacet
facet normal 0.000292139183296903 -0.999999957327348 -7.99755637486155e-011
outer loop
vertex -7.09654585379093 3.58712174605422 2.70239732761254e-005
vertex -5.59654593779448 3.58753074090669 3.62794115606637
vertex -7.09654585379093 3.58712174605422 3.62796818003964
endloop
endfacet
facet normal 0.258128392291556 -0.966110621560997 -2.17984758321196e-019
outer loop
vertex 4.77023910986509 -17.0490448094106 2.53796983429311e-014
vertex 4.51255278703429 -17.1178942296979 6.30000000000001
vertex 4.51255278703429 -17.1178942296979 1.33948407921025e-014
endloop
endfacet
facet normal 0.258128392291556 -0.966110621560997 -2.17984758321196e-019
outer loop
vertex 4.51255278703429 -17.1178942296979 6.30000000000001
vertex 4.77023910986509 -17.0490448094106 2.53796983429311e-014
vertex 4.77023910986509 -17.0490448094106 6.30000000000001
endloop
endfacet
facet normal 0.40370441779296 -0.914889470403091 0.0
outer loop
vertex 5.01426344637829 -16.9413665533083 6.30000000000001
vertex 4.77023910986509 -17.0490448094106 2.53796983429311e-014
vertex 5.01426344637829 -16.9413665533083 2.53796983429311e-014
endloop
endfacet
facet normal 0.40370441779296 -0.914889470403091 0.0
outer loop
vertex 4.77023910986509 -17.0490448094106 2.53796983429311e-014
vertex 5.01426344637829 -16.9413665533083 6.30000000000001
vertex 4.77023910986509 -17.0490448094106 6.30000000000001
endloop
endfacet
facet normal -0.65940861575993 -0.751784728138031 -3.1718936700046e-019
outer loop
vertex -5.3992131759857 -9.76191954879788 12.9
vertex -5.60061970292969 -9.58526099992567 6.30000000000001
vertex -5.3992131759857 -9.76191954879788 6.30000000000001
endloop
endfacet
facet normal -0.65940861575993 -0.751784728138031 -3.1718936700046e-019
outer loop
vertex -5.60061970292969 -9.58526099992567 6.30000000000001
vertex -5.3992131759857 -9.76191954879788 12.9
vertex -5.60061970292969 -9.58526099992567 12.9
endloop
endfacet
facet normal -0.767250714718783 -0.641347285613275 2.92707123252276e-032
outer loop
vertex -5.77243953981338 -9.37971106526615 12.9
vertex -5.60061970292969 -9.58526099992567 6.30000000000001
vertex -5.60061970292969 -9.58526099992567 12.9
endloop
endfacet
facet normal -0.767250714718783 -0.641347285613275 2.92707123252276e-032
outer loop
vertex -5.60061970292969 -9.58526099992567 6.30000000000001
vertex -5.77243953981338 -9.37971106526615 12.9
vertex -5.77243953981338 -9.37971106526615 6.30000000000001
endloop
endfacet
facet normal -0.856812031897993 -0.515628880101602 0.0
outer loop
vertex -5.91057884757837 -9.15016724889228 12.9
vertex -5.77243953981338 -9.37971106526615 6.30000000000001
vertex -5.77243953981338 -9.37971106526615 12.9
endloop
endfacet
facet normal -0.856812031897993 -0.515628880101602 0.0
outer loop
vertex -5.77243953981338 -9.37971106526615 6.30000000000001
vertex -5.91057884757837 -9.15016724889228 12.9
vertex -5.91057884757837 -9.15016724889228 6.30000000000001
endloop
endfacet
facet normal -0.92595864827491 -0.377624921959476 0.0
outer loop
vertex -6.01174627114086 -8.90209874142912 12.9
vertex -5.91057884757837 -9.15016724889228 6.30000000000001
vertex -5.91057884757837 -9.15016724889228 12.9
endloop
endfacet
facet normal -0.92595864827491 -0.377624921959476 0.0
outer loop
vertex -5.91057884757837 -9.15016724889228 6.30000000000001
vertex -6.01174627114086 -8.90209874142912 12.9
vertex -6.01174627114086 -8.90209874142912 6.30000000000001
endloop
endfacet
facet normal -0.973043052572536 -0.230623541383617 0.0
outer loop
vertex -6.07353136036 -8.64141610922004 12.9
vertex -6.01174627114086 -8.90209874142912 6.30000000000001
vertex -6.01174627114086 -8.90209874142912 12.9
endloop
endfacet
facet normal -0.973043052572536 -0.230623541383617 0.0
outer loop
vertex -6.01174627114086 -8.90209874142912 6.30000000000001
vertex -6.07353136036 -8.64141610922004 12.9
vertex -6.07353136036 -8.64141610922004 6.30000000000001
endloop
endfacet
facet normal -1.87984702752339e-017 9.87006528733989e-016 -1.0
outer loop
vertex -6.03651827874571 7.06491830998777 12.9
vertex -6.07353136036 -8.64141610922004 12.9
vertex -6.09768833722012 6.80319768605066 12.9
endloop
endfacet
facet normal -1.87984702752339e-017 9.87006528733989e-016 -1.0
outer loop
vertex -6.07353136036 -8.64141610922004 12.9
vertex -6.03651827874571 7.06491830998777 12.9
vertex -6.01174627114086 -8.90209874142912 12.9
endloop
endfacet
facet normal -1.87984702752339e-017 9.87006528733989e-016 -1.0
outer loop
vertex -6.01174627114086 -8.90209874142912 12.9
vertex -6.03651827874571 7.06491830998777 12.9
vertex -5.93580454720982 7.31410941201172 12.9
endloop
endfacet
facet normal -1.87984702752339e-017 9.87006528733989e-016 -1.0
outer loop
vertex -6.01174627114086 -8.90209874142912 12.9
vertex -5.93580454720982 7.31410941201172 12.9
vertex -5.91057884757837 -9.15016724889228 12.9
endloop
endfacet
facet normal -1.87984702752339e-017 9.87006528733989e-016 -1.0
outer loop
vertex -5.91057884757837 -9.15016724889228 12.9
vertex -5.93580454720982 7.31410941201172 12.9
vertex -5.79794606985764 7.544835442771 12.9
endloop
endfacet
facet normal -1.87984702752339e-017 9.87006528733989e-016 -1.0
outer loop
vertex -5.91057884757837 -9.15016724889228 12.9
vertex -5.79794606985764 7.544835442771 12.9
vertex -5.77243953981338 -9.37971106526615 12.9
endloop
endfacet
facet normal -1.87984702752339e-017 9.87006528733989e-016 -1.0
outer loop
vertex -5.77243953981338 -9.37971106526615 12.9
vertex -5.79794606985764 7.544835442771 12.9
vertex -5.62622653454641 7.75160067737365 12.9
endloop
endfacet
facet normal -1.87984702752339e-017 9.87006528733989e-016 -1.0
outer loop
vertex -5.77243953981338 -9.37971106526615 12.9
vertex -5.62622653454641 7.75160067737365 12.9
vertex -5.60061970292969 -9.58526099992567 12.9
endloop
endfacet
facet normal -1.87984702752339e-017 9.87006528733989e-016 -1.0
outer loop
vertex -5.60061970292969 -9.58526099992567 12.9
vertex -5.62622653454641 7.75160067737365 12.9
vertex -5.42473617470813 7.92948011952488 12.9
endloop
endfacet
facet normal -1.87984702752339e-017 9.87006528733989e-016 -1.0
outer loop
vertex -5.60061970292969 -9.58526099992567 12.9
vertex -5.42473617470813 7.92948011952488 12.9
vertex -5.3992131759857 -9.76191954879788 12.9
endloop
endfacet
facet normal -1.87984702752339e-017 9.87006528733989e-016 -1.0
outer loop
vertex -5.3992131759857 -9.76191954879788 12.9
vertex -5.42473617470813 7.92948011952488 12.9
vertex -5.19827434298806 8.07423681132801 12.9
endloop
endfacet
facet normal -1.87984702752339e-017 9.87006528733989e-016 -1.0
outer loop
vertex -5.3992131759857 -9.76191954879788 12.9
vertex -5.19827434298806 8.07423681132801 12.9
vertex -5.17301874078431 -9.90547758399341 12.9
endloop
endfacet
facet normal -1.87984702752339e-017 9.87006528733989e-016 -1.0
outer loop
vertex -5.17301874078431 -9.90547758399341 12.9
vertex -5.19827434298806 8.07423681132801 12.9
vertex -4.95223519418342 8.18242275451511 12.9
endloop
endfacet
facet normal -1.87984702752339e-017 9.87006528733989e-016 -1.0
outer loop
vertex -5.17301874078431 -9.90547758399341 12.9
vertex -4.95223519418342 8.18242275451511 12.9
vertex -4.92742578443247 -10.0125146419483 12.9
endloop
endfacet
facet normal -1.87984702752339e-017 9.87006528733989e-016 -1.0
outer loop
vertex -4.92742578443247 -10.0125146419483 12.9
vertex -4.95223519418342 8.18242275451511 12.9
vertex -4.69247920043095 8.25146103923784 12.9
endloop
endfacet
facet normal -1.87984702752339e-017 9.87006528733989e-016 -1.0
outer loop
vertex -4.92742578443247 -10.0125146419483 12.9
vertex -4.69247920043095 8.25146103923784 12.9
vertex -4.66828588993369 -10.0804804205757 12.9
endloop
endfacet
facet normal -1.87984702752339e-017 9.87006528733989e-016 -1.0
outer loop
vertex -4.66828588993369 -10.0804804205757 12.9
vertex -4.69247920043095 8.25146103923784 12.9
vertex -4.66421568770746 6.63010044774292 12.9
endloop
endfacet
facet normal -1.87984702752339e-017 9.87006528733989e-016 -1.0
outer loop
vertex -4.66421568770746 6.63010044774292 12.9
vertex -4.69247920043095 8.25146103923784 12.9
vertex -4.64675305095925 6.67330740303264 12.9
endloop
endfacet
facet normal -1.87984702752339e-017 9.87006528733989e-016 -1.0
outer loop
vertex -4.64675305095925 6.67330740303264 12.9
vertex -4.69247920043095 8.25146103923784 12.9
vertex -4.62284992994535 6.71331272109666 12.9
endloop
endfacet
facet normal -1.87984702752339e-017 9.87006528733989e-016 -1.0
outer loop
vertex -4.62284992994535 6.71331272109666 12.9
vertex -4.69247920043095 8.25146103923784 12.9
vertex -4.59307567948334 6.74916350458928 12.9
endloop
endfacet
facet normal -1.87984702752339e-017 9.87006528733989e-016 -1.0
outer loop
vertex -4.59307567948334 6.74916350458928 12.9
vertex -4.69247920043095 8.25146103923784 12.9
vertex -4.55813950038972 6.78000581413231 12.9
endloop
endfacet
facet normal -1.87984702752339e-017 9.87006528733989e-016 -1.0
outer loop
vertex -4.55813950038972 6.78000581413231 12.9
vertex -4.69247920043095 8.25146103923784 12.9
vertex -4.50518828963681 6.8161621812405 12.9
endloop
endfacet
facet normal -1.87984702752339e-017 9.87006528733989e-016 -1.0
outer loop
vertex -4.50518828963681 6.8161621812405 12.9
vertex -4.69247920043095 8.25146103923784 12.9
vertex -4.47621310504871 6.82386324335879 12.9
endloop
endfacet
facet normal -1.87984702752339e-017 9.87006528733989e-016 -1.0
outer loop
vertex -4.47621310504871 6.82386324335879 12.9
vertex -4.69247920043095 8.25146103923784 12.9
vertex 4.51423063523162 8.24903366055408 12.9
endloop
endfacet
facet normal -1.87984702752339e-017 9.87006528733989e-016 -1.0
outer loop
vertex -4.47621310504871 6.82386324335879 12.9
vertex 4.51423063523162 8.24903366055408 12.9
vertex 4.29027209599067 6.82274901436618 12.9
endloop
endfacet
facet normal -1.87984702752339e-017 9.87006528733989e-016 -1.0
outer loop
vertex 4.29027209599067 6.82274901436618 12.9
vertex 4.51423063523162 8.24903366055408 12.9
vertex 4.33182351658462 6.80425128674331 12.9
endloop
endfacet
facet normal -1.87984702752339e-017 9.87006528733989e-016 -1.0
outer loop
vertex 4.33182351658462 6.80425128674331 12.9
vertex 4.51423063523162 8.24903366055408 12.9
vertex 4.37003476086696 6.77958172470864 12.9
endloop
endfacet
facet normal -1.87984702752339e-017 9.87006528733989e-016 -1.0
outer loop
vertex 4.37003476086696 6.77958172470864 12.9
vertex 4.51423063523162 8.24903366055408 12.9
vertex 4.40399615039216 6.749327625778 12.9
endloop
endfacet
facet normal -1.87984702752339e-017 9.87006528733989e-016 -1.0
outer loop
vertex 4.40399615039216 6.749327625778 12.9
vertex 4.51423063523162 8.24903366055408 12.9
vertex 4.43289918115542 6.71420923610412 12.9
endloop
endfacet
facet normal -1.87984702752339e-017 9.87006528733989e-016 -1.0
outer loop
vertex 4.43289918115542 6.71420923610412 12.9
vertex 4.51423063523162 8.24903366055408 12.9
vertex 4.45605577129524 6.67506260389031 12.9
endloop
endfacet
facet normal -1.87984702752339e-017 9.87006528733989e-016 -1.0
outer loop
vertex 4.45605577129524 6.67506260389031 12.9
vertex 4.51423063523162 8.24903366055408 12.9
vertex 4.47183566766886 6.63752791620495 12.9
endloop
endfacet
facet normal -1.87984702752339e-017 9.87006528733989e-016 -1.0
outer loop
vertex 4.47183566766886 6.63752791620495 12.9
vertex 4.51423063523162 8.24903366055408 12.9
vertex 4.49219377910374 -8.41897708119265 12.9
endloop
endfacet
facet normal -1.87984702752339e-017 9.87006528733989e-016 -1.0
outer loop
vertex -4.66828588993369 -10.0804804205757 12.9
vertex -4.63854430563205 -8.4725467739676 12.9
vertex -4.53921016596623 -10.0936901446201 12.9
endloop
endfacet
facet normal -1.87984702752339e-017 9.87006528733989e-016 -1.0
outer loop
vertex -4.63854430563205 -8.4725467739676 12.9
vertex -4.66828588993369 -10.0804804205757 12.9
vertex -4.66421568770746 6.63010044774292 12.9
endloop
endfacet
facet normal -1.87984702752339e-017 9.87006528733989e-016 -1.0
outer loop
vertex -4.53921016596623 -10.0936901446201 12.9
vertex -4.63854430563205 -8.4725467739676 12.9
vertex -4.62355226234786 -8.50530506701067 12.9
endloop
endfacet
facet normal -1.87984702752339e-017 9.87006528733989e-016 -1.0
outer loop
vertex -4.53921016596623 -10.0936901446201 12.9
vertex -4.62355226234786 -8.50530506701067 12.9
vertex -4.59998816722542 -8.54446113642578 12.9
endloop
endfacet
facet normal -1.87984702752339e-017 9.87006528733989e-016 -1.0
outer loop
vertex -4.53921016596623 -10.0936901446201 12.9
vertex -4.59998816722542 -8.54446113642578 12.9
vertex -4.57067877625078 -8.57952427877893 12.9
endloop
endfacet
facet normal -1.87984702752339e-017 9.87006528733989e-016 -1.0
outer loop
vertex -4.53921016596623 -10.0936901446201 12.9
vertex -4.57067877625078 -8.57952427877893 12.9
vertex -4.53632242514424 -8.60965906747281 12.9
endloop
endfacet
facet normal -1.87984702752339e-017 9.87006528733989e-016 -1.0
outer loop
vertex -4.53921016596623 -10.0936901446201 12.9
vertex -4.53632242514424 -8.60965906747281 12.9
vertex -4.49773770024964 -8.63414750057461 12.9
endloop
endfacet
facet normal -1.87984702752339e-017 9.87006528733989e-016 -1.0
outer loop
vertex -4.53921016596623 -10.0936901446201 12.9
vertex -4.49773770024964 -8.63414750057461 12.9
vertex -4.45584393461184 -8.65240610817937 12.9
endloop
endfacet
facet normal -1.87984702752339e-017 9.87006528733989e-016 -1.0
outer loop
vertex -4.53921016596623 -10.0936901446201 12.9
vertex -4.45584393461184 -8.65240610817937 12.9
vertex -4.41163930362881 -8.6639998543662 12.9
endloop
endfacet
facet normal -1.87984702752339e-017 9.87006528733989e-016 -1.0
outer loop
vertex -4.53921016596623 -10.0936901446201 12.9
vertex -4.41163930362881 -8.6639998543662 12.9
vertex 4.53505922872682 -10.0780728802157 12.9
endloop
endfacet
facet normal -1.87984702752339e-017 9.87006528733989e-016 -1.0
outer loop
vertex 4.53505922872682 -10.0780728802157 12.9
vertex -4.41163930362881 -8.6639998543662 12.9
vertex 4.28872848421951 -8.64324527368325 12.9
endloop
endfacet
facet normal -1.87984702752339e-017 9.87006528733989e-016 -1.0
outer loop
vertex 4.53505922872682 -10.0780728802157 12.9
vertex 4.28872848421951 -8.64324527368325 12.9
vertex 4.34957656424928 -8.62183578201635 12.9
endloop
endfacet
facet normal -1.87984702752339e-017 9.87006528733989e-016 -1.0
outer loop
vertex 4.53505922872682 -10.0780728802157 12.9
vertex 4.34957656424928 -8.62183578201635 12.9
vertex 4.4172803522676 -8.57065714691674 12.9
endloop
endfacet
facet normal -1.87984702752339e-017 9.87006528733989e-016 -1.0
outer loop
vertex 4.53505922872682 -10.0780728802157 12.9
vertex 4.4172803522676 -8.57065714691674 12.9
vertex 4.46621689939324 -8.50131545701731 12.9
endloop
endfacet
facet normal -1.87984702752339e-017 9.87006528733989e-016 -1.0
outer loop
vertex 4.53505922872682 -10.0780728802157 12.9
vertex 4.46621689939324 -8.50131545701731 12.9
vertex 4.49219377910374 -8.41897708119265 12.9
endloop
endfacet
facet normal -1.87984702752339e-017 9.87006528733989e-016 -1.0
outer loop
vertex 4.53505922872682 -10.0780728802157 12.9
vertex 4.49219377910374 -8.41897708119265 12.9
vertex 4.51423063523162 8.24903366055408 12.9
endloop
endfacet
facet normal -1.87984702752339e-017 9.87006528733989e-016 -1.0
outer loop
vertex 4.53505922872682 -10.0780728802157 12.9
vertex 4.51423063523162 8.24903366055408 12.9
vertex 4.7725271781894 8.17910604339886 12.9
endloop
endfacet
facet normal -1.87984702752339e-017 9.87006528733989e-016 -1.0
outer loop
vertex 4.53505922872682 -10.0780728802157 12.9
vertex 4.7725271781894 8.17910604339886 12.9
vertex 5.03676988807082 -9.90154520382609 12.9
endloop
endfacet
facet normal -1.87984702752339e-017 9.87006528733989e-016 -1.0
outer loop
vertex 5.03676988807082 -9.90154520382609 12.9
vertex 4.7725271781894 8.17910604339886 12.9
vertex 5.0169919047607 8.07027602360948 12.9
endloop
endfacet
facet normal -1.87984702752339e-017 9.87006528733989e-016 -1.0
outer loop
vertex 5.03676988807082 -9.90154520382609 12.9
vertex 5.0169919047607 8.07027602360948 12.9
vertex 5.24180494970357 7.92513447005415 12.9
endloop
endfacet
facet normal -1.87984702752339e-017 9.87006528733989e-016 -1.0
outer loop
vertex 5.03676988807082 -9.90154520382609 12.9
vertex 5.24180494970357 7.92513447005415 12.9
vertex 5.46104966643503 -9.58082371109118 12.9
endloop
endfacet
facet normal -1.87984702752339e-017 9.87006528733989e-016 -1.0
outer loop
vertex 5.46104966643503 -9.58082371109118 12.9
vertex 5.24180494970357 7.92513447005415 12.9
vertex 5.44161428679913 7.74713670446599 12.9
endloop
endfacet
facet normal -1.87984702752339e-017 9.87006528733989e-016 -1.0
outer loop
vertex 5.46104966643503 -9.58082371109118 12.9
vertex 5.44161428679913 7.74713670446599 12.9
vertex 5.61166314220809 7.54052024210385 12.9
endloop
endfacet
facet normal -1.87984702752339e-017 9.87006528733989e-016 -1.0
outer loop
vertex 5.46104966643503 -9.58082371109118 12.9
vertex 5.61166314220809 7.54052024210385 12.9
vertex 5.76772065156153 -9.14627968212238 12.9
endloop
endfacet
facet normal -1.87984702752339e-017 9.87006528733989e-016 -1.0
outer loop
vertex 5.76772065156153 -9.14627968212238 12.9
vertex 5.61166314220809 7.54052024210385 12.9
vertex 5.74790323691321 7.31020391107264 12.9
endloop
endfacet
facet normal -1.87984702752339e-017 9.87006528733989e-016 -1.0
outer loop
vertex 5.76772065156153 -9.14627968212238 12.9
vertex 5.74790323691321 7.31020391107264 12.9
vertex 5.84709116233423 7.06167075192558 12.9
endloop
endfacet
facet normal -1.87984702752339e-017 9.87006528733989e-016 -1.0
outer loop
vertex 5.76772065156153 -9.14627968212238 12.9
vertex 5.84709116233423 7.06167075192558 12.9
vertex 5.90574103845503 -8.70879932981868 12.9
endloop
endfacet
facet normal -1.87984702752339e-017 9.87006528733989e-016 -1.0
outer loop
vertex 5.90574103845503 -8.70879932981868 12.9
vertex 5.84709116233423 7.06167075192558 12.9
vertex 5.90686559474287 6.80083748530652 12.9
endloop
endfacet
facet normal -1.87984702752339e-017 9.87006528733989e-016 -1.0
outer loop
vertex 5.90574103845503 -8.70879932981868 12.9
vertex 5.90686559474287 6.80083748530652 12.9
vertex 5.92774210061793 -8.63906302025807 12.9
endloop
endfacet
endsolid Monopoly Modern Hotel Beta
