# Blender v2.79 (sub 0) OBJ File: 'city_remodeled.blend'
# www.blender.org
mtllib board_21.mtl
o Cube.026_Cube.027
v 0.260932 0.126009 -3.743223
v 0.260932 0.216229 -3.743223
v 0.263599 0.126009 -3.864645
v 0.263599 0.216229 -3.864645
v 0.263942 0.126009 -3.743157
v 0.263942 0.216229 -3.743157
v 0.266608 0.126009 -3.864578
v 0.266608 0.216229 -3.864578
vt 0.988964 0.018848
vt 0.987598 0.018848
vt 0.987598 0.017482
vt 0.988964 0.017482
vt 0.987598 0.020214
vt 0.986232 0.020214
vt 0.986232 0.018848
vt 0.987598 0.018848
vt 0.993790 0.008434
vt 0.988962 1.001603
vt -0.004207 0.996774
vt 0.000622 0.003605
vt 0.987598 0.020214
vt 0.987598 0.018848
vt 0.988964 0.018848
vt 0.988964 0.020214
vt 0.990331 0.018848
vt 0.988964 0.018848
vt 0.988964 0.017482
vt 0.990331 0.017482
vt 0.987598 0.020214
vt 0.987598 0.021581
vt 0.986232 0.021581
vt 0.986232 0.020214
vn -0.9998 0.0000 -0.0220
vn 0.0219 0.0000 -0.9998
vn 0.9998 0.0000 0.0220
vn -0.0219 0.0000 0.9998
vn 0.0000 -1.0000 0.0000
vn 0.0000 1.0000 0.0000
usemtl Material.004
s off
f 1/1/1 2/2/1 4/3/1 3/4/1
f 3/5/2 4/6/2 8/7/2 7/8/2
f 7/9/3 8/10/3 6/11/3 5/12/3
f 5/13/4 6/14/4 2/15/4 1/16/4
f 3/17/5 7/18/5 5/19/5 1/20/5
f 8/21/6 4/22/6 2/23/6 6/24/6
o Cylinder.026
v 0.263156 0.044537 -3.807579
v 0.263156 0.184844 -3.807579
v 0.263482 0.044537 -3.807535
v 0.263482 0.184844 -3.807535
v 0.263794 0.044537 -3.807421
v 0.263794 0.184844 -3.807421
v 0.264080 0.044537 -3.807240
v 0.264080 0.184844 -3.807240
v 0.264329 0.044537 -3.806999
v 0.264329 0.184844 -3.806999
v 0.264531 0.044537 -3.806708
v 0.264531 0.184844 -3.806708
v 0.264678 0.044537 -3.806378
v 0.264678 0.184844 -3.806378
v 0.264766 0.044537 -3.806021
v 0.264766 0.184844 -3.806021
v 0.264790 0.044537 -3.805652
v 0.264790 0.184844 -3.805652
v 0.264750 0.044537 -3.805284
v 0.264750 0.184844 -3.805284
v 0.264647 0.044537 -3.804931
v 0.264647 0.184844 -3.804931
v 0.264485 0.044537 -3.804608
v 0.264485 0.184844 -3.804608
v 0.264270 0.044537 -3.804326
v 0.264270 0.184844 -3.804326
v 0.264011 0.044537 -3.804096
v 0.264011 0.184844 -3.804096
v 0.263718 0.044537 -3.803928
v 0.263718 0.184844 -3.803928
v 0.263401 0.044537 -3.803828
v 0.263401 0.184844 -3.803828
v 0.263073 0.044537 -3.803798
v 0.263073 0.184844 -3.803798
v 0.262747 0.044537 -3.803842
v 0.262747 0.184844 -3.803842
v 0.262435 0.044537 -3.803956
v 0.262435 0.184844 -3.803956
v 0.262150 0.044537 -3.804137
v 0.262150 0.184844 -3.804137
v 0.261901 0.044537 -3.804378
v 0.261901 0.184844 -3.804378
v 0.261699 0.044537 -3.804669
v 0.261699 0.184844 -3.804669
v 0.261551 0.044537 -3.804999
v 0.261551 0.184844 -3.804999
v 0.261464 0.044537 -3.805356
v 0.261464 0.184844 -3.805356
v 0.261440 0.044537 -3.805725
v 0.261440 0.184844 -3.805725
v 0.261480 0.044537 -3.806093
v 0.261480 0.184844 -3.806093
v 0.261583 0.044537 -3.806446
v 0.261583 0.184844 -3.806446
v 0.261745 0.044537 -3.806769
v 0.261745 0.184844 -3.806769
v 0.261960 0.044537 -3.807051
v 0.261960 0.184844 -3.807051
v 0.262219 0.044537 -3.807281
v 0.262219 0.184844 -3.807281
v 0.262512 0.044537 -3.807449
v 0.262512 0.184844 -3.807449
v 0.262829 0.044537 -3.807550
v 0.262829 0.184844 -3.807550
vn 0.1318 0.0000 -0.9913
vn 0.3440 0.0000 -0.9390
vn 0.5359 0.0000 -0.8443
vn 0.6951 0.0000 -0.7189
vn 0.8214 0.0000 -0.5704
vn 0.9130 0.0000 -0.4079
vn 0.9711 0.0000 -0.2385
vn 0.9979 0.0000 -0.0651
vn 0.9941 0.0000 0.1089
vn 0.9598 0.0000 0.2807
vn 0.8940 0.0000 0.4480
vn 0.7959 0.0000 0.6055
vn 0.6630 0.0000 0.7486
vn 0.4973 0.0000 0.8676
vn 0.3030 0.0000 0.9530
vn 0.0891 0.0000 0.9960
vn -0.1330 0.0000 0.9911
vn -0.3440 0.0000 0.9390
vn -0.5359 0.0000 0.8443
vn -0.6951 0.0000 0.7189
vn -0.8214 0.0000 0.5704
vn -0.9128 0.0000 0.4083
vn -0.9712 0.0000 0.2382
vn -0.9979 0.0000 0.0652
vn -0.9941 0.0000 -0.1087
vn -0.9598 0.0000 -0.2807
vn -0.8940 0.0000 -0.4480
vn -0.7954 0.0000 -0.6061
vn -0.6637 0.0000 -0.7480
vn -0.4973 0.0000 -0.8676
vn 0.0000 1.0000 -0.0000
vn -0.3030 0.0000 -0.9530
vn -0.0878 0.0000 -0.9961
vn 0.0000 -1.0000 -0.0000
usemtl None
s off
f 9//7 10//7 12//7 11//7
f 11//8 12//8 14//8 13//8
f 13//9 14//9 16//9 15//9
f 15//10 16//10 18//10 17//10
f 17//11 18//11 20//11 19//11
f 19//12 20//12 22//12 21//12
f 21//13 22//13 24//13 23//13
f 23//14 24//14 26//14 25//14
f 25//15 26//15 28//15 27//15
f 27//16 28//16 30//16 29//16
f 29//17 30//17 32//17 31//17
f 31//18 32//18 34//18 33//18
f 33//19 34//19 36//19 35//19
f 35//20 36//20 38//20 37//20
f 37//21 38//21 40//21 39//21
f 39//22 40//22 42//22 41//22
f 41//23 42//23 44//23 43//23
f 43//24 44//24 46//24 45//24
f 45//25 46//25 48//25 47//25
f 47//26 48//26 50//26 49//26
f 49//27 50//27 52//27 51//27
f 51//28 52//28 54//28 53//28
f 53//29 54//29 56//29 55//29
f 55//30 56//30 58//30 57//30
f 57//31 58//31 60//31 59//31
f 59//32 60//32 62//32 61//32
f 61//33 62//33 64//33 63//33
f 63//34 64//34 66//34 65//34
f 65//35 66//35 68//35 67//35
f 67//36 68//36 70//36 69//36
f 12//37 10//37 72//37 70//37 68//37 66//37 64//37 62//37 60//37 58//37 56//37 54//37 52//37 50//37 48//37 46//37 44//37 42//37 40//37 38//37 36//37 34//37 32//37 30//37 28//37 26//37 24//37 22//37 20//37 18//37 16//37 14//37
f 69//38 70//38 72//38 71//38
f 71//39 72//39 10//39 9//39
f 9//40 11//40 13//40 15//40 17//40 19//40 21//40 23//40 25//40 27//40 29//40 31//40 33//40 35//40 37//40 39//40 41//40 43//40 45//40 47//40 49//40 51//40 53//40 55//40 57//40 59//40 61//40 63//40 65//40 67//40 69//40 71//40
