# Blender v2.79 (sub 0) OBJ File: 'city_remodeled.blend'
# www.blender.org
mtllib board_28.mtl
o Cube.032_Cube.033
v -2.856664 0.126009 -4.748104
v -2.856664 0.216229 -4.748104
v -2.860977 0.126009 -4.869478
v -2.860977 0.216229 -4.869478
v -2.853656 0.126009 -4.748210
v -2.853656 0.216229 -4.748210
v -2.857969 0.126009 -4.869585
v -2.857969 0.216229 -4.869585
vt 0.988964 0.018848
vt 0.987598 0.018848
vt 0.987598 0.017482
vt 0.988964 0.017482
vt 0.987598 0.020214
vt 0.986232 0.020214
vt 0.986232 0.018848
vt 0.987598 0.018848
vt 0.993790 0.008434
vt 0.988962 1.001603
vt -0.004207 0.996774
vt 0.000622 0.003605
vt 0.987598 0.020214
vt 0.987598 0.018848
vt 0.988964 0.018848
vt 0.988964 0.020214
vt 0.990331 0.018848
vt 0.988964 0.018848
vt 0.988964 0.017482
vt 0.990331 0.017482
vt 0.987598 0.020214
vt 0.987598 0.021581
vt 0.986232 0.021581
vt 0.986232 0.020214
vn -0.9994 0.0000 0.0355
vn -0.0354 0.0000 -0.9994
vn 0.9994 0.0000 -0.0355
vn 0.0354 0.0000 0.9994
vn 0.0000 -1.0000 0.0000
vn 0.0000 1.0000 0.0000
usemtl Material.004
s off
f 1/1/1 2/2/1 4/3/1 3/4/1
f 3/5/2 4/6/2 8/7/2 7/8/2
f 7/9/3 8/10/3 6/11/3 5/12/3
f 5/13/4 6/14/4 2/15/4 1/16/4
f 3/17/5 7/18/5 5/19/5 1/20/5
f 8/21/6 4/22/6 2/23/6 6/24/6
o Cylinder.032
v -2.857800 0.054719 -4.811886
v -2.857800 0.195027 -4.811886
v -2.857472 0.054719 -4.811861
v -2.857472 0.195027 -4.811861
v -2.857154 0.054719 -4.811765
v -2.857154 0.195027 -4.811765
v -2.856858 0.054719 -4.811600
v -2.856858 0.195027 -4.811600
v -2.856596 0.054719 -4.811374
v -2.856596 0.195027 -4.811374
v -2.856378 0.054719 -4.811095
v -2.856378 0.195027 -4.811095
v -2.856211 0.054719 -4.810774
v -2.856211 0.195027 -4.810774
v -2.856103 0.054719 -4.810423
v -2.856103 0.195027 -4.810423
v -2.856058 0.054719 -4.810056
v -2.856058 0.195027 -4.810056
v -2.856077 0.054719 -4.809686
v -2.856077 0.195027 -4.809686
v -2.856160 0.054719 -4.809328
v -2.856160 0.195027 -4.809328
v -2.856303 0.054719 -4.808996
v -2.856303 0.195027 -4.808996
v -2.856501 0.054719 -4.808702
v -2.856501 0.195027 -4.808702
v -2.856747 0.054719 -4.808458
v -2.856747 0.195027 -4.808458
v -2.857030 0.054719 -4.808273
v -2.857030 0.195027 -4.808273
v -2.857340 0.054719 -4.808155
v -2.857340 0.195027 -4.808155
v -2.857666 0.054719 -4.808106
v -2.857666 0.195027 -4.808106
v -2.857994 0.054719 -4.808131
v -2.857994 0.195027 -4.808131
v -2.858312 0.054719 -4.808228
v -2.858312 0.195027 -4.808228
v -2.858607 0.054719 -4.808392
v -2.858607 0.195027 -4.808392
v -2.858869 0.054719 -4.808618
v -2.858869 0.195027 -4.808618
v -2.859088 0.054719 -4.808897
v -2.859088 0.195027 -4.808897
v -2.859254 0.054719 -4.809218
v -2.859254 0.195027 -4.809218
v -2.859362 0.054719 -4.809569
v -2.859362 0.195027 -4.809569
v -2.859407 0.054719 -4.809937
v -2.859407 0.195027 -4.809937
v -2.859388 0.054719 -4.810307
v -2.859388 0.195027 -4.810307
v -2.859306 0.054719 -4.810664
v -2.859306 0.195027 -4.810664
v -2.859162 0.054719 -4.810997
v -2.859162 0.195027 -4.810997
v -2.858964 0.054719 -4.811290
v -2.858964 0.195027 -4.811290
v -2.858719 0.054719 -4.811534
v -2.858719 0.195027 -4.811534
v -2.858436 0.054719 -4.811719
v -2.858436 0.195027 -4.811719
v -2.858125 0.054719 -4.811838
v -2.858125 0.195027 -4.811838
vn 0.0749 0.0000 -0.9972
vn 0.2902 0.0000 -0.9570
vn 0.4860 0.0000 -0.8740
vn 0.6531 0.0000 -0.7572
vn 0.7872 0.0000 -0.6167
vn 0.8879 0.0000 -0.4600
vn 0.9559 0.0000 -0.2938
vn 0.9925 0.0000 -0.1223
vn 0.9987 0.0000 0.0515
vn 0.9742 0.0000 0.2256
vn 0.9184 0.0000 0.3956
vn 0.8292 0.0000 0.5590
vn 0.7046 0.0000 0.7096
vn 0.5464 0.0000 0.8375
vn 0.3578 0.0000 0.9338
vn 0.1460 0.0000 0.9893
vn -0.0749 0.0000 0.9972
vn -0.2902 0.0000 0.9570
vn -0.4860 0.0000 0.8740
vn -0.6531 0.0000 0.7572
vn -0.7872 0.0000 0.6167
vn -0.8879 0.0000 0.4600
vn -0.9560 0.0000 0.2935
vn -0.9925 0.0000 0.1225
vn -0.9987 0.0000 -0.0515
vn -0.9743 0.0000 -0.2253
vn -0.9182 0.0000 -0.3961
vn -0.8292 0.0000 -0.5590
vn -0.7046 0.0000 -0.7096
vn -0.5473 0.0000 -0.8369
vn 0.0000 1.0000 -0.0000
vn -0.3567 0.0000 -0.9342
vn -0.1460 0.0000 -0.9893
vn 0.0000 -1.0000 -0.0000
usemtl None
s off
f 9//7 10//7 12//7 11//7
f 11//8 12//8 14//8 13//8
f 13//9 14//9 16//9 15//9
f 15//10 16//10 18//10 17//10
f 17//11 18//11 20//11 19//11
f 19//12 20//12 22//12 21//12
f 21//13 22//13 24//13 23//13
f 23//14 24//14 26//14 25//14
f 25//15 26//15 28//15 27//15
f 27//16 28//16 30//16 29//16
f 29//17 30//17 32//17 31//17
f 31//18 32//18 34//18 33//18
f 33//19 34//19 36//19 35//19
f 35//20 36//20 38//20 37//20
f 37//21 38//21 40//21 39//21
f 39//22 40//22 42//22 41//22
f 41//23 42//23 44//23 43//23
f 43//24 44//24 46//24 45//24
f 45//25 46//25 48//25 47//25
f 47//26 48//26 50//26 49//26
f 49//27 50//27 52//27 51//27
f 51//28 52//28 54//28 53//28
f 53//29 54//29 56//29 55//29
f 55//30 56//30 58//30 57//30
f 57//31 58//31 60//31 59//31
f 59//32 60//32 62//32 61//32
f 61//33 62//33 64//33 63//33
f 63//34 64//34 66//34 65//34
f 65//35 66//35 68//35 67//35
f 67//36 68//36 70//36 69//36
f 12//37 10//37 72//37 70//37 68//37 66//37 64//37 62//37 60//37 58//37 56//37 54//37 52//37 50//37 48//37 46//37 44//37 42//37 40//37 38//37 36//37 34//37 32//37 30//37 28//37 26//37 24//37 22//37 20//37 18//37 16//37 14//37
f 69//38 70//38 72//38 71//38
f 71//39 72//39 10//39 9//39
f 9//40 11//40 13//40 15//40 17//40 19//40 21//40 23//40 25//40 27//40 29//40 31//40 33//40 35//40 37//40 39//40 41//40 43//40 45//40 47//40 49//40 51//40 53//40 55//40 57//40 59//40 61//40 63//40 65//40 67//40 69//40 71//40
