# Blender v2.79 (sub 0) OBJ File: 'city_remodeled.blend'
# www.blender.org
mtllib board_29.mtl
o Cube.011_Cube.012
v -4.368841 0.187212 -4.712558
v -4.368841 0.331188 -4.712558
v -4.175044 0.187212 -4.715068
v -4.175044 0.331188 -4.715068
v -4.368779 0.187212 -4.707755
v -4.368779 0.331188 -4.707755
v -4.174982 0.187212 -4.710265
v -4.174982 0.331188 -4.710265
vt 0.988964 0.018848
vt 0.987598 0.018848
vt 0.987598 0.017482
vt 0.988964 0.017482
vt 0.987598 0.020214
vt 0.986232 0.020214
vt 0.986232 0.018848
vt 0.987598 0.018848
vt 0.993790 0.008434
vt 0.988962 1.001603
vt -0.004207 0.996774
vt 0.000622 0.003605
vt 0.987598 0.020214
vt 0.987598 0.018848
vt 0.988964 0.018848
vt 0.988964 0.020214
vt 0.990331 0.018848
vt 0.988964 0.018848
vt 0.988964 0.017482
vt 0.990331 0.017482
vt 0.987598 0.020214
vt 0.987598 0.021581
vt 0.986232 0.021581
vt 0.986232 0.020214
vn -0.0129 0.0000 -0.9999
vn 0.9999 0.0000 -0.0129
vn 0.0129 0.0000 0.9999
vn -0.9999 0.0000 0.0129
vn 0.0000 -1.0000 0.0000
vn 0.0000 1.0000 -0.0000
usemtl Material.004
s off
f 1/1/1 2/2/1 4/3/1 3/4/1
f 3/5/2 4/6/2 8/7/2 7/8/2
f 7/9/3 8/10/3 6/11/3 5/12/3
f 5/13/4 6/14/4 2/15/4 1/16/4
f 3/17/5 7/18/5 5/19/5 1/20/5
f 8/21/6 4/22/6 2/23/6 6/24/6
o Cylinder.011
v -4.266079 0.057197 -4.712595
v -4.266079 0.281102 -4.712595
v -4.266130 0.057197 -4.712073
v -4.266130 0.281102 -4.712073
v -4.266296 0.057197 -4.711569
v -4.266296 0.281102 -4.711569
v -4.266569 0.057197 -4.711103
v -4.266569 0.281102 -4.711103
v -4.266939 0.057197 -4.710693
v -4.266939 0.281102 -4.710693
v -4.267391 0.057197 -4.710355
v -4.267391 0.281102 -4.710355
v -4.267910 0.057197 -4.710101
v -4.267910 0.281102 -4.710101
v -4.268474 0.057197 -4.709941
v -4.268474 0.281102 -4.709941
v -4.269062 0.057197 -4.709883
v -4.269062 0.281102 -4.709883
v -4.269651 0.057197 -4.709926
v -4.269651 0.281102 -4.709926
v -4.270219 0.057197 -4.710071
v -4.270219 0.281102 -4.710071
v -4.270744 0.057197 -4.710311
v -4.270744 0.281102 -4.710311
v -4.271205 0.057197 -4.710638
v -4.271205 0.281102 -4.710638
v -4.271585 0.057197 -4.711039
v -4.271585 0.281102 -4.711039
v -4.271871 0.057197 -4.711497
v -4.271871 0.281102 -4.711497
v -4.272048 0.057197 -4.711997
v -4.272048 0.281102 -4.711997
v -4.272113 0.057197 -4.712517
v -4.272113 0.281102 -4.712517
v -4.272062 0.057197 -4.713040
v -4.272062 0.281102 -4.713040
v -4.271897 0.057197 -4.713543
v -4.271897 0.281102 -4.713543
v -4.271624 0.057197 -4.714009
v -4.271624 0.281102 -4.714009
v -4.271254 0.057197 -4.714419
v -4.271254 0.281102 -4.714419
v -4.270802 0.057197 -4.714758
v -4.270802 0.281102 -4.714758
v -4.270283 0.057197 -4.715012
v -4.270283 0.281102 -4.715012
v -4.269719 0.057197 -4.715171
v -4.269719 0.281102 -4.715171
v -4.269131 0.057197 -4.715230
v -4.269131 0.281102 -4.715230
v -4.268542 0.057197 -4.715187
v -4.268542 0.281102 -4.715187
v -4.267974 0.057197 -4.715042
v -4.267974 0.281102 -4.715042
v -4.267449 0.057197 -4.714801
v -4.267449 0.281102 -4.714801
v -4.266987 0.057197 -4.714475
v -4.266987 0.281102 -4.714475
v -4.266607 0.057197 -4.714074
v -4.266607 0.281102 -4.714074
v -4.266322 0.057197 -4.713616
v -4.266322 0.281102 -4.713616
v -4.266144 0.057197 -4.713116
v -4.266144 0.281102 -4.713116
vn 0.9953 0.0000 0.0972
vn 0.9500 0.0000 0.3121
vn 0.8630 0.0000 0.5053
vn 0.7423 0.0000 0.6700
vn 0.5991 0.0000 0.8007
vn 0.4397 0.0000 0.8982
vn 0.2727 0.0000 0.9621
vn 0.0991 0.0000 0.9951
vn -0.0739 0.0000 0.9973
vn -0.2471 0.0000 0.9690
vn -0.4159 0.0000 0.9094
vn -0.5780 0.0000 0.8161
vn -0.7253 0.0000 0.6885
vn -0.8491 0.0000 0.5282
vn -0.9420 0.0000 0.3355
vn -0.9923 0.0000 0.1235
vn -0.9953 0.0000 -0.0972
vn -0.9500 0.0000 -0.3121
vn -0.8630 0.0000 -0.5053
vn -0.7423 0.0000 -0.6700
vn -0.5991 0.0000 -0.8007
vn -0.4389 0.0000 -0.8985
vn -0.2735 0.0000 -0.9619
vn -0.0991 0.0000 -0.9951
vn 0.0739 0.0000 -0.9973
vn 0.2471 0.0000 -0.9690
vn 0.4159 0.0000 -0.9094
vn 0.5780 0.0000 -0.8161
vn 0.7253 0.0000 -0.6885
vn 0.8491 0.0000 -0.5282
vn 0.0000 1.0000 0.0000
vn 0.9422 0.0000 -0.3352
vn 0.9923 0.0000 -0.1236
vn 0.0000 -1.0000 0.0000
usemtl None
s off
f 9//7 10//7 12//7 11//7
f 11//8 12//8 14//8 13//8
f 13//9 14//9 16//9 15//9
f 15//10 16//10 18//10 17//10
f 17//11 18//11 20//11 19//11
f 19//12 20//12 22//12 21//12
f 21//13 22//13 24//13 23//13
f 23//14 24//14 26//14 25//14
f 25//15 26//15 28//15 27//15
f 27//16 28//16 30//16 29//16
f 29//17 30//17 32//17 31//17
f 31//18 32//18 34//18 33//18
f 33//19 34//19 36//19 35//19
f 35//20 36//20 38//20 37//20
f 37//21 38//21 40//21 39//21
f 39//22 40//22 42//22 41//22
f 41//23 42//23 44//23 43//23
f 43//24 44//24 46//24 45//24
f 45//25 46//25 48//25 47//25
f 47//26 48//26 50//26 49//26
f 49//27 50//27 52//27 51//27
f 51//28 52//28 54//28 53//28
f 53//29 54//29 56//29 55//29
f 55//30 56//30 58//30 57//30
f 57//31 58//31 60//31 59//31
f 59//32 60//32 62//32 61//32
f 61//33 62//33 64//33 63//33
f 63//34 64//34 66//34 65//34
f 65//35 66//35 68//35 67//35
f 67//36 68//36 70//36 69//36
f 12//37 10//37 72//37 70//37 68//37 66//37 64//37 62//37 60//37 58//37 56//37 54//37 52//37 50//37 48//37 46//37 44//37 42//37 40//37 38//37 36//37 34//37 32//37 30//37 28//37 26//37 24//37 22//37 20//37 18//37 16//37 14//37
f 69//38 70//38 72//38 71//38
f 71//39 72//39 10//39 9//39
f 9//40 11//40 13//40 15//40 17//40 19//40 21//40 23//40 25//40 27//40 29//40 31//40 33//40 35//40 37//40 39//40 41//40 43//40 45//40 47//40 49//40 51//40 53//40 55//40 57//40 59//40 61//40 63//40 65//40 67//40 69//40 71//40
