# Blender v2.79 (sub 0) OBJ File: 'city_remodeled.blend'
# www.blender.org
mtllib board_18.mtl
o Cylinder.023
v -2.926240 0.086508 -3.848556
v -2.926240 0.241775 -3.848556
v -2.926269 0.086508 -3.848193
v -2.926269 0.241775 -3.848193
v -2.926378 0.086508 -3.847842
v -2.926378 0.241775 -3.847842
v -2.926561 0.086508 -3.847515
v -2.926561 0.241775 -3.847515
v -2.926812 0.086508 -3.847226
v -2.926812 0.241775 -3.847226
v -2.927122 0.086508 -3.846986
v -2.927122 0.241775 -3.846986
v -2.927478 0.086508 -3.846804
v -2.927478 0.241775 -3.846804
v -2.927867 0.086508 -3.846686
v -2.927867 0.241775 -3.846686
v -2.928274 0.086508 -3.846638
v -2.928274 0.241775 -3.846638
v -2.928684 0.086508 -3.846661
v -2.928684 0.241775 -3.846661
v -2.929079 0.086508 -3.846754
v -2.929079 0.241775 -3.846754
v -2.929446 0.086508 -3.846914
v -2.929446 0.241775 -3.846914
v -2.929770 0.086508 -3.847135
v -2.929770 0.241775 -3.847135
v -2.930039 0.086508 -3.847408
v -2.930039 0.241775 -3.847408
v -2.930242 0.086508 -3.847722
v -2.930242 0.241775 -3.847722
v -2.930372 0.086508 -3.848066
v -2.930372 0.241775 -3.848066
v -2.930423 0.086508 -3.848427
v -2.930423 0.241775 -3.848427
v -2.930394 0.086508 -3.848789
v -2.930394 0.241775 -3.848789
v -2.930286 0.086508 -3.849141
v -2.930286 0.241775 -3.849141
v -2.930102 0.086508 -3.849467
v -2.930102 0.241775 -3.849467
v -2.929851 0.086508 -3.849756
v -2.929851 0.241775 -3.849756
v -2.929541 0.086508 -3.849996
v -2.929541 0.241775 -3.849996
v -2.929185 0.086508 -3.850179
v -2.929185 0.241775 -3.850179
v -2.928796 0.086508 -3.850296
v -2.928796 0.241775 -3.850296
v -2.928389 0.086508 -3.850345
v -2.928389 0.241775 -3.850345
v -2.927980 0.086508 -3.850322
v -2.927980 0.241775 -3.850322
v -2.927584 0.086508 -3.850228
v -2.927584 0.241775 -3.850228
v -2.927217 0.086508 -3.850068
v -2.927217 0.241775 -3.850068
v -2.926893 0.086508 -3.849848
v -2.926893 0.241775 -3.849848
v -2.926625 0.086508 -3.849575
v -2.926625 0.241775 -3.849575
v -2.926421 0.086508 -3.849260
v -2.926421 0.241775 -3.849260
v -2.926292 0.086508 -3.848916
v -2.926292 0.241775 -3.848916
vn 0.9968 0.0000 0.0799
vn 0.9557 0.0000 0.2945
vn 0.8718 0.0000 0.4899
vn 0.7544 0.0000 0.6564
vn 0.6130 0.0000 0.7901
vn 0.4557 0.0000 0.8901
vn 0.2890 0.0000 0.9573
vn 0.1180 0.0000 0.9930
vn -0.0562 0.0000 0.9984
vn -0.2295 0.0000 0.9733
vn -0.4001 0.0000 0.9165
vn -0.5627 0.0000 0.8266
vn -0.7126 0.0000 0.7015
vn -0.8399 0.0000 0.5427
vn -0.9357 0.0000 0.3528
vn -0.9899 0.0000 0.1414
vn -0.9968 0.0000 -0.0799
vn -0.9557 0.0000 -0.2945
vn -0.8718 0.0000 -0.4899
vn -0.7544 0.0000 -0.6564
vn -0.6130 0.0000 -0.7901
vn -0.4557 0.0000 -0.8901
vn -0.2890 0.0000 -0.9573
vn -0.1180 0.0000 -0.9930
vn 0.0562 0.0000 -0.9984
vn 0.2295 0.0000 -0.9733
vn 0.4001 0.0000 -0.9165
vn 0.5627 0.0000 -0.8266
vn 0.7126 0.0000 -0.7015
vn 0.8399 0.0000 -0.5427
vn 0.0000 1.0000 0.0000
vn 0.9357 0.0000 -0.3528
vn 0.9899 0.0000 -0.1414
vn 0.0000 -1.0000 0.0000
usemtl None
s off
f 1//1 2//1 4//1 3//1
f 3//2 4//2 6//2 5//2
f 5//3 6//3 8//3 7//3
f 7//4 8//4 10//4 9//4
f 9//5 10//5 12//5 11//5
f 11//6 12//6 14//6 13//6
f 13//7 14//7 16//7 15//7
f 15//8 16//8 18//8 17//8
f 17//9 18//9 20//9 19//9
f 19//10 20//10 22//10 21//10
f 21//11 22//11 24//11 23//11
f 23//12 24//12 26//12 25//12
f 25//13 26//13 28//13 27//13
f 27//14 28//14 30//14 29//14
f 29//15 30//15 32//15 31//15
f 31//16 32//16 34//16 33//16
f 33//17 34//17 36//17 35//17
f 35//18 36//18 38//18 37//18
f 37//19 38//19 40//19 39//19
f 39//20 40//20 42//20 41//20
f 41//21 42//21 44//21 43//21
f 43//22 44//22 46//22 45//22
f 45//23 46//23 48//23 47//23
f 47//24 48//24 50//24 49//24
f 49//25 50//25 52//25 51//25
f 51//26 52//26 54//26 53//26
f 53//27 54//27 56//27 55//27
f 55//28 56//28 58//28 57//28
f 57//29 58//29 60//29 59//29
f 59//30 60//30 62//30 61//30
f 4//31 2//31 64//31 62//31 60//31 58//31 56//31 54//31 52//31 50//31 48//31 46//31 44//31 42//31 40//31 38//31 36//31 34//31 32//31 30//31 28//31 26//31 24//31 22//31 20//31 18//31 16//31 14//31 12//31 10//31 8//31 6//31
f 61//32 62//32 64//32 63//32
f 63//33 64//33 2//33 1//33
f 1//34 3//34 5//34 7//34 9//34 11//34 13//34 15//34 17//34 19//34 21//34 23//34 25//34 27//34 29//34 31//34 33//34 35//34 37//34 39//34 41//34 43//34 45//34 47//34 49//34 51//34 53//34 55//34 57//34 59//34 61//34 63//34
o Cube.023_Cube.024
v -2.997488 0.176667 -3.847251
v -2.997488 0.276507 -3.847251
v -2.863153 0.176667 -3.851404
v -2.863153 0.276507 -3.851404
v -2.997385 0.176667 -3.843921
v -2.997385 0.276507 -3.843921
v -2.863050 0.176667 -3.848074
v -2.863050 0.276507 -3.848074
vt 0.988964 0.018848
vt 0.987598 0.018848
vt 0.987598 0.017482
vt 0.988964 0.017482
vt 0.987598 0.020214
vt 0.986232 0.020214
vt 0.986232 0.018848
vt 0.987598 0.018848
vt 0.993790 0.008434
vt 0.988962 1.001603
vt -0.004207 0.996774
vt 0.000622 0.003605
vt 0.987598 0.020214
vt 0.987598 0.018848
vt 0.988964 0.018848
vt 0.988964 0.020214
vt 0.990331 0.018848
vt 0.988964 0.018848
vt 0.988964 0.017482
vt 0.990331 0.017482
vt 0.987598 0.020214
vt 0.987598 0.021581
vt 0.986232 0.021581
vt 0.986232 0.020214
vn -0.0309 0.0000 -0.9995
vn 0.9995 0.0000 -0.0309
vn 0.0309 0.0000 0.9995
vn -0.9995 0.0000 0.0309
vn 0.0000 -1.0000 -0.0000
vn 0.0000 1.0000 0.0000
usemtl Material.004
s off
f 65/1/35 66/2/35 68/3/35 67/4/35
f 67/5/36 68/6/36 72/7/36 71/8/36
f 71/9/37 72/10/37 70/11/37 69/12/37
f 69/13/38 70/14/38 66/15/38 65/16/38
f 67/17/39 71/18/39 69/19/39 65/20/39
f 72/21/40 68/22/40 66/23/40 70/24/40
