# Blender v2.79 (sub 0) OBJ File: 'city_remodeled.blend'
# www.blender.org
mtllib board_31.mtl
o Cube.007_Cube.008
v -1.461499 0.327013 -6.252923
v -1.461499 0.662451 -6.252923
v -1.009986 0.327013 -6.258770
v -1.009986 0.662451 -6.258770
v -1.461354 0.327013 -6.241732
v -1.461354 0.662451 -6.241732
v -1.009841 0.327013 -6.247579
v -1.009841 0.662451 -6.247579
vt 0.988964 0.018848
vt 0.987598 0.018848
vt 0.987598 0.017482
vt 0.988964 0.017482
vt 0.987598 0.020214
vt 0.986232 0.020214
vt 0.986232 0.018848
vt 0.987598 0.018848
vt 0.993790 0.008434
vt 0.988962 1.001603
vt -0.004207 0.996774
vt 0.000622 0.003605
vt 0.987598 0.020214
vt 0.987598 0.018848
vt 0.988964 0.018848
vt 0.988964 0.020214
vt 0.990331 0.018848
vt 0.988964 0.018848
vt 0.988964 0.017482
vt 0.990331 0.017482
vt 0.987598 0.020214
vt 0.987598 0.021581
vt 0.986232 0.021581
vt 0.986232 0.020214
vn -0.0129 0.0000 -0.9999
vn 0.9999 0.0000 -0.0129
vn 0.0129 0.0000 0.9999
vn -0.9999 0.0000 0.0129
vn 0.0000 -1.0000 -0.0000
vn 0.0000 1.0000 0.0000
usemtl Material.004
s off
f 1/1/1 2/2/1 4/3/1 3/4/1
f 3/5/2 4/6/2 8/7/2 7/8/2
f 7/9/3 8/10/3 6/11/3 5/12/3
f 5/13/4 6/14/4 2/15/4 1/16/4
f 3/17/5 7/18/5 5/19/5 1/20/5
f 8/21/6 4/22/6 2/23/6 6/24/6
o Cylinder.007
v -1.222083 0.024101 -6.253009
v -1.222083 0.545761 -6.253009
v -1.222202 0.024101 -6.251792
v -1.222202 0.545761 -6.251792
v -1.222587 0.024101 -6.250618
v -1.222587 0.545761 -6.250618
v -1.223222 0.024101 -6.249533
v -1.223222 0.545761 -6.249533
v -1.224084 0.024101 -6.248578
v -1.224084 0.545761 -6.248578
v -1.225139 0.024101 -6.247789
v -1.225139 0.545761 -6.247789
v -1.226347 0.024101 -6.247198
v -1.226347 0.545761 -6.247198
v -1.227661 0.024101 -6.246826
v -1.227661 0.545761 -6.246826
v -1.229031 0.024101 -6.246689
v -1.229031 0.545761 -6.246689
v -1.230404 0.024101 -6.246791
v -1.230404 0.545761 -6.246791
v -1.231727 0.024101 -6.247128
v -1.231727 0.545761 -6.247128
v -1.232950 0.024101 -6.247688
v -1.232950 0.545761 -6.247688
v -1.234025 0.024101 -6.248449
v -1.234025 0.545761 -6.248449
v -1.234911 0.024101 -6.249382
v -1.234911 0.545761 -6.249382
v -1.235575 0.024101 -6.250450
v -1.235575 0.545761 -6.250450
v -1.235990 0.024101 -6.251614
v -1.235990 0.545761 -6.251614
v -1.236141 0.024101 -6.252827
v -1.236141 0.545761 -6.252827
v -1.236021 0.024101 -6.254044
v -1.236021 0.545761 -6.254044
v -1.235637 0.024101 -6.255218
v -1.235637 0.545761 -6.255218
v -1.235001 0.024101 -6.256303
v -1.235001 0.545761 -6.256303
v -1.234139 0.024101 -6.257259
v -1.234139 0.545761 -6.257259
v -1.233084 0.024101 -6.258047
v -1.233084 0.545761 -6.258047
v -1.231876 0.024101 -6.258639
v -1.231876 0.545761 -6.258639
v -1.230562 0.024101 -6.259010
v -1.230562 0.545761 -6.259010
v -1.229192 0.024101 -6.259148
v -1.229192 0.545761 -6.259148
v -1.227819 0.024101 -6.259046
v -1.227819 0.545761 -6.259046
v -1.226496 0.024101 -6.258708
v -1.226496 0.545761 -6.258708
v -1.225274 0.024101 -6.258148
v -1.225274 0.545761 -6.258148
v -1.224198 0.024101 -6.257388
v -1.224198 0.545761 -6.257388
v -1.223312 0.024101 -6.256455
v -1.223312 0.545761 -6.256455
v -1.222649 0.024101 -6.255386
v -1.222649 0.545761 -6.255386
v -1.222233 0.024101 -6.254223
v -1.222233 0.545761 -6.254223
vn 0.9952 0.0000 0.0976
vn 0.9503 0.0000 0.3114
vn 0.8629 0.0000 0.5053
vn 0.7424 0.0000 0.6700
vn 0.5986 0.0000 0.8011
vn 0.4401 0.0000 0.8980
vn 0.2718 0.0000 0.9624
vn 0.0999 0.0000 0.9950
vn -0.0740 0.0000 0.9973
vn -0.2470 0.0000 0.9690
vn -0.4166 0.0000 0.9091
vn -0.5774 0.0000 0.8164
vn -0.7249 0.0000 0.6888
vn -0.8495 0.0000 0.5275
vn -0.9418 0.0000 0.3361
vn -0.9924 0.0000 0.1233
vn -0.9952 0.0000 -0.0976
vn -0.9503 0.0000 -0.3114
vn -0.8629 0.0000 -0.5053
vn -0.7424 0.0000 -0.6700
vn -0.5986 0.0000 -0.8011
vn -0.4401 0.0000 -0.8980
vn -0.2718 0.0000 -0.9624
vn -0.0999 0.0000 -0.9950
vn 0.0740 0.0000 -0.9973
vn 0.2470 0.0000 -0.9690
vn 0.4166 0.0000 -0.9091
vn 0.5774 0.0000 -0.8164
vn 0.7249 0.0000 -0.6888
vn 0.8495 0.0000 -0.5275
vn 0.0000 1.0000 -0.0000
vn 0.9418 0.0000 -0.3361
vn 0.9924 0.0000 -0.1233
vn 0.0000 -1.0000 0.0000
usemtl None
s off
f 9//7 10//7 12//7 11//7
f 11//8 12//8 14//8 13//8
f 13//9 14//9 16//9 15//9
f 15//10 16//10 18//10 17//10
f 17//11 18//11 20//11 19//11
f 19//12 20//12 22//12 21//12
f 21//13 22//13 24//13 23//13
f 23//14 24//14 26//14 25//14
f 25//15 26//15 28//15 27//15
f 27//16 28//16 30//16 29//16
f 29//17 30//17 32//17 31//17
f 31//18 32//18 34//18 33//18
f 33//19 34//19 36//19 35//19
f 35//20 36//20 38//20 37//20
f 37//21 38//21 40//21 39//21
f 39//22 40//22 42//22 41//22
f 41//23 42//23 44//23 43//23
f 43//24 44//24 46//24 45//24
f 45//25 46//25 48//25 47//25
f 47//26 48//26 50//26 49//26
f 49//27 50//27 52//27 51//27
f 51//28 52//28 54//28 53//28
f 53//29 54//29 56//29 55//29
f 55//30 56//30 58//30 57//30
f 57//31 58//31 60//31 59//31
f 59//32 60//32 62//32 61//32
f 61//33 62//33 64//33 63//33
f 63//34 64//34 66//34 65//34
f 65//35 66//35 68//35 67//35
f 67//36 68//36 70//36 69//36
f 12//37 10//37 72//37 70//37 68//37 66//37 64//37 62//37 60//37 58//37 56//37 54//37 52//37 50//37 48//37 46//37 44//37 42//37 40//37 38//37 36//37 34//37 32//37 30//37 28//37 26//37 24//37 22//37 20//37 18//37 16//37 14//37
f 69//38 70//38 72//38 71//38
f 71//39 72//39 10//39 9//39
f 9//40 11//40 13//40 15//40 17//40 19//40 21//40 23//40 25//40 27//40 29//40 31//40 33//40 35//40 37//40 39//40 41//40 43//40 45//40 47//40 49//40 51//40 53//40 55//40 57//40 59//40 61//40 63//40 65//40 67//40 69//40 71//40
