# Blender v2.79 (sub 0) OBJ File: 'city_remodeled.blend'
# www.blender.org
mtllib board_5.mtl
o Cube.019_Cube.020
v 0.984251 0.193533 3.175044
v 0.984251 0.356263 3.175044
v 1.203037 0.193533 3.185997
v 1.203037 0.356263 3.185997
v 0.983980 0.193533 3.180466
v 0.983980 0.356263 3.180466
v 1.202766 0.193533 3.191420
v 1.202766 0.356263 3.191420
vt 0.988964 0.018848
vt 0.987598 0.018848
vt 0.987598 0.017482
vt 0.988964 0.017482
vt 0.987598 0.020214
vt 0.986232 0.020214
vt 0.986232 0.018848
vt 0.987598 0.018848
vt 0.993790 0.008434
vt 0.988962 1.001603
vt -0.004207 0.996774
vt 0.000622 0.003605
vt 0.987598 0.020214
vt 0.987598 0.018848
vt 0.988964 0.018848
vt 0.988964 0.020214
vt 0.990331 0.018848
vt 0.988964 0.018848
vt 0.988964 0.017482
vt 0.990331 0.017482
vt 0.987598 0.020214
vt 0.987598 0.021581
vt 0.986232 0.021581
vt 0.986232 0.020214
vn 0.0500 0.0000 -0.9987
vn 0.9987 0.0000 0.0500
vn -0.0500 0.0000 0.9987
vn -0.9987 0.0000 -0.0500
vn 0.0000 -1.0000 0.0000
vn 0.0000 1.0000 0.0000
usemtl Material.004
s off
f 1/1/1 2/2/1 4/3/1 3/4/1
f 3/5/2 4/6/2 8/7/2 7/8/2
f 7/9/3 8/10/3 6/11/3 5/12/3
f 5/13/4 6/14/4 2/15/4 1/16/4
f 3/17/5 7/18/5 5/19/5 1/20/5
f 8/21/6 4/22/6 2/23/6 6/24/6
o Cylinder.019
v 1.100172 0.046582 3.182311
v 1.100172 0.299653 3.182311
v 1.100077 0.046582 3.182896
v 1.100077 0.299653 3.182896
v 1.099855 0.046582 3.183453
v 1.099855 0.299653 3.183453
v 1.099514 0.046582 3.183959
v 1.099514 0.299653 3.183959
v 1.099067 0.046582 3.184395
v 1.099067 0.299653 3.184395
v 1.098532 0.046582 3.184745
v 1.098532 0.299653 3.184745
v 1.097929 0.046582 3.184994
v 1.097929 0.299653 3.184994
v 1.097282 0.046582 3.185134
v 1.097282 0.299653 3.185134
v 1.096614 0.046582 3.185159
v 1.096614 0.299653 3.185159
v 1.095953 0.046582 3.185067
v 1.095953 0.299653 3.185067
v 1.095323 0.046582 3.184864
v 1.095323 0.299653 3.184864
v 1.094748 0.046582 3.184555
v 1.094748 0.299653 3.184555
v 1.094250 0.046582 3.184154
v 1.094250 0.299653 3.184154
v 1.093850 0.046582 3.183675
v 1.093850 0.299653 3.183675
v 1.093561 0.046582 3.183138
v 1.093561 0.299653 3.183138
v 1.093396 0.046582 3.182562
v 1.093396 0.299653 3.182562
v 1.093360 0.046582 3.181970
v 1.093360 0.299653 3.181970
v 1.093455 0.046582 3.181384
v 1.093455 0.299653 3.181384
v 1.093677 0.046582 3.180827
v 1.093677 0.299653 3.180827
v 1.094018 0.046582 3.180321
v 1.094018 0.299653 3.180321
v 1.094464 0.046582 3.179885
v 1.094464 0.299653 3.179885
v 1.094999 0.046582 3.179536
v 1.094999 0.299653 3.179536
v 1.095602 0.046582 3.179286
v 1.095602 0.299653 3.179286
v 1.096249 0.046582 3.179146
v 1.096249 0.299653 3.179146
v 1.096917 0.046582 3.179121
v 1.096917 0.299653 3.179121
v 1.097578 0.046582 3.179213
v 1.097578 0.299653 3.179213
v 1.098209 0.046582 3.179417
v 1.098209 0.299653 3.179417
v 1.098784 0.046582 3.179725
v 1.098784 0.299653 3.179725
v 1.099281 0.046582 3.180126
v 1.099281 0.299653 3.180126
v 1.099682 0.046582 3.180605
v 1.099682 0.299653 3.180605
v 1.099970 0.046582 3.181143
v 1.099970 0.299653 3.181143
v 1.100136 0.046582 3.181718
v 1.100136 0.299653 3.181718
vn 0.9871 0.0000 0.1600
vn 0.9288 0.0000 0.3707
vn 0.8294 0.0000 0.5587
vn 0.6987 0.0000 0.7155
vn 0.5470 0.0000 0.8371
vn 0.3826 0.0000 0.9239
vn 0.2108 0.0000 0.9775
vn 0.0374 0.0000 0.9993
vn -0.1368 0.0000 0.9906
vn -0.3078 0.0000 0.9514
vn -0.4726 0.0000 0.8813
vn -0.6278 0.0000 0.7784
vn -0.7669 0.0000 0.6417
vn -0.8811 0.0000 0.4729
vn -0.9611 0.0000 0.2763
vn -0.9982 0.0000 0.0607
vn -0.9871 0.0000 -0.1602
vn -0.9288 0.0000 -0.3705
vn -0.8294 0.0000 -0.5587
vn -0.6987 0.0000 -0.7155
vn -0.5470 0.0000 -0.8371
vn -0.3826 0.0000 -0.9239
vn -0.2108 0.0000 -0.9775
vn -0.0374 0.0000 -0.9993
vn 0.1368 0.0000 -0.9906
vn 0.3078 0.0000 -0.9514
vn 0.4726 0.0000 -0.8813
vn 0.6278 0.0000 -0.7784
vn 0.7669 0.0000 -0.6417
vn 0.8811 0.0000 -0.4729
vn 0.0000 1.0000 0.0000
vn 0.9611 0.0000 -0.2763
vn 0.9982 0.0000 -0.0607
vn 0.0000 -1.0000 -0.0000
usemtl None
s off
f 9//7 10//7 12//7 11//7
f 11//8 12//8 14//8 13//8
f 13//9 14//9 16//9 15//9
f 15//10 16//10 18//10 17//10
f 17//11 18//11 20//11 19//11
f 19//12 20//12 22//12 21//12
f 21//13 22//13 24//13 23//13
f 23//14 24//14 26//14 25//14
f 25//15 26//15 28//15 27//15
f 27//16 28//16 30//16 29//16
f 29//17 30//17 32//17 31//17
f 31//18 32//18 34//18 33//18
f 33//19 34//19 36//19 35//19
f 35//20 36//20 38//20 37//20
f 37//21 38//21 40//21 39//21
f 39//22 40//22 42//22 41//22
f 41//23 42//23 44//23 43//23
f 43//24 44//24 46//24 45//24
f 45//25 46//25 48//25 47//25
f 47//26 48//26 50//26 49//26
f 49//27 50//27 52//27 51//27
f 51//28 52//28 54//28 53//28
f 53//29 54//29 56//29 55//29
f 55//30 56//30 58//30 57//30
f 57//31 58//31 60//31 59//31
f 59//32 60//32 62//32 61//32
f 61//33 62//33 64//33 63//33
f 63//34 64//34 66//34 65//34
f 65//35 66//35 68//35 67//35
f 67//36 68//36 70//36 69//36
f 12//37 10//37 72//37 70//37 68//37 66//37 64//37 62//37 60//37 58//37 56//37 54//37 52//37 50//37 48//37 46//37 44//37 42//37 40//37 38//37 36//37 34//37 32//37 30//37 28//37 26//37 24//37 22//37 20//37 18//37 16//37 14//37
f 69//38 70//38 72//38 71//38
f 71//39 72//39 10//39 9//39
f 9//40 11//40 13//40 15//40 17//40 19//40 21//40 23//40 25//40 27//40 29//40 31//40 33//40 35//40 37//40 39//40 41//40 43//40 45//40 47//40 49//40 51//40 53//40 55//40 57//40 59//40 61//40 63//40 65//40 67//40 69//40 71//40
