# Blender v2.79 (sub 0) OBJ File: 'city_remodeled.blend'
# www.blender.org
mtllib board_16.mtl
o Cylinder.016
v -4.744060 0.082148 -3.915856
v -4.744060 0.482185 -3.915856
v -4.743129 0.082148 -3.915741
v -4.743129 0.482185 -3.915741
v -4.742236 0.082148 -3.915423
v -4.742236 0.482185 -3.915423
v -4.741416 0.082148 -3.914915
v -4.741416 0.482185 -3.914915
v -4.740701 0.082148 -3.914236
v -4.740701 0.482185 -3.914236
v -4.740117 0.082148 -3.913412
v -4.740117 0.482185 -3.913412
v -4.739686 0.082148 -3.912475
v -4.739686 0.482185 -3.912475
v -4.739427 0.082148 -3.911460
v -4.739427 0.482185 -3.911460
v -4.739348 0.082148 -3.910408
v -4.739348 0.482185 -3.910408
v -4.739452 0.082148 -3.909357
v -4.739452 0.482185 -3.909357
v -4.739737 0.082148 -3.908349
v -4.739737 0.482185 -3.908349
v -4.740189 0.082148 -3.907423
v -4.740189 0.482185 -3.907423
v -4.740793 0.082148 -3.906613
v -4.740793 0.482185 -3.906613
v -4.741525 0.082148 -3.905951
v -4.741525 0.482185 -3.905951
v -4.742357 0.082148 -3.905463
v -4.742357 0.482185 -3.905463
v -4.743257 0.082148 -3.905167
v -4.743257 0.482185 -3.905167
v -4.744190 0.082148 -3.905075
v -4.744190 0.482185 -3.905075
v -4.745121 0.082148 -3.905190
v -4.745121 0.482185 -3.905190
v -4.746014 0.082148 -3.905508
v -4.746014 0.482185 -3.905508
v -4.746833 0.082148 -3.906016
v -4.746833 0.482185 -3.906016
v -4.747549 0.082148 -3.906695
v -4.747549 0.482185 -3.906695
v -4.748133 0.082148 -3.907519
v -4.748133 0.482185 -3.907519
v -4.748563 0.082148 -3.908456
v -4.748563 0.482185 -3.908456
v -4.748823 0.082148 -3.909471
v -4.748823 0.482185 -3.909471
v -4.748902 0.082148 -3.910523
v -4.748902 0.482185 -3.910523
v -4.748797 0.082148 -3.911574
v -4.748797 0.482185 -3.911574
v -4.748513 0.082148 -3.912582
v -4.748513 0.482185 -3.912582
v -4.748061 0.082148 -3.913508
v -4.748061 0.482185 -3.913508
v -4.747457 0.082148 -3.914318
v -4.747457 0.482185 -3.914318
v -4.746725 0.082148 -3.914980
v -4.746725 0.482185 -3.914980
v -4.745893 0.082148 -3.915468
v -4.745893 0.482185 -3.915468
v -4.744993 0.082148 -3.915764
v -4.744993 0.482185 -3.915764
vn 0.1226 0.0000 -0.9925
vn 0.3353 0.0000 -0.9421
vn 0.5268 0.0000 -0.8500
vn 0.6883 0.0000 -0.7254
vn 0.8158 0.0000 -0.5783
vn 0.9089 0.0000 -0.4170
vn 0.9687 0.0000 -0.2482
vn 0.9972 0.0000 -0.0745
vn 0.9951 0.0000 0.0989
vn 0.9625 0.0000 0.2714
vn 0.8985 0.0000 0.4389
vn 0.8016 0.0000 0.5979
vn 0.6705 0.0000 0.7419
vn 0.5060 0.0000 0.8625
vn 0.3121 0.0000 0.9500
vn 0.0985 0.0000 0.9951
vn -0.1226 0.0000 0.9925
vn -0.3350 0.0000 0.9422
vn -0.5271 0.0000 0.8498
vn -0.6883 0.0000 0.7254
vn -0.8158 0.0000 0.5783
vn -0.9089 0.0000 0.4170
vn -0.9687 0.0000 0.2482
vn -0.9972 0.0000 0.0745
vn -0.9951 0.0000 -0.0989
vn -0.9625 0.0000 -0.2713
vn -0.8985 0.0000 -0.4389
vn -0.8015 0.0000 -0.5980
vn -0.6705 0.0000 -0.7419
vn -0.5060 0.0000 -0.8625
vn 0.0000 1.0000 0.0000
vn -0.3124 0.0000 -0.9499
vn -0.0985 0.0000 -0.9951
vn 0.0000 -1.0000 -0.0000
usemtl None
s off
f 1//1 2//1 4//1 3//1
f 3//2 4//2 6//2 5//2
f 5//3 6//3 8//3 7//3
f 7//4 8//4 10//4 9//4
f 9//5 10//5 12//5 11//5
f 11//6 12//6 14//6 13//6
f 13//7 14//7 16//7 15//7
f 15//8 16//8 18//8 17//8
f 17//9 18//9 20//9 19//9
f 19//10 20//10 22//10 21//10
f 21//11 22//11 24//11 23//11
f 23//12 24//12 26//12 25//12
f 25//13 26//13 28//13 27//13
f 27//14 28//14 30//14 29//14
f 29//15 30//15 32//15 31//15
f 31//16 32//16 34//16 33//16
f 33//17 34//17 36//17 35//17
f 35//18 36//18 38//18 37//18
f 37//19 38//19 40//19 39//19
f 39//20 40//20 42//20 41//20
f 41//21 42//21 44//21 43//21
f 43//22 44//22 46//22 45//22
f 45//23 46//23 48//23 47//23
f 47//24 48//24 50//24 49//24
f 49//25 50//25 52//25 51//25
f 51//26 52//26 54//26 53//26
f 53//27 54//27 56//27 55//27
f 55//28 56//28 58//28 57//28
f 57//29 58//29 60//29 59//29
f 59//30 60//30 62//30 61//30
f 4//31 2//31 64//31 62//31 60//31 58//31 56//31 54//31 52//31 50//31 48//31 46//31 44//31 42//31 40//31 38//31 36//31 34//31 32//31 30//31 28//31 26//31 24//31 22//31 20//31 18//31 16//31 14//31 12//31 10//31 8//31 6//31
f 61//32 62//32 64//32 63//32
f 63//33 64//33 2//33 1//33
f 1//34 3//34 5//34 7//34 9//34 11//34 13//34 15//34 17//34 19//34 21//34 23//34 25//34 27//34 29//34 31//34 33//34 35//34 37//34 39//34 41//34 43//34 45//34 47//34 49//34 51//34 53//34 55//34 57//34 59//34 61//34 63//34
o Cube.016_Cube.017
v -4.748598 0.314437 -3.732314
v -4.748598 0.571670 -3.732314
v -4.744396 0.314437 -4.078563
v -4.744396 0.571670 -4.078563
v -4.740016 0.314437 -3.732210
v -4.740016 0.571670 -3.732210
v -4.735814 0.314437 -4.078459
v -4.735814 0.571670 -4.078459
vt 0.988964 0.018848
vt 0.987598 0.018848
vt 0.987598 0.017482
vt 0.988964 0.017482
vt 0.987598 0.020214
vt 0.986232 0.020214
vt 0.986232 0.018848
vt 0.987598 0.018848
vt 0.993790 0.008434
vt 0.988962 1.001603
vt -0.004207 0.996774
vt 0.000622 0.003605
vt 0.987598 0.020214
vt 0.987598 0.018848
vt 0.988964 0.018848
vt 0.988964 0.020214
vt 0.990331 0.018848
vt 0.988964 0.018848
vt 0.988964 0.017482
vt 0.990331 0.017482
vt 0.987598 0.020214
vt 0.987598 0.021581
vt 0.986232 0.021581
vt 0.986232 0.020214
vn -0.9999 0.0000 -0.0121
vn 0.0122 0.0000 -0.9999
vn 0.9999 0.0000 0.0121
vn -0.0121 0.0000 0.9999
vn 0.0000 -1.0000 0.0000
vn 0.0000 1.0000 0.0000
usemtl Material.004
s off
f 65/1/35 66/2/35 68/3/35 67/4/35
f 67/5/36 68/6/36 72/7/36 71/8/36
f 71/9/37 72/10/37 70/11/37 69/12/37
f 69/13/38 70/14/38 66/15/38 65/16/38
f 67/17/39 71/18/39 69/19/39 65/20/39
f 72/21/40 68/22/40 66/23/40 70/24/40
