# Blender v2.79 (sub 0) OBJ File: 'city_remodeled.blend'
# www.blender.org
mtllib board_20.mtl
o Cylinder.025
v -1.053295 0.072357 -3.783100
v -1.053295 0.254678 -3.783100
v -1.053352 0.072357 -3.782677
v -1.053352 0.254678 -3.782677
v -1.053502 0.072357 -3.782272
v -1.053502 0.254678 -3.782272
v -1.053739 0.072357 -3.781901
v -1.053739 0.254678 -3.781901
v -1.054052 0.072357 -3.781579
v -1.054052 0.254678 -3.781579
v -1.054431 0.072357 -3.781318
v -1.054431 0.254678 -3.781318
v -1.054861 0.072357 -3.781127
v -1.054861 0.254678 -3.781127
v -1.055325 0.072357 -3.781015
v -1.055325 0.254678 -3.781015
v -1.055805 0.072357 -3.780985
v -1.055805 0.254678 -3.780985
v -1.056283 0.072357 -3.781039
v -1.056283 0.254678 -3.781039
v -1.056741 0.072357 -3.781174
v -1.056741 0.254678 -3.781174
v -1.057160 0.072357 -3.781385
v -1.057160 0.254678 -3.781385
v -1.057526 0.072357 -3.781665
v -1.057526 0.254678 -3.781665
v -1.057823 0.072357 -3.782003
v -1.057823 0.254678 -3.782003
v -1.058041 0.072357 -3.782385
v -1.058041 0.254678 -3.782385
v -1.058170 0.072357 -3.782797
v -1.058170 0.254678 -3.782797
v -1.058207 0.072357 -3.783222
v -1.058207 0.254678 -3.783222
v -1.058149 0.072357 -3.783646
v -1.058149 0.254678 -3.783646
v -1.057999 0.072357 -3.784051
v -1.057999 0.254678 -3.784051
v -1.057763 0.072357 -3.784421
v -1.057763 0.254678 -3.784421
v -1.057449 0.072357 -3.784744
v -1.057449 0.254678 -3.784744
v -1.057070 0.072357 -3.785005
v -1.057070 0.254678 -3.785005
v -1.056641 0.072357 -3.785196
v -1.056641 0.254678 -3.785196
v -1.056177 0.072357 -3.785308
v -1.056177 0.254678 -3.785308
v -1.055697 0.072357 -3.785338
v -1.055697 0.254678 -3.785338
v -1.055219 0.072357 -3.785284
v -1.055219 0.254678 -3.785284
v -1.054761 0.072357 -3.785149
v -1.054761 0.254678 -3.785149
v -1.054341 0.072357 -3.784937
v -1.054341 0.254678 -3.784937
v -1.053976 0.072357 -3.784657
v -1.053976 0.254678 -3.784657
v -1.053679 0.072357 -3.784320
v -1.053679 0.254678 -3.784320
v -1.053461 0.072357 -3.783938
v -1.053461 0.254678 -3.783938
v -1.053331 0.072357 -3.783526
v -1.053331 0.254678 -3.783526
vn 0.9909 0.0000 0.1349
vn 0.9378 0.0000 0.3472
vn 0.8432 0.0000 0.5376
vn 0.7167 0.0000 0.6974
vn 0.5676 0.0000 0.8233
vn 0.4061 0.0000 0.9138
vn 0.2350 0.0000 0.9720
vn 0.0625 0.0000 0.9980
vn -0.1121 0.0000 0.9937
vn -0.2830 0.0000 0.9591
vn -0.4506 0.0000 0.8927
vn -0.6081 0.0000 0.7939
vn -0.7503 0.0000 0.6611
vn -0.8688 0.0000 0.4952
vn -0.9539 0.0000 0.3001
vn -0.9963 0.0000 0.0856
vn -0.9908 0.0000 -0.1350
vn -0.9378 0.0000 -0.3472
vn -0.8432 0.0000 -0.5376
vn -0.7167 0.0000 -0.6974
vn -0.5681 0.0000 -0.8229
vn -0.4055 0.0000 -0.9141
vn -0.2356 0.0000 -0.9718
vn -0.0625 0.0000 -0.9980
vn 0.1121 0.0000 -0.9937
vn 0.2836 0.0000 -0.9589
vn 0.4500 0.0000 -0.8930
vn 0.6085 0.0000 -0.7936
vn 0.7499 0.0000 -0.6615
vn 0.8689 0.0000 -0.4949
vn 0.0000 1.0000 -0.0000
vn 0.9539 0.0000 -0.3001
vn 0.9963 0.0000 -0.0857
vn 0.0000 -1.0000 -0.0000
usemtl None
s off
f 1//1 2//1 4//1 3//1
f 3//2 4//2 6//2 5//2
f 5//3 6//3 8//3 7//3
f 7//4 8//4 10//4 9//4
f 9//5 10//5 12//5 11//5
f 11//6 12//6 14//6 13//6
f 13//7 14//7 16//7 15//7
f 15//8 16//8 18//8 17//8
f 17//9 18//9 20//9 19//9
f 19//10 20//10 22//10 21//10
f 21//11 22//11 24//11 23//11
f 23//12 24//12 26//12 25//12
f 25//13 26//13 28//13 27//13
f 27//14 28//14 30//14 29//14
f 29//15 30//15 32//15 31//15
f 31//16 32//16 34//16 33//16
f 33//17 34//17 36//17 35//17
f 35//18 36//18 38//18 37//18
f 37//19 38//19 40//19 39//19
f 39//20 40//20 42//20 41//20
f 41//21 42//21 44//21 43//21
f 43//22 44//22 46//22 45//22
f 45//23 46//23 48//23 47//23
f 47//24 48//24 50//24 49//24
f 49//25 50//25 52//25 51//25
f 51//26 52//26 54//26 53//26
f 53//27 54//27 56//27 55//27
f 55//28 56//28 58//28 57//28
f 57//29 58//29 60//29 59//29
f 59//30 60//30 62//30 61//30
f 4//31 2//31 64//31 62//31 60//31 58//31 56//31 54//31 52//31 50//31 48//31 46//31 44//31 42//31 40//31 38//31 36//31 34//31 32//31 30//31 28//31 26//31 24//31 22//31 20//31 18//31 16//31 14//31 12//31 10//31 8//31 6//31
f 61//32 62//32 64//32 63//32
f 63//33 64//33 2//33 1//33
f 1//34 3//34 5//34 7//34 9//34 11//34 13//34 15//34 17//34 19//34 21//34 23//34 25//34 27//34 29//34 31//34 33//34 35//34 37//34 39//34 41//34 43//34 45//34 47//34 49//34 51//34 53//34 55//34 57//34 59//34 61//34 63//34
o Cube.025_Cube.026
v -1.136912 0.178225 -3.786230
v -1.136912 0.295461 -3.786230
v -0.979143 0.178225 -3.782313
v -0.979143 0.295461 -3.782313
v -1.137010 0.178225 -3.782320
v -1.137010 0.295461 -3.782320
v -0.979240 0.178225 -3.778403
v -0.979240 0.295461 -3.778403
vt 0.988964 0.018848
vt 0.987598 0.018848
vt 0.987598 0.017482
vt 0.988964 0.017482
vt 0.987598 0.020214
vt 0.986232 0.020214
vt 0.986232 0.018848
vt 0.987598 0.018848
vt 0.993790 0.008434
vt 0.988962 1.001603
vt -0.004207 0.996774
vt 0.000622 0.003605
vt 0.987598 0.020214
vt 0.987598 0.018848
vt 0.988964 0.018848
vt 0.988964 0.020214
vt 0.990331 0.018848
vt 0.988964 0.018848
vt 0.988964 0.017482
vt 0.990331 0.017482
vt 0.987598 0.020214
vt 0.987598 0.021581
vt 0.986232 0.021581
vt 0.986232 0.020214
vn 0.0248 0.0000 -0.9997
vn 0.9997 0.0000 0.0248
vn -0.0248 0.0000 0.9997
vn -0.9997 0.0000 -0.0248
vn 0.0000 -1.0000 -0.0000
vn 0.0000 1.0000 -0.0000
usemtl Material.004
s off
f 65/1/35 66/2/35 68/3/35 67/4/35
f 67/5/36 68/6/36 72/7/36 71/8/36
f 71/9/37 72/10/37 70/11/37 69/12/37
f 69/13/38 70/14/38 66/15/38 65/16/38
f 67/17/39 71/18/39 69/19/39 65/20/39
f 72/21/40 68/22/40 66/23/40 70/24/40
