# Blender v2.79 (sub 0) OBJ File: 'city_remodeled.blend'
# www.blender.org
mtllib board_27.mtl
o Cylinder.031
v -2.120137 0.044537 -4.806938
v -2.120137 0.184844 -4.806938
v -2.120464 0.044537 -4.806977
v -2.120464 0.184844 -4.806977
v -2.120777 0.044537 -4.807087
v -2.120777 0.184844 -4.807087
v -2.121065 0.044537 -4.807264
v -2.121065 0.184844 -4.807264
v -2.121317 0.044537 -4.807501
v -2.121317 0.184844 -4.807501
v -2.121523 0.044537 -4.807789
v -2.121523 0.184844 -4.807789
v -2.121675 0.044537 -4.808118
v -2.121675 0.184844 -4.808118
v -2.121768 0.044537 -4.808473
v -2.121768 0.184844 -4.808473
v -2.121797 0.044537 -4.808842
v -2.121797 0.184844 -4.808842
v -2.121762 0.044537 -4.809211
v -2.121762 0.184844 -4.809211
v -2.121664 0.044537 -4.809565
v -2.121664 0.184844 -4.809565
v -2.121506 0.044537 -4.809890
v -2.121506 0.184844 -4.809890
v -2.121295 0.044537 -4.810175
v -2.121295 0.184844 -4.810175
v -2.121039 0.044537 -4.810408
v -2.121039 0.184844 -4.810408
v -2.120748 0.044537 -4.810580
v -2.120748 0.184844 -4.810580
v -2.120433 0.044537 -4.810686
v -2.120433 0.184844 -4.810686
v -2.120106 0.044537 -4.810719
v -2.120106 0.184844 -4.810719
v -2.119779 0.044537 -4.810680
v -2.119779 0.184844 -4.810680
v -2.119466 0.044537 -4.810570
v -2.119466 0.184844 -4.810570
v -2.119178 0.044537 -4.810393
v -2.119178 0.184844 -4.810393
v -2.118926 0.044537 -4.810155
v -2.118926 0.184844 -4.810155
v -2.118720 0.044537 -4.809867
v -2.118720 0.184844 -4.809867
v -2.118567 0.044537 -4.809539
v -2.118567 0.184844 -4.809539
v -2.118475 0.044537 -4.809184
v -2.118475 0.184844 -4.809184
v -2.118446 0.044537 -4.808815
v -2.118446 0.184844 -4.808815
v -2.118481 0.044537 -4.808446
v -2.118481 0.184844 -4.808446
v -2.118579 0.044537 -4.808092
v -2.118579 0.184844 -4.808092
v -2.118737 0.044537 -4.807766
v -2.118737 0.184844 -4.807766
v -2.118948 0.044537 -4.807482
v -2.118948 0.184844 -4.807482
v -2.119204 0.044537 -4.807249
v -2.119204 0.184844 -4.807249
v -2.119495 0.044537 -4.807076
v -2.119495 0.184844 -4.807076
v -2.119810 0.044537 -4.806971
v -2.119810 0.184844 -4.806971
vn -0.1188 0.0000 0.9929
vn -0.3314 0.0000 0.9435
vn -0.5227 0.0000 0.8525
vn -0.6858 0.0000 0.7278
vn -0.8134 0.0000 0.5817
vn -0.9076 0.0000 0.4199
vn -0.9677 0.0000 0.2521
vn -0.9969 0.0000 0.0785
vn -0.9954 0.0000 -0.0954
vn -0.9636 0.0000 -0.2675
vn -0.9002 0.0000 -0.4354
vn -0.8037 0.0000 -0.5951
vn -0.6737 0.0000 -0.7390
vn -0.5088 0.0000 -0.8609
vn -0.3168 0.0000 -0.9485
vn -0.1021 0.0000 -0.9948
vn 0.1188 0.0000 -0.9929
vn 0.3325 0.0000 -0.9431
vn 0.5227 0.0000 -0.8525
vn 0.6858 0.0000 -0.7278
vn 0.8134 0.0000 -0.5817
vn 0.9074 0.0000 -0.4203
vn 0.9678 0.0000 -0.2518
vn 0.9969 0.0000 -0.0786
vn 0.9955 0.0000 0.0953
vn 0.9636 0.0000 0.2675
vn 0.9000 0.0000 0.4359
vn 0.8041 0.0000 0.5945
vn 0.6730 0.0000 0.7396
vn 0.5097 0.0000 0.8603
vn 0.0000 1.0000 -0.0000
vn 0.3168 0.0000 0.9485
vn 0.1008 0.0000 0.9949
vn 0.0000 -1.0000 0.0000
usemtl None
s off
f 1//1 2//1 4//1 3//1
f 3//2 4//2 6//2 5//2
f 5//3 6//3 8//3 7//3
f 7//4 8//4 10//4 9//4
f 9//5 10//5 12//5 11//5
f 11//6 12//6 14//6 13//6
f 13//7 14//7 16//7 15//7
f 15//8 16//8 18//8 17//8
f 17//9 18//9 20//9 19//9
f 19//10 20//10 22//10 21//10
f 21//11 22//11 24//11 23//11
f 23//12 24//12 26//12 25//12
f 25//13 26//13 28//13 27//13
f 27//14 28//14 30//14 29//14
f 29//15 30//15 32//15 31//15
f 31//16 32//16 34//16 33//16
f 33//17 34//17 36//17 35//17
f 35//18 36//18 38//18 37//18
f 37//19 38//19 40//19 39//19
f 39//20 40//20 42//20 41//20
f 41//21 42//21 44//21 43//21
f 43//22 44//22 46//22 45//22
f 45//23 46//23 48//23 47//23
f 47//24 48//24 50//24 49//24
f 49//25 50//25 52//25 51//25
f 51//26 52//26 54//26 53//26
f 53//27 54//27 56//27 55//27
f 55//28 56//28 58//28 57//28
f 57//29 58//29 60//29 59//29
f 59//30 60//30 62//30 61//30
f 4//31 2//31 64//31 62//31 60//31 58//31 56//31 54//31 52//31 50//31 48//31 46//31 44//31 42//31 40//31 38//31 36//31 34//31 32//31 30//31 28//31 26//31 24//31 22//31 20//31 18//31 16//31 14//31 12//31 10//31 8//31 6//31
f 61//32 62//32 64//32 63//32
f 63//33 64//33 2//33 1//33
f 1//34 3//34 5//34 7//34 9//34 11//34 13//34 15//34 17//34 19//34 21//34 23//34 25//34 27//34 29//34 31//34 33//34 35//34 37//34 39//34 41//34 43//34 45//34 47//34 49//34 51//34 53//34 55//34 57//34 59//34 61//34 63//34
o Cube.031_Cube.032
v -2.118791 0.126009 -4.871317
v -2.118791 0.216229 -4.871317
v -2.119801 0.126009 -4.749871
v -2.119801 0.216229 -4.749871
v -2.121801 0.126009 -4.871343
v -2.121801 0.216229 -4.871343
v -2.122811 0.126009 -4.749897
v -2.122811 0.216229 -4.749897
vt 0.988964 0.018848
vt 0.987598 0.018848
vt 0.987598 0.017482
vt 0.988964 0.017482
vt 0.987598 0.020214
vt 0.986232 0.020214
vt 0.986232 0.018848
vt 0.987598 0.018848
vt 0.993790 0.008434
vt 0.988962 1.001603
vt -0.004207 0.996774
vt 0.000622 0.003605
vt 0.987598 0.020214
vt 0.987598 0.018848
vt 0.988964 0.018848
vt 0.988964 0.020214
vt 0.990331 0.018848
vt 0.988964 0.018848
vt 0.988964 0.017482
vt 0.990331 0.017482
vt 0.987598 0.020214
vt 0.987598 0.021581
vt 0.986232 0.021581
vt 0.986232 0.020214
vn 1.0000 0.0000 0.0083
vn -0.0084 0.0000 1.0000
vn -1.0000 0.0000 -0.0083
vn 0.0084 0.0000 -1.0000
vn 0.0000 -1.0000 0.0000
vn 0.0000 1.0000 0.0000
usemtl Material.004
s off
f 65/1/35 66/2/35 68/3/35 67/4/35
f 67/5/36 68/6/36 72/7/36 71/8/36
f 71/9/37 72/10/37 70/11/37 69/12/37
f 69/13/38 70/14/38 66/15/38 65/16/38
f 67/17/39 71/18/39 69/19/39 65/20/39
f 72/21/40 68/22/40 66/23/40 70/24/40
