# Blender v2.79 (sub 0) OBJ File: 'city_remodeled.blend'
# www.blender.org
mtllib board_17.mtl
o Cube.022_Cube.023
v -3.818960 0.176667 -3.840022
v -3.818960 0.276507 -3.840022
v -3.817329 0.176667 -3.974412
v -3.817329 0.276507 -3.974412
v -3.815629 0.176667 -3.839982
v -3.815629 0.276507 -3.839982
v -3.813998 0.176667 -3.974372
v -3.813998 0.276507 -3.974372
vt 0.988964 0.018848
vt 0.987598 0.018848
vt 0.987598 0.017482
vt 0.988964 0.017482
vt 0.987598 0.020214
vt 0.986232 0.020214
vt 0.986232 0.018848
vt 0.987598 0.018848
vt 0.993790 0.008434
vt 0.988962 1.001603
vt -0.004207 0.996774
vt 0.000622 0.003605
vt 0.987598 0.020214
vt 0.987598 0.018848
vt 0.988964 0.018848
vt 0.988964 0.020214
vt 0.990331 0.018848
vt 0.988964 0.018848
vt 0.988964 0.017482
vt 0.990331 0.017482
vt 0.987598 0.020214
vt 0.987598 0.021581
vt 0.986232 0.021581
vt 0.986232 0.020214
vn -0.9999 0.0000 -0.0121
vn 0.0121 0.0000 -0.9999
vn 0.9999 0.0000 0.0121
vn -0.0121 0.0000 0.9999
vn 0.0000 -1.0000 0.0000
vn 0.0000 1.0000 0.0000
usemtl Material.004
s off
f 1/1/1 2/2/1 4/3/1 3/4/1
f 3/5/2 4/6/2 8/7/2 7/8/2
f 7/9/3 8/10/3 6/11/3 5/12/3
f 5/13/4 6/14/4 2/15/4 1/16/4
f 3/17/5 7/18/5 5/19/5 1/20/5
f 8/21/6 4/22/6 2/23/6 6/24/6
o Cylinder.022
v -3.817199 0.086508 -3.911260
v -3.817199 0.241775 -3.911260
v -3.816838 0.086508 -3.911216
v -3.816838 0.241775 -3.911216
v -3.816491 0.086508 -3.911093
v -3.816491 0.241775 -3.911093
v -3.816173 0.086508 -3.910895
v -3.816173 0.241775 -3.910895
v -3.815895 0.086508 -3.910632
v -3.815895 0.241775 -3.910632
v -3.815669 0.086508 -3.910312
v -3.815669 0.241775 -3.910312
v -3.815501 0.086508 -3.909948
v -3.815501 0.241775 -3.909948
v -3.815401 0.086508 -3.909554
v -3.815401 0.241775 -3.909554
v -3.815370 0.086508 -3.909146
v -3.815370 0.241775 -3.909146
v -3.815411 0.086508 -3.908738
v -3.815411 0.241775 -3.908738
v -3.815521 0.086508 -3.908347
v -3.815521 0.241775 -3.908347
v -3.815697 0.086508 -3.907987
v -3.815697 0.241775 -3.907987
v -3.815931 0.086508 -3.907673
v -3.815931 0.241775 -3.907673
v -3.816215 0.086508 -3.907416
v -3.816215 0.241775 -3.907416
v -3.816538 0.086508 -3.907227
v -3.816538 0.241775 -3.907227
v -3.816887 0.086508 -3.907112
v -3.816887 0.241775 -3.907112
v -3.817250 0.086508 -3.907076
v -3.817250 0.241775 -3.907076
v -3.817611 0.086508 -3.907121
v -3.817611 0.241775 -3.907121
v -3.817957 0.086508 -3.907244
v -3.817957 0.241775 -3.907244
v -3.818275 0.086508 -3.907441
v -3.818275 0.241775 -3.907441
v -3.818553 0.086508 -3.907705
v -3.818553 0.241775 -3.907705
v -3.818780 0.086508 -3.908025
v -3.818780 0.241775 -3.908025
v -3.818947 0.086508 -3.908388
v -3.818947 0.241775 -3.908388
v -3.819048 0.086508 -3.908782
v -3.819048 0.241775 -3.908782
v -3.819078 0.086508 -3.909191
v -3.819078 0.241775 -3.909191
v -3.819038 0.086508 -3.909599
v -3.819038 0.241775 -3.909599
v -3.818928 0.086508 -3.909990
v -3.818928 0.241775 -3.909990
v -3.818752 0.086508 -3.910349
v -3.818752 0.241775 -3.910349
v -3.818517 0.086508 -3.910664
v -3.818517 0.241775 -3.910664
v -3.818233 0.086508 -3.910920
v -3.818233 0.241775 -3.910920
v -3.817910 0.086508 -3.911110
v -3.817910 0.241775 -3.911110
v -3.817561 0.086508 -3.911225
v -3.817561 0.241775 -3.911225
vn 0.1223 0.0000 -0.9925
vn 0.3353 0.0000 -0.9421
vn 0.5269 0.0000 -0.8499
vn 0.6880 0.0000 -0.7257
vn 0.8158 0.0000 -0.5784
vn 0.9087 0.0000 -0.4173
vn 0.9689 0.0000 -0.2475
vn 0.9972 0.0000 -0.0751
vn 0.9951 0.0000 0.0988
vn 0.9623 0.0000 0.2718
vn 0.8985 0.0000 0.4389
vn 0.8018 0.0000 0.5977
vn 0.6705 0.0000 0.7419
vn 0.5058 0.0000 0.8627
vn 0.3122 0.0000 0.9500
vn 0.0981 0.0000 0.9952
vn -0.1223 0.0000 0.9925
vn -0.3353 0.0000 0.9421
vn -0.5262 0.0000 0.8504
vn -0.6886 0.0000 0.7252
vn -0.8158 0.0000 0.5784
vn -0.9087 0.0000 0.4173
vn -0.9689 0.0000 0.2475
vn -0.9972 0.0000 0.0751
vn -0.9951 0.0000 -0.0989
vn -0.9624 0.0000 -0.2716
vn -0.8985 0.0000 -0.4389
vn -0.8018 0.0000 -0.5977
vn -0.6705 0.0000 -0.7419
vn -0.5058 0.0000 -0.8627
vn 0.0000 1.0000 -0.0000
vn -0.3122 0.0000 -0.9500
vn -0.0981 0.0000 -0.9952
vn 0.0000 -1.0000 -0.0000
usemtl None
s off
f 9//7 10//7 12//7 11//7
f 11//8 12//8 14//8 13//8
f 13//9 14//9 16//9 15//9
f 15//10 16//10 18//10 17//10
f 17//11 18//11 20//11 19//11
f 19//12 20//12 22//12 21//12
f 21//13 22//13 24//13 23//13
f 23//14 24//14 26//14 25//14
f 25//15 26//15 28//15 27//15
f 27//16 28//16 30//16 29//16
f 29//17 30//17 32//17 31//17
f 31//18 32//18 34//18 33//18
f 33//19 34//19 36//19 35//19
f 35//20 36//20 38//20 37//20
f 37//21 38//21 40//21 39//21
f 39//22 40//22 42//22 41//22
f 41//23 42//23 44//23 43//23
f 43//24 44//24 46//24 45//24
f 45//25 46//25 48//25 47//25
f 47//26 48//26 50//26 49//26
f 49//27 50//27 52//27 51//27
f 51//28 52//28 54//28 53//28
f 53//29 54//29 56//29 55//29
f 55//30 56//30 58//30 57//30
f 57//31 58//31 60//31 59//31
f 59//32 60//32 62//32 61//32
f 61//33 62//33 64//33 63//33
f 63//34 64//34 66//34 65//34
f 65//35 66//35 68//35 67//35
f 67//36 68//36 70//36 69//36
f 12//37 10//37 72//37 70//37 68//37 66//37 64//37 62//37 60//37 58//37 56//37 54//37 52//37 50//37 48//37 46//37 44//37 42//37 40//37 38//37 36//37 34//37 32//37 30//37 28//37 26//37 24//37 22//37 20//37 18//37 16//37 14//37
f 69//38 70//38 72//38 71//38
f 71//39 72//39 10//39 9//39
f 9//40 11//40 13//40 15//40 17//40 19//40 21//40 23//40 25//40 27//40 29//40 31//40 33//40 35//40 37//40 39//40 41//40 43//40 45//40 47//40 49//40 51//40 53//40 55//40 57//40 59//40 61//40 63//40 65//40 67//40 69//40 71//40
