# Blender v2.79 (sub 0) OBJ File: 'city_remodeled.blend'
# www.blender.org
mtllib board_6.mtl
o Cylinder.020
v 1.387651 0.046582 1.483149
v 1.387651 0.299653 1.483149
v 1.388242 0.046582 1.483200
v 1.388242 0.299653 1.483200
v 1.388813 0.046582 1.483380
v 1.388813 0.299653 1.483380
v 1.389344 0.046582 1.483682
v 1.389344 0.299653 1.483682
v 1.389812 0.046582 1.484095
v 1.389812 0.299653 1.484095
v 1.390200 0.046582 1.484602
v 1.390200 0.299653 1.484602
v 1.390494 0.046582 1.485184
v 1.390494 0.299653 1.485184
v 1.390682 0.046582 1.485820
v 1.390682 0.299653 1.485820
v 1.390756 0.046582 1.486483
v 1.390756 0.299653 1.486483
v 1.390715 0.046582 1.487150
v 1.390715 0.299653 1.487150
v 1.390558 0.046582 1.487794
v 1.390558 0.299653 1.487794
v 1.390294 0.046582 1.488390
v 1.390294 0.299653 1.488390
v 1.389931 0.046582 1.488916
v 1.389931 0.299653 1.488916
v 1.389483 0.046582 1.489351
v 1.389483 0.299653 1.489351
v 1.388969 0.046582 1.489679
v 1.388969 0.299653 1.489679
v 1.388407 0.046582 1.489887
v 1.388407 0.299653 1.489887
v 1.387819 0.046582 1.489967
v 1.387819 0.299653 1.489967
v 1.387228 0.046582 1.489916
v 1.387228 0.299653 1.489916
v 1.386656 0.046582 1.489736
v 1.386656 0.299653 1.489736
v 1.386126 0.046582 1.489434
v 1.386126 0.299653 1.489434
v 1.385658 0.046582 1.489021
v 1.385658 0.299653 1.489021
v 1.385269 0.046582 1.488514
v 1.385269 0.299653 1.488514
v 1.384976 0.046582 1.487931
v 1.384976 0.299653 1.487931
v 1.384788 0.046582 1.487296
v 1.384788 0.299653 1.487296
v 1.384713 0.046582 1.486632
v 1.384713 0.299653 1.486632
v 1.384755 0.046582 1.485966
v 1.384755 0.299653 1.485966
v 1.384911 0.046582 1.485322
v 1.384911 0.299653 1.485322
v 1.385176 0.046582 1.484726
v 1.385176 0.299653 1.484726
v 1.385539 0.046582 1.484200
v 1.385539 0.299653 1.484200
v 1.385986 0.046582 1.483765
v 1.385986 0.299653 1.483765
v 1.386501 0.046582 1.483437
v 1.386501 0.299653 1.483437
v 1.387063 0.046582 1.483229
v 1.387063 0.299653 1.483229
vn 0.0860 0.0000 -0.9963
vn 0.3003 0.0000 -0.9539
vn 0.4954 0.0000 -0.8687
vn 0.6611 0.0000 -0.7503
vn 0.7940 0.0000 -0.6079
vn 0.8929 0.0000 -0.4502
vn 0.9590 0.0000 -0.2834
vn 0.9938 0.0000 -0.1116
vn 0.9980 0.0000 0.0625
vn 0.9718 0.0000 0.2358
vn 0.9140 0.0000 0.4056
vn 0.8229 0.0000 0.5682
vn 0.6973 0.0000 0.7168
vn 0.5375 0.0000 0.8432
vn 0.3470 0.0000 0.9379
vn 0.1348 0.0000 0.9909
vn -0.0860 0.0000 0.9963
vn -0.3003 0.0000 0.9539
vn -0.4954 0.0000 0.8687
vn -0.6611 0.0000 0.7503
vn -0.7940 0.0000 0.6079
vn -0.8929 0.0000 0.4502
vn -0.9590 0.0000 0.2834
vn -0.9938 0.0000 0.1116
vn -0.9980 0.0000 -0.0625
vn -0.9718 0.0000 -0.2358
vn -0.9140 0.0000 -0.4056
vn -0.8229 0.0000 -0.5682
vn -0.6973 0.0000 -0.7168
vn -0.5375 0.0000 -0.8432
vn 0.0000 1.0000 0.0000
vn -0.3470 0.0000 -0.9379
vn -0.1348 0.0000 -0.9909
vn 0.0000 -1.0000 -0.0000
usemtl None
s off
f 1//1 2//1 4//1 3//1
f 3//2 4//2 6//2 5//2
f 5//3 6//3 8//3 7//3
f 7//4 8//4 10//4 9//4
f 9//5 10//5 12//5 11//5
f 11//6 12//6 14//6 13//6
f 13//7 14//7 16//7 15//7
f 15//8 16//8 18//8 17//8
f 17//9 18//9 20//9 19//9
f 19//10 20//10 22//10 21//10
f 21//11 22//11 24//11 23//11
f 23//12 24//12 26//12 25//12
f 25//13 26//13 28//13 27//13
f 27//14 28//14 30//14 29//14
f 29//15 30//15 32//15 31//15
f 31//16 32//16 34//16 33//16
f 33//17 34//17 36//17 35//17
f 35//18 36//18 38//18 37//18
f 37//19 38//19 40//19 39//19
f 39//20 40//20 42//20 41//20
f 41//21 42//21 44//21 43//21
f 43//22 44//22 46//22 45//22
f 45//23 46//23 48//23 47//23
f 47//24 48//24 50//24 49//24
f 49//25 50//25 52//25 51//25
f 51//26 52//26 54//26 53//26
f 53//27 54//27 56//27 55//27
f 55//28 56//28 58//28 57//28
f 57//29 58//29 60//29 59//29
f 59//30 60//30 62//30 61//30
f 4//31 2//31 64//31 62//31 60//31 58//31 56//31 54//31 52//31 50//31 48//31 46//31 44//31 42//31 40//31 38//31 36//31 34//31 32//31 30//31 28//31 26//31 24//31 22//31 20//31 18//31 16//31 14//31 12//31 10//31 8//31 6//31
f 61//32 62//32 64//32 63//32
f 63//33 64//33 2//33 1//33
f 1//34 3//34 5//34 7//34 9//34 11//34 13//34 15//34 17//34 19//34 21//34 23//34 25//34 27//34 29//34 31//34 33//34 35//34 37//34 39//34 41//34 43//34 45//34 47//34 49//34 51//34 53//34 55//34 57//34 59//34 61//34 63//34
o Cube.020_Cube.021
v 1.389051 0.193533 1.599288
v 1.389051 0.356263 1.599288
v 1.383653 0.193533 1.380294
v 1.383653 0.356263 1.380294
v 1.394479 0.193533 1.599154
v 1.394479 0.356263 1.599154
v 1.389081 0.193533 1.380161
v 1.389081 0.356263 1.380161
vt 0.988964 0.018848
vt 0.987598 0.018848
vt 0.987598 0.017482
vt 0.988964 0.017482
vt 0.987598 0.020214
vt 0.986232 0.020214
vt 0.986232 0.018848
vt 0.987598 0.018848
vt 0.993790 0.008434
vt 0.988962 1.001603
vt -0.004207 0.996774
vt 0.000622 0.003605
vt 0.987598 0.020214
vt 0.987598 0.018848
vt 0.988964 0.018848
vt 0.988964 0.020214
vt 0.990331 0.018848
vt 0.988964 0.018848
vt 0.988964 0.017482
vt 0.990331 0.017482
vt 0.987598 0.020214
vt 0.987598 0.021581
vt 0.986232 0.021581
vt 0.986232 0.020214
vn -0.9997 0.0000 0.0246
vn -0.0246 0.0000 -0.9997
vn 0.9997 0.0000 -0.0246
vn 0.0246 0.0000 0.9997
vn 0.0000 -1.0000 0.0000
vn 0.0000 1.0000 -0.0000
usemtl Material.004
s off
f 65/1/35 66/2/35 68/3/35 67/4/35
f 67/5/36 68/6/36 72/7/36 71/8/36
f 71/9/37 72/10/37 70/11/37 69/12/37
f 69/13/38 70/14/38 66/15/38 65/16/38
f 67/17/39 71/18/39 69/19/39 65/20/39
f 72/21/40 68/22/40 66/23/40 70/24/40
