# Blender v2.79 (sub 0) OBJ File: 'city_remodeled.blend'
# www.blender.org
mtllib board_30.mtl
o Cube.011_Cube.012
v -4.368841 0.187212 -4.712558
v -4.368841 0.331188 -4.712558
v -4.175044 0.187212 -4.715068
v -4.175044 0.331188 -4.715068
v -4.368779 0.187212 -4.707755
v -4.368779 0.331188 -4.707755
v -4.174982 0.187212 -4.710265
v -4.174982 0.331188 -4.710265
vt 0.988964 0.018848
vt 0.987598 0.018848
vt 0.987598 0.017482
vt 0.988964 0.017482
vt 0.987598 0.020214
vt 0.986232 0.020214
vt 0.986232 0.018848
vt 0.987598 0.018848
vt 0.993790 0.008434
vt 0.988962 1.001603
vt -0.004207 0.996774
vt 0.000622 0.003605
vt 0.987598 0.020214
vt 0.987598 0.018848
vt 0.988964 0.018848
vt 0.988964 0.020214
vt 0.990331 0.018848
vt 0.988964 0.018848
vt 0.988964 0.017482
vt 0.990331 0.017482
vt 0.987598 0.020214
vt 0.987598 0.021581
vt 0.986232 0.021581
vt 0.986232 0.020214
vn -0.0129 0.0000 -0.9999
vn 0.9999 0.0000 -0.0129
vn 0.0129 0.0000 0.9999
vn -0.9999 0.0000 0.0129
vn 0.0000 -1.0000 0.0000
vn 0.0000 1.0000 -0.0000
usemtl Material.004
s off
f 1/1/1 2/2/1 4/3/1 3/4/1
f 3/5/2 4/6/2 8/7/2 7/8/2
f 7/9/3 8/10/3 6/11/3 5/12/3
f 5/13/4 6/14/4 2/15/4 1/16/4
f 3/17/5 7/18/5 5/19/5 1/20/5
f 8/21/6 4/22/6 2/23/6 6/24/6
o Cylinder.011
v -4.266079 0.057197 -4.712595
v -4.266079 0.281102 -4.712595
v -4.266130 0.057197 -4.712073
v -4.266130 0.281102 -4.712073
v -4.266296 0.057197 -4.711569
v -4.266296 0.281102 -4.711569
v -4.266569 0.057197 -4.711103
v -4.266569 0.281102 -4.711103
v -4.266939 0.057197 -4.710693
v -4.266939 0.281102 -4.710693
v -4.267391 0.057197 -4.710355
v -4.267391 0.281102 -4.710355
v -4.267910 0.057197 -4.710101
v -4.267910 0.281102 -4.710101
v -4.268474 0.057197 -4.709941
v -4.268474 0.281102 -4.709941
v -4.269062 0.057197 -4.709883
v -4.269062 0.281102 -4.709883
v -4.269651 0.057197 -4.709926
v -4.269651 0.281102 -4.709926
v -4.270219 0.057197 -4.710071
v -4.270219 0.281102 -4.710071
v -4.270744 0.057197 -4.710311
v -4.270744 0.281102 -4.710311
v -4.271205 0.057197 -4.710638
v -4.271205 0.281102 -4.710638
v -4.271585 0.057197 -4.711039
v -4.271585 0.281102 -4.711039
v -4.271871 0.057197 -4.711497
v -4.271871 0.281102 -4.711497
v -4.272048 0.057197 -4.711997
v -4.272048 0.281102 -4.711997
v -4.272113 0.057197 -4.712517
v -4.272113 0.281102 -4.712517
v -4.272062 0.057197 -4.713040
v -4.272062 0.281102 -4.713040
v -4.271897 0.057197 -4.713543
v -4.271897 0.281102 -4.713543
v -4.271624 0.057197 -4.714009
v -4.271624 0.281102 -4.714009
v -4.271254 0.057197 -4.714419
v -4.271254 0.281102 -4.714419
v -4.270802 0.057197 -4.714758
v -4.270802 0.281102 -4.714758
v -4.270283 0.057197 -4.715012
v -4.270283 0.281102 -4.715012
v -4.269719 0.057197 -4.715171
v -4.269719 0.281102 -4.715171
v -4.269131 0.057197 -4.715230
v -4.269131 0.281102 -4.715230
v -4.268542 0.057197 -4.715187
v -4.268542 0.281102 -4.715187
v -4.267974 0.057197 -4.715042
v -4.267974 0.281102 -4.715042
v -4.267449 0.057197 -4.714801
v -4.267449 0.281102 -4.714801
v -4.266987 0.057197 -4.714475
v -4.266987 0.281102 -4.714475
v -4.266607 0.057197 -4.714074
v -4.266607 0.281102 -4.714074
v -4.266322 0.057197 -4.713616
v -4.266322 0.281102 -4.713616
v -4.266144 0.057197 -4.713116
v -4.266144 0.281102 -4.713116
vn 0.9953 0.0000 0.0972
vn 0.9500 0.0000 0.3121
vn 0.8630 0.0000 0.5053
vn 0.7423 0.0000 0.6700
vn 0.5991 0.0000 0.8007
vn 0.4397 0.0000 0.8982
vn 0.2727 0.0000 0.9621
vn 0.0991 0.0000 0.9951
vn -0.0739 0.0000 0.9973
vn -0.2471 0.0000 0.9690
vn -0.4159 0.0000 0.9094
vn -0.5780 0.0000 0.8161
vn -0.7253 0.0000 0.6885
vn -0.8491 0.0000 0.5282
vn -0.9420 0.0000 0.3355
vn -0.9923 0.0000 0.1235
vn -0.9953 0.0000 -0.0972
vn -0.9500 0.0000 -0.3121
vn -0.8630 0.0000 -0.5053
vn -0.7423 0.0000 -0.6700
vn -0.5991 0.0000 -0.8007
vn -0.4389 0.0000 -0.8985
vn -0.2735 0.0000 -0.9619
vn -0.0991 0.0000 -0.9951
vn 0.0739 0.0000 -0.9973
vn 0.2471 0.0000 -0.9690
vn 0.4159 0.0000 -0.9094
vn 0.5780 0.0000 -0.8161
vn 0.7253 0.0000 -0.6885
vn 0.8491 0.0000 -0.5282
vn 0.0000 1.0000 0.0000
vn 0.9422 0.0000 -0.3352
vn 0.9923 0.0000 -0.1236
vn 0.0000 -1.0000 0.0000
usemtl None
s off
f 9//7 10//7 12//7 11//7
f 11//8 12//8 14//8 13//8
f 13//9 14//9 16//9 15//9
f 15//10 16//10 18//10 17//10
f 17//11 18//11 20//11 19//11
f 19//12 20//12 22//12 21//12
f 21//13 22//13 24//13 23//13
f 23//14 24//14 26//14 25//14
f 25//15 26//15 28//15 27//15
f 27//16 28//16 30//16 29//16
f 29//17 30//17 32//17 31//17
f 31//18 32//18 34//18 33//18
f 33//19 34//19 36//19 35//19
f 35//20 36//20 38//20 37//20
f 37//21 38//21 40//21 39//21
f 39//22 40//22 42//22 41//22
f 41//23 42//23 44//23 43//23
f 43//24 44//24 46//24 45//24
f 45//25 46//25 48//25 47//25
f 47//26 48//26 50//26 49//26
f 49//27 50//27 52//27 51//27
f 51//28 52//28 54//28 53//28
f 53//29 54//29 56//29 55//29
f 55//30 56//30 58//30 57//30
f 57//31 58//31 60//31 59//31
f 59//32 60//32 62//32 61//32
f 61//33 62//33 64//33 63//33
f 63//34 64//34 66//34 65//34
f 65//35 66//35 68//35 67//35
f 67//36 68//36 70//36 69//36
f 12//37 10//37 72//37 70//37 68//37 66//37 64//37 62//37 60//37 58//37 56//37 54//37 52//37 50//37 48//37 46//37 44//37 42//37 40//37 38//37 36//37 34//37 32//37 30//37 28//37 26//37 24//37 22//37 20//37 18//37 16//37 14//37
f 69//38 70//38 72//38 71//38
f 71//39 72//39 10//39 9//39
f 9//40 11//40 13//40 15//40 17//40 19//40 21//40 23//40 25//40 27//40 29//40 31//40 33//40 35//40 37//40 39//40 41//40 43//40 45//40 47//40 49//40 51//40 53//40 55//40 57//40 59//40 61//40 63//40 65//40 67//40 69//40 71//40
o Cylinder.008
v -4.251545 0.024101 -6.177163
v -4.251545 0.545761 -6.177163
v -4.251665 0.024101 -6.175946
v -4.251665 0.545761 -6.175946
v -4.252049 0.024101 -6.174772
v -4.252049 0.545761 -6.174772
v -4.252685 0.024101 -6.173687
v -4.252685 0.545761 -6.173687
v -4.253547 0.024101 -6.172731
v -4.253547 0.545761 -6.172731
v -4.254602 0.024101 -6.171943
v -4.254602 0.545761 -6.171943
v -4.255810 0.024101 -6.171351
v -4.255810 0.545761 -6.171351
v -4.257124 0.024101 -6.170979
v -4.257124 0.545761 -6.170979
v -4.258494 0.024101 -6.170842
v -4.258494 0.545761 -6.170842
v -4.259867 0.024101 -6.170944
v -4.259867 0.545761 -6.170944
v -4.261190 0.024101 -6.171281
v -4.261190 0.545761 -6.171281
v -4.262413 0.024101 -6.171842
v -4.262413 0.545761 -6.171842
v -4.263488 0.024101 -6.172602
v -4.263488 0.545761 -6.172602
v -4.264374 0.024101 -6.173535
v -4.264374 0.545761 -6.173535
v -4.265038 0.024101 -6.174603
v -4.265038 0.545761 -6.174603
v -4.265453 0.024101 -6.175767
v -4.265453 0.545761 -6.175767
v -4.265604 0.024101 -6.176980
v -4.265604 0.545761 -6.176980
v -4.265484 0.024101 -6.178197
v -4.265484 0.545761 -6.178197
v -4.265100 0.024101 -6.179371
v -4.265100 0.545761 -6.179371
v -4.264464 0.024101 -6.180457
v -4.264464 0.545761 -6.180457
v -4.263602 0.024101 -6.181412
v -4.263602 0.545761 -6.181412
v -4.262547 0.024101 -6.182200
v -4.262547 0.545761 -6.182200
v -4.261339 0.024101 -6.182792
v -4.261339 0.545761 -6.182792
v -4.260025 0.024101 -6.183164
v -4.260025 0.545761 -6.183164
v -4.258655 0.024101 -6.183301
v -4.258655 0.545761 -6.183301
v -4.257282 0.024101 -6.183199
v -4.257282 0.545761 -6.183199
v -4.255959 0.024101 -6.182862
v -4.255959 0.545761 -6.182862
v -4.254736 0.024101 -6.182302
v -4.254736 0.545761 -6.182302
v -4.253661 0.024101 -6.181541
v -4.253661 0.545761 -6.181541
v -4.252775 0.024101 -6.180608
v -4.252775 0.545761 -6.180608
v -4.252111 0.024101 -6.179540
v -4.252111 0.545761 -6.179540
v -4.251696 0.024101 -6.178376
v -4.251696 0.545761 -6.178376
vn 0.9952 0.0000 0.0975
vn 0.9502 0.0000 0.3115
vn 0.8629 0.0000 0.5053
vn 0.7425 0.0000 0.6698
vn 0.5983 0.0000 0.8013
vn 0.4400 0.0000 0.8980
vn 0.2722 0.0000 0.9622
vn 0.0996 0.0000 0.9950
vn -0.0740 0.0000 0.9973
vn -0.2467 0.0000 0.9691
vn -0.4166 0.0000 0.9091
vn -0.5774 0.0000 0.8164
vn -0.7249 0.0000 0.6889
vn -0.8496 0.0000 0.5274
vn -0.9418 0.0000 0.3362
vn -0.9924 0.0000 0.1232
vn -0.9952 0.0000 -0.0975
vn -0.9502 0.0000 -0.3115
vn -0.8629 0.0000 -0.5053
vn -0.7425 0.0000 -0.6698
vn -0.5983 0.0000 -0.8013
vn -0.4400 0.0000 -0.8980
vn -0.2722 0.0000 -0.9622
vn -0.0996 0.0000 -0.9950
vn 0.0740 0.0000 -0.9973
vn 0.2467 0.0000 -0.9691
vn 0.4166 0.0000 -0.9091
vn 0.5774 0.0000 -0.8164
vn 0.7249 0.0000 -0.6889
vn 0.8496 0.0000 -0.5274
vn 0.0000 1.0000 0.0000
vn 0.9418 0.0000 -0.3362
vn 0.9924 0.0000 -0.1232
vn 0.0000 -1.0000 -0.0000
usemtl None
s off
f 73//41 74//41 76//41 75//41
f 75//42 76//42 78//42 77//42
f 77//43 78//43 80//43 79//43
f 79//44 80//44 82//44 81//44
f 81//45 82//45 84//45 83//45
f 83//46 84//46 86//46 85//46
f 85//47 86//47 88//47 87//47
f 87//48 88//48 90//48 89//48
f 89//49 90//49 92//49 91//49
f 91//50 92//50 94//50 93//50
f 93//51 94//51 96//51 95//51
f 95//52 96//52 98//52 97//52
f 97//53 98//53 100//53 99//53
f 99//54 100//54 102//54 101//54
f 101//55 102//55 104//55 103//55
f 103//56 104//56 106//56 105//56
f 105//57 106//57 108//57 107//57
f 107//58 108//58 110//58 109//58
f 109//59 110//59 112//59 111//59
f 111//60 112//60 114//60 113//60
f 113//61 114//61 116//61 115//61
f 115//62 116//62 118//62 117//62
f 117//63 118//63 120//63 119//63
f 119//64 120//64 122//64 121//64
f 121//65 122//65 124//65 123//65
f 123//66 124//66 126//66 125//66
f 125//67 126//67 128//67 127//67
f 127//68 128//68 130//68 129//68
f 129//69 130//69 132//69 131//69
f 131//70 132//70 134//70 133//70
f 76//71 74//71 136//71 134//71 132//71 130//71 128//71 126//71 124//71 122//71 120//71 118//71 116//71 114//71 112//71 110//71 108//71 106//71 104//71 102//71 100//71 98//71 96//71 94//71 92//71 90//71 88//71 86//71 84//71 82//71 80//71 78//71
f 133//72 134//72 136//72 135//72
f 135//73 136//73 74//73 73//73
f 73//74 75//74 77//74 79//74 81//74 83//74 85//74 87//74 89//74 91//74 93//74 95//74 97//74 99//74 101//74 103//74 105//74 107//74 109//74 111//74 113//74 115//74 117//74 119//74 121//74 123//74 125//74 127//74 129//74 131//74 133//74 135//74
o Cube.008_Cube.009
v -4.490962 0.327013 -6.177076
v -4.490962 0.662451 -6.177076
v -4.039449 0.327013 -6.182923
v -4.039449 0.662451 -6.182923
v -4.490817 0.327013 -6.165885
v -4.490817 0.662451 -6.165885
v -4.039304 0.327013 -6.171732
v -4.039304 0.662451 -6.171732
vt 0.988964 0.018848
vt 0.987598 0.018848
vt 0.987598 0.017482
vt 0.988964 0.017482
vt 0.987598 0.020214
vt 0.986232 0.020214
vt 0.986232 0.018848
vt 0.987598 0.018848
vt 0.993790 0.008434
vt 0.988962 1.001603
vt -0.004207 0.996774
vt 0.000622 0.003605
vt 0.987598 0.020214
vt 0.987598 0.018848
vt 0.988964 0.018848
vt 0.988964 0.020214
vt 0.990331 0.018848
vt 0.988964 0.018848
vt 0.988964 0.017482
vt 0.990331 0.017482
vt 0.987598 0.020214
vt 0.987598 0.021581
vt 0.986232 0.021581
vt 0.986232 0.020214
vn -0.0129 0.0000 -0.9999
vn 0.9999 0.0000 -0.0130
vn 0.0129 0.0000 0.9999
vn -0.9999 0.0000 0.0130
vn 0.0000 -1.0000 0.0000
vn 0.0000 1.0000 -0.0000
usemtl Material.004
s off
f 137/25/75 138/26/75 140/27/75 139/28/75
f 139/29/76 140/30/76 144/31/76 143/32/76
f 143/33/77 144/34/77 142/35/77 141/36/77
f 141/37/78 142/38/78 138/39/78 137/40/78
f 139/41/79 143/42/79 141/43/79 137/44/79
f 144/45/80 140/46/80 138/47/80 142/48/80
