# Blender v2.79 (sub 0) OBJ File: 'city_remodeled.blend'
# www.blender.org
mtllib board_13.mtl
o Cylinder.014
v 1.286435 0.076395 -1.914696
v 1.286435 0.476432 -1.914696
v 1.286343 0.076395 -1.913763
v 1.286343 0.476432 -1.913763
v 1.286048 0.076395 -1.912863
v 1.286048 0.476432 -1.912863
v 1.285561 0.076395 -1.912030
v 1.285561 0.476432 -1.912030
v 1.284900 0.076395 -1.911298
v 1.284900 0.476432 -1.911298
v 1.284091 0.076395 -1.910693
v 1.284091 0.476432 -1.910693
v 1.283164 0.076395 -1.910239
v 1.283164 0.476432 -1.910239
v 1.282157 0.076395 -1.909955
v 1.282157 0.476432 -1.909955
v 1.281106 0.076395 -1.909849
v 1.281106 0.476432 -1.909849
v 1.280053 0.076395 -1.909927
v 1.280053 0.476432 -1.909927
v 1.279039 0.076395 -1.910186
v 1.279039 0.476432 -1.910186
v 1.278101 0.076395 -1.910615
v 1.278101 0.476432 -1.910615
v 1.277277 0.076395 -1.911199
v 1.277277 0.476432 -1.911199
v 1.276597 0.076395 -1.911914
v 1.276597 0.476432 -1.911914
v 1.276088 0.076395 -1.912734
v 1.276088 0.476432 -1.912734
v 1.275770 0.076395 -1.913626
v 1.275770 0.476432 -1.913626
v 1.275654 0.076395 -1.914556
v 1.275654 0.476432 -1.914556
v 1.275746 0.076395 -1.915490
v 1.275746 0.476432 -1.915490
v 1.276041 0.076395 -1.916390
v 1.276041 0.476432 -1.916390
v 1.276528 0.076395 -1.917222
v 1.276528 0.476432 -1.917222
v 1.277189 0.076395 -1.917955
v 1.277189 0.476432 -1.917955
v 1.277998 0.076395 -1.918559
v 1.277998 0.476432 -1.918559
v 1.278924 0.076395 -1.919013
v 1.278924 0.476432 -1.919013
v 1.279932 0.076395 -1.919298
v 1.279932 0.476432 -1.919298
v 1.280982 0.076395 -1.919403
v 1.280982 0.476432 -1.919403
v 1.282035 0.076395 -1.919325
v 1.282035 0.476432 -1.919325
v 1.283050 0.076395 -1.919066
v 1.283050 0.476432 -1.919066
v 1.283988 0.076395 -1.918637
v 1.283988 0.476432 -1.918637
v 1.284812 0.076395 -1.918054
v 1.284812 0.476432 -1.918054
v 1.285492 0.076395 -1.917338
v 1.285492 0.476432 -1.917338
v 1.286001 0.076395 -1.916519
v 1.286001 0.476432 -1.916519
v 1.286319 0.076395 -1.915627
v 1.286319 0.476432 -1.915627
vn 0.9952 0.0000 0.0976
vn 0.9503 0.0000 0.3115
vn 0.8629 0.0000 0.5054
vn 0.7425 0.0000 0.6699
vn 0.5986 0.0000 0.8010
vn 0.4398 0.0000 0.8981
vn 0.2721 0.0000 0.9623
vn 0.0999 0.0000 0.9950
vn -0.0741 0.0000 0.9973
vn -0.2470 0.0000 0.9690
vn -0.4164 0.0000 0.9092
vn -0.5778 0.0000 0.8162
vn -0.7248 0.0000 0.6889
vn -0.8495 0.0000 0.5276
vn -0.9419 0.0000 0.3360
vn -0.9924 0.0000 0.1233
vn -0.9952 0.0000 -0.0976
vn -0.9503 0.0000 -0.3115
vn -0.8629 0.0000 -0.5053
vn -0.7424 0.0000 -0.6700
vn -0.5986 0.0000 -0.8010
vn -0.4399 0.0000 -0.8981
vn -0.2721 0.0000 -0.9623
vn -0.0998 0.0000 -0.9950
vn 0.0741 0.0000 -0.9973
vn 0.2470 0.0000 -0.9690
vn 0.4164 0.0000 -0.9092
vn 0.5777 0.0000 -0.8163
vn 0.7249 0.0000 -0.6888
vn 0.8495 0.0000 -0.5276
vn 0.0000 1.0000 -0.0000
vn 0.9419 0.0000 -0.3360
vn 0.9924 0.0000 -0.1233
vn 0.0000 -1.0000 -0.0000
usemtl None
s off
f 1//1 2//1 4//1 3//1
f 3//2 4//2 6//2 5//2
f 5//3 6//3 8//3 7//3
f 7//4 8//4 10//4 9//4
f 9//5 10//5 12//5 11//5
f 11//6 12//6 14//6 13//6
f 13//7 14//7 16//7 15//7
f 15//8 16//8 18//8 17//8
f 17//9 18//9 20//9 19//9
f 19//10 20//10 22//10 21//10
f 21//11 22//11 24//11 23//11
f 23//12 24//12 26//12 25//12
f 25//13 26//13 28//13 27//13
f 27//14 28//14 30//14 29//14
f 29//15 30//15 32//15 31//15
f 31//16 32//16 34//16 33//16
f 33//17 34//17 36//17 35//17
f 35//18 36//18 38//18 37//18
f 37//19 38//19 40//19 39//19
f 39//20 40//20 42//20 41//20
f 41//21 42//21 44//21 43//21
f 43//22 44//22 46//22 45//22
f 45//23 46//23 48//23 47//23
f 47//24 48//24 50//24 49//24
f 49//25 50//25 52//25 51//25
f 51//26 52//26 54//26 53//26
f 53//27 54//27 56//27 55//27
f 55//28 56//28 58//28 57//28
f 57//29 58//29 60//29 59//29
f 59//30 60//30 62//30 61//30
f 4//31 2//31 64//31 62//31 60//31 58//31 56//31 54//31 52//31 50//31 48//31 46//31 44//31 42//31 40//31 38//31 36//31 34//31 32//31 30//31 28//31 26//31 24//31 22//31 20//31 18//31 16//31 14//31 12//31 10//31 8//31 6//31
f 61//32 62//32 64//32 63//32
f 63//33 64//33 2//33 1//33
f 1//34 3//34 5//34 7//34 9//34 11//34 13//34 15//34 17//34 19//34 21//34 23//34 25//34 27//34 29//34 31//34 33//34 35//34 37//34 39//34 41//34 43//34 45//34 47//34 49//34 51//34 53//34 55//34 57//34 59//34 61//34 63//34
o Cube.014_Cube.015
v 1.102837 0.308684 -1.914630
v 1.102837 0.565917 -1.914630
v 1.449082 0.308684 -1.919113
v 1.449082 0.565917 -1.919113
v 1.102948 0.308684 -1.906048
v 1.102948 0.565917 -1.906048
v 1.449193 0.308684 -1.910532
v 1.449193 0.565917 -1.910532
vt 0.988964 0.018848
vt 0.987598 0.018848
vt 0.987598 0.017482
vt 0.988964 0.017482
vt 0.987598 0.020214
vt 0.986232 0.020214
vt 0.986232 0.018848
vt 0.987598 0.018848
vt 0.993790 0.008434
vt 0.988962 1.001603
vt -0.004207 0.996774
vt 0.000622 0.003605
vt 0.987598 0.020214
vt 0.987598 0.018848
vt 0.988964 0.018848
vt 0.988964 0.020214
vt 0.990331 0.018848
vt 0.988964 0.018848
vt 0.988964 0.017482
vt 0.990331 0.017482
vt 0.987598 0.020214
vt 0.987598 0.021581
vt 0.986232 0.021581
vt 0.986232 0.020214
vn -0.0129 0.0000 -0.9999
vn 0.9999 0.0000 -0.0129
vn 0.0129 0.0000 0.9999
vn -0.9999 0.0000 0.0129
vn 0.0000 -1.0000 0.0000
vn 0.0000 1.0000 -0.0000
usemtl Material.004
s off
f 65/1/35 66/2/35 68/3/35 67/4/35
f 67/5/36 68/6/36 72/7/36 71/8/36
f 71/9/37 72/10/37 70/11/37 69/12/37
f 69/13/38 70/14/38 66/15/38 65/16/38
f 67/17/39 71/18/39 69/19/39 65/20/39
f 72/21/40 68/22/40 66/23/40 70/24/40
