# Blender v2.79 (sub 0) OBJ File: 'city_remodeled.blend'
# www.blender.org
mtllib board_15.mtl
o Cylinder.033
v -5.233371 0.047623 -3.292763
v -5.233371 0.488699 -3.292763
v -5.233223 0.047623 -3.293786
v -5.233223 0.488699 -3.293786
v -5.232853 0.047623 -3.294763
v -5.232853 0.488699 -3.294763
v -5.232274 0.047623 -3.295655
v -5.232274 0.488699 -3.295655
v -5.231509 0.047623 -3.296429
v -5.231509 0.488699 -3.296429
v -5.230587 0.047623 -3.297054
v -5.230587 0.488699 -3.297054
v -5.229545 0.047623 -3.297507
v -5.229545 0.488699 -3.297507
v -5.228420 0.047623 -3.297770
v -5.228420 0.488699 -3.297770
v -5.227258 0.047623 -3.297833
v -5.227258 0.488699 -3.297833
v -5.226102 0.047623 -3.297694
v -5.226102 0.488699 -3.297694
v -5.224998 0.047623 -3.297358
v -5.224998 0.488699 -3.297358
v -5.223987 0.047623 -3.296838
v -5.223987 0.488699 -3.296838
v -5.223108 0.047623 -3.296154
v -5.223108 0.488699 -3.296154
v -5.222395 0.047623 -3.295332
v -5.222395 0.488699 -3.295332
v -5.221876 0.047623 -3.294404
v -5.221876 0.488699 -3.294404
v -5.221570 0.047623 -3.293405
v -5.221570 0.488699 -3.293405
v -5.221490 0.047623 -3.292374
v -5.221490 0.488699 -3.292374
v -5.221638 0.047623 -3.291351
v -5.221638 0.488699 -3.291351
v -5.222008 0.047623 -3.290374
v -5.222008 0.488699 -3.290374
v -5.222587 0.047623 -3.289482
v -5.222587 0.488699 -3.289482
v -5.223351 0.047623 -3.288708
v -5.223351 0.488699 -3.288708
v -5.224273 0.047623 -3.288083
v -5.224273 0.488699 -3.288083
v -5.225316 0.047623 -3.287630
v -5.225316 0.488699 -3.287630
v -5.226440 0.047623 -3.287367
v -5.226440 0.488699 -3.287367
v -5.227603 0.047623 -3.287304
v -5.227603 0.488699 -3.287304
v -5.228758 0.047623 -3.287443
v -5.228758 0.488699 -3.287443
v -5.229863 0.047623 -3.287779
v -5.229863 0.488699 -3.287779
v -5.230874 0.047623 -3.288299
v -5.230874 0.488699 -3.288299
v -5.231753 0.047623 -3.288983
v -5.231753 0.488699 -3.288983
v -5.232466 0.047623 -3.289805
v -5.232466 0.488699 -3.289805
v -5.232985 0.047623 -3.290733
v -5.232985 0.488699 -3.290733
v -5.233290 0.047623 -3.291732
v -5.233290 0.488699 -3.291732
vn -0.9897 0.0000 -0.1430
vn -0.9351 0.0000 -0.3543
vn -0.8389 0.0000 -0.5443
vn -0.7111 0.0000 -0.7031
vn -0.5615 0.0000 -0.8275
vn -0.3982 0.0000 -0.9173
vn -0.2280 0.0000 -0.9737
vn -0.0543 0.0000 -0.9985
vn 0.1193 0.0000 -0.9929
vn 0.2911 0.0000 -0.9567
vn 0.4576 0.0000 -0.8892
vn 0.6142 0.0000 -0.7891
vn 0.7555 0.0000 -0.6551
vn 0.8729 0.0000 -0.4879
vn 0.9562 0.0000 -0.2927
vn 0.9970 0.0000 -0.0779
vn 0.9897 0.0000 0.1430
vn 0.9351 0.0000 0.3543
vn 0.8389 0.0000 0.5443
vn 0.7112 0.0000 0.7030
vn 0.5615 0.0000 0.8275
vn 0.3982 0.0000 0.9173
vn 0.2280 0.0000 0.9737
vn 0.0541 0.0000 0.9985
vn -0.1194 0.0000 0.9928
vn -0.2911 0.0000 0.9567
vn -0.4576 0.0000 0.8892
vn -0.6141 0.0000 0.7892
vn -0.7555 0.0000 0.6551
vn -0.8729 0.0000 0.4879
vn 0.0000 1.0000 -0.0000
vn -0.9562 0.0000 0.2926
vn -0.9970 0.0000 0.0779
vn 0.0000 -1.0000 -0.0000
usemtl None
s off
f 1//1 2//1 4//1 3//1
f 3//2 4//2 6//2 5//2
f 5//3 6//3 8//3 7//3
f 7//4 8//4 10//4 9//4
f 9//5 10//5 12//5 11//5
f 11//6 12//6 14//6 13//6
f 13//7 14//7 16//7 15//7
f 15//8 16//8 18//8 17//8
f 17//9 18//9 20//9 19//9
f 19//10 20//10 22//10 21//10
f 21//11 22//11 24//11 23//11
f 23//12 24//12 26//12 25//12
f 25//13 26//13 28//13 27//13
f 27//14 28//14 30//14 29//14
f 29//15 30//15 32//15 31//15
f 31//16 32//16 34//16 33//16
f 33//17 34//17 36//17 35//17
f 35//18 36//18 38//18 37//18
f 37//19 38//19 40//19 39//19
f 39//20 40//20 42//20 41//20
f 41//21 42//21 44//21 43//21
f 43//22 44//22 46//22 45//22
f 45//23 46//23 48//23 47//23
f 47//24 48//24 50//24 49//24
f 49//25 50//25 52//25 51//25
f 51//26 52//26 54//26 53//26
f 53//27 54//27 56//27 55//27
f 55//28 56//28 58//28 57//28
f 57//29 58//29 60//29 59//29
f 59//30 60//30 62//30 61//30
f 4//31 2//31 64//31 62//31 60//31 58//31 56//31 54//31 52//31 50//31 48//31 46//31 44//31 42//31 40//31 38//31 36//31 34//31 32//31 30//31 28//31 26//31 24//31 22//31 20//31 18//31 16//31 14//31 12//31 10//31 8//31 6//31
f 61//32 62//32 64//32 63//32
f 63//33 64//33 2//33 1//33
f 1//34 3//34 5//34 7//34 9//34 11//34 13//34 15//34 17//34 19//34 21//34 23//34 25//34 27//34 29//34 31//34 33//34 35//34 37//34 39//34 41//34 43//34 45//34 47//34 49//34 51//34 53//34 55//34 57//34 59//34 61//34 63//34
o Cube.033_Cube.000
v -5.031148 0.303742 -3.283592
v -5.031148 0.587363 -3.283592
v -5.412740 0.303742 -3.296086
v -5.412740 0.587363 -3.296086
v -5.030838 0.303742 -3.293050
v -5.030838 0.587363 -3.293050
v -5.412431 0.303742 -3.305544
v -5.412431 0.587363 -3.305544
vt 0.988964 0.018848
vt 0.987598 0.018848
vt 0.987598 0.017482
vt 0.988964 0.017482
vt 0.987598 0.020214
vt 0.986232 0.020214
vt 0.986232 0.018848
vt 0.987598 0.018848
vt 0.993790 0.008434
vt 0.988962 1.001603
vt -0.004207 0.996774
vt 0.000622 0.003605
vt 0.987598 0.020214
vt 0.987598 0.018848
vt 0.988964 0.018848
vt 0.988964 0.020214
vt 0.990331 0.018848
vt 0.988964 0.018848
vt 0.988964 0.017482
vt 0.990331 0.017482
vt 0.987598 0.020214
vt 0.987598 0.021581
vt 0.986232 0.021581
vt 0.986232 0.020214
vn -0.0327 0.0000 0.9995
vn -0.9995 0.0000 -0.0327
vn 0.0327 0.0000 -0.9995
vn 0.9995 0.0000 0.0327
vn 0.0000 -1.0000 0.0000
vn 0.0000 1.0000 -0.0000
usemtl Material.004
s off
f 65/1/35 66/2/35 68/3/35 67/4/35
f 67/5/36 68/6/36 72/7/36 71/8/36
f 71/9/37 72/10/37 70/11/37 69/12/37
f 69/13/38 70/14/38 66/15/38 65/16/38
f 67/17/39 71/18/39 69/19/39 65/20/39
f 72/21/40 68/22/40 66/23/40 70/24/40
