# Blender v2.79 (sub 0) OBJ File: 'city_remodeled.blend'
# www.blender.org
mtllib board_19.mtl
o Cube.024_Cube.025
v -2.137826 0.181483 -3.940109
v -2.137826 0.281323 -3.940109
v -2.137802 0.181483 -3.805709
v -2.137802 0.281323 -3.805709
v -2.141157 0.181483 -3.940108
v -2.141157 0.281323 -3.940108
v -2.141133 0.181483 -3.805709
v -2.141133 0.281323 -3.805709
vt 0.988964 0.018848
vt 0.987598 0.018848
vt 0.987598 0.017482
vt 0.988964 0.017482
vt 0.987598 0.020214
vt 0.986232 0.020214
vt 0.986232 0.018848
vt 0.987598 0.018848
vt 0.993790 0.008434
vt 0.988962 1.001603
vt -0.004207 0.996774
vt 0.000622 0.003605
vt 0.987598 0.020214
vt 0.987598 0.018848
vt 0.988964 0.018848
vt 0.988964 0.020214
vt 0.990331 0.018848
vt 0.988964 0.018848
vt 0.988964 0.017482
vt 0.990331 0.017482
vt 0.987598 0.020214
vt 0.987598 0.021581
vt 0.986232 0.021581
vt 0.986232 0.020214
vn 1.0000 0.0000 -0.0002
vn 0.0002 0.0000 1.0000
vn -1.0000 0.0000 0.0002
vn -0.0002 0.0000 -1.0000
vn 0.0000 -1.0000 0.0000
vn 0.0000 1.0000 0.0000
usemtl Material.004
s off
f 1/1/1 2/2/1 4/3/1 3/4/1
f 3/5/2 4/6/2 8/7/2 7/8/2
f 7/9/3 8/10/3 6/11/3 5/12/3
f 5/13/4 6/14/4 2/15/4 1/16/4
f 3/17/5 7/18/5 5/19/5 1/20/5
f 8/21/6 4/22/6 2/23/6 6/24/6
o Cylinder.024
v -2.138710 0.091324 -3.868855
v -2.138710 0.246591 -3.868855
v -2.139072 0.091324 -3.868895
v -2.139072 0.246591 -3.868895
v -2.139420 0.091324 -3.869014
v -2.139420 0.246591 -3.869014
v -2.139741 0.091324 -3.869207
v -2.139741 0.246591 -3.869207
v -2.140022 0.091324 -3.869467
v -2.140022 0.246591 -3.869467
v -2.140252 0.091324 -3.869784
v -2.140252 0.246591 -3.869784
v -2.140424 0.091324 -3.870146
v -2.140424 0.246591 -3.870146
v -2.140529 0.091324 -3.870539
v -2.140529 0.246591 -3.870539
v -2.140565 0.091324 -3.870947
v -2.140565 0.246591 -3.870947
v -2.140529 0.091324 -3.871355
v -2.140529 0.246591 -3.871355
v -2.140424 0.091324 -3.871747
v -2.140424 0.246591 -3.871747
v -2.140253 0.091324 -3.872109
v -2.140253 0.246591 -3.872109
v -2.140022 0.091324 -3.872426
v -2.140022 0.246591 -3.872426
v -2.139741 0.091324 -3.872687
v -2.139741 0.246591 -3.872687
v -2.139421 0.091324 -3.872880
v -2.139421 0.246591 -3.872880
v -2.139073 0.091324 -3.872999
v -2.139073 0.246591 -3.872999
v -2.138711 0.091324 -3.873039
v -2.138711 0.246591 -3.873039
v -2.138349 0.091324 -3.872999
v -2.138349 0.246591 -3.872999
v -2.138001 0.091324 -3.872880
v -2.138001 0.246591 -3.872880
v -2.137681 0.091324 -3.872687
v -2.137681 0.246591 -3.872687
v -2.137400 0.091324 -3.872427
v -2.137400 0.246591 -3.872427
v -2.137169 0.091324 -3.872110
v -2.137169 0.246591 -3.872110
v -2.136998 0.091324 -3.871748
v -2.136998 0.246591 -3.871748
v -2.136892 0.091324 -3.871356
v -2.136892 0.246591 -3.871356
v -2.136857 0.091324 -3.870947
v -2.136857 0.246591 -3.870947
v -2.136892 0.091324 -3.870539
v -2.136892 0.246591 -3.870539
v -2.136997 0.091324 -3.870147
v -2.136997 0.246591 -3.870147
v -2.137169 0.091324 -3.869785
v -2.137169 0.246591 -3.869785
v -2.137399 0.091324 -3.869468
v -2.137399 0.246591 -3.869468
v -2.137680 0.091324 -3.869208
v -2.137680 0.246591 -3.869208
v -2.138001 0.091324 -3.869014
v -2.138001 0.246591 -3.869014
v -2.138349 0.091324 -3.868895
v -2.138349 0.246591 -3.868895
vn -0.1107 0.0000 0.9939
vn -0.3237 0.0000 0.9462
vn -0.5159 0.0000 0.8567
vn -0.6797 0.0000 0.7335
vn -0.8085 0.0000 0.5885
vn -0.9036 0.0000 0.4284
vn -0.9657 0.0000 0.2597
vn -0.9962 0.0000 0.0867
vn -0.9962 0.0000 -0.0867
vn -0.9658 0.0000 -0.2594
vn -0.9040 0.0000 -0.4275
vn -0.8088 0.0000 -0.5881
vn -0.6794 0.0000 -0.7338
vn -0.5169 0.0000 -0.8561
vn -0.3237 0.0000 -0.9462
vn -0.1108 0.0000 -0.9938
vn 0.1107 0.0000 -0.9939
vn 0.3237 0.0000 -0.9462
vn 0.5159 0.0000 -0.8567
vn 0.6797 0.0000 -0.7335
vn 0.8085 0.0000 -0.5885
vn 0.9036 0.0000 -0.4284
vn 0.9657 0.0000 -0.2597
vn 0.9962 0.0000 -0.0867
vn 0.9962 0.0000 0.0867
vn 0.9658 0.0000 0.2594
vn 0.9040 0.0000 0.4275
vn 0.8088 0.0000 0.5881
vn 0.6794 0.0000 0.7338
vn 0.5161 0.0000 0.8565
vn 0.0000 1.0000 0.0000
vn 0.3246 0.0000 0.9458
vn 0.1108 0.0000 0.9938
vn 0.0000 -1.0000 0.0000
usemtl None
s off
f 9//7 10//7 12//7 11//7
f 11//8 12//8 14//8 13//8
f 13//9 14//9 16//9 15//9
f 15//10 16//10 18//10 17//10
f 17//11 18//11 20//11 19//11
f 19//12 20//12 22//12 21//12
f 21//13 22//13 24//13 23//13
f 23//14 24//14 26//14 25//14
f 25//15 26//15 28//15 27//15
f 27//16 28//16 30//16 29//16
f 29//17 30//17 32//17 31//17
f 31//18 32//18 34//18 33//18
f 33//19 34//19 36//19 35//19
f 35//20 36//20 38//20 37//20
f 37//21 38//21 40//21 39//21
f 39//22 40//22 42//22 41//22
f 41//23 42//23 44//23 43//23
f 43//24 44//24 46//24 45//24
f 45//25 46//25 48//25 47//25
f 47//26 48//26 50//26 49//26
f 49//27 50//27 52//27 51//27
f 51//28 52//28 54//28 53//28
f 53//29 54//29 56//29 55//29
f 55//30 56//30 58//30 57//30
f 57//31 58//31 60//31 59//31
f 59//32 60//32 62//32 61//32
f 61//33 62//33 64//33 63//33
f 63//34 64//34 66//34 65//34
f 65//35 66//35 68//35 67//35
f 67//36 68//36 70//36 69//36
f 12//37 10//37 72//37 70//37 68//37 66//37 64//37 62//37 60//37 58//37 56//37 54//37 52//37 50//37 48//37 46//37 44//37 42//37 40//37 38//37 36//37 34//37 32//37 30//37 28//37 26//37 24//37 22//37 20//37 18//37 16//37 14//37
f 69//38 70//38 72//38 71//38
f 71//39 72//39 10//39 9//39
f 9//40 11//40 13//40 15//40 17//40 19//40 21//40 23//40 25//40 27//40 29//40 31//40 33//40 35//40 37//40 39//40 41//40 43//40 45//40 47//40 49//40 51//40 53//40 55//40 57//40 59//40 61//40 63//40 65//40 67//40 69//40 71//40
