# Blender v2.79 (sub 0) OBJ File: 'city_remodeled.blend'
# www.blender.org
mtllib board_9.mtl
o Cube.017_Cube.018
v -4.971179 0.351182 -0.173417
v -4.971179 0.608414 -0.173417
v -4.625000 0.351182 -0.181531
v -4.625000 0.608414 -0.181531
v -4.970977 0.351182 -0.164837
v -4.970977 0.608414 -0.164837
v -4.624798 0.351182 -0.172951
v -4.624798 0.608414 -0.172951
vt 0.988964 0.018848
vt 0.987598 0.018848
vt 0.987598 0.017482
vt 0.988964 0.017482
vt 0.987598 0.020214
vt 0.986232 0.020214
vt 0.986232 0.018848
vt 0.987598 0.018848
vt 0.993790 0.008434
vt 0.988962 1.001603
vt -0.004207 0.996774
vt 0.000622 0.003605
vt 0.987598 0.020214
vt 0.987598 0.018848
vt 0.988964 0.018848
vt 0.988964 0.020214
vt 0.990331 0.018848
vt 0.988964 0.018848
vt 0.988964 0.017482
vt 0.990331 0.017482
vt 0.987598 0.020214
vt 0.987598 0.021581
vt 0.986232 0.021581
vt 0.986232 0.020214
vn -0.0234 0.0000 -0.9997
vn 0.9997 0.0000 -0.0234
vn 0.0234 0.0000 0.9997
vn -0.9997 0.0000 0.0234
vn 0.0000 -1.0000 -0.0000
vn 0.0000 1.0000 -0.0000
usemtl Material.004
s off
f 1/1/1 2/2/1 4/3/1 3/4/1
f 3/5/2 4/6/2 8/7/2 7/8/2
f 7/9/3 8/10/3 6/11/3 5/12/3
f 5/13/4 6/14/4 2/15/4 1/16/4
f 3/17/5 7/18/5 5/19/5 1/20/5
f 8/21/6 4/22/6 2/23/6 6/24/6
o Cylinder.017
v -4.787591 0.118892 -0.175408
v -4.787591 0.518930 -0.175408
v -4.787673 0.118892 -0.174474
v -4.787673 0.518930 -0.174474
v -4.787958 0.118892 -0.173571
v -4.787958 0.518930 -0.173571
v -4.788437 0.118892 -0.172733
v -4.788437 0.518930 -0.172733
v -4.789090 0.118892 -0.171994
v -4.789090 0.518930 -0.171994
v -4.789893 0.118892 -0.171381
v -4.789893 0.518930 -0.171381
v -4.790814 0.118892 -0.170918
v -4.790814 0.518930 -0.170918
v -4.791819 0.118892 -0.170622
v -4.791819 0.518930 -0.170622
v -4.792868 0.118892 -0.170506
v -4.792868 0.518930 -0.170506
v -4.793922 0.118892 -0.170573
v -4.793922 0.518930 -0.170573
v -4.794939 0.118892 -0.170821
v -4.794939 0.518930 -0.170821
v -4.795881 0.118892 -0.171240
v -4.795881 0.518930 -0.171240
v -4.796712 0.118892 -0.171815
v -4.796712 0.518930 -0.171815
v -4.797399 0.118892 -0.172523
v -4.797399 0.518930 -0.172523
v -4.797916 0.118892 -0.173337
v -4.797916 0.518930 -0.173337
v -4.798244 0.118892 -0.174226
v -4.798244 0.518930 -0.174226
v -4.798369 0.118892 -0.175156
v -4.798369 0.518930 -0.175156
v -4.798288 0.118892 -0.176090
v -4.798288 0.518930 -0.176090
v -4.798002 0.118892 -0.176993
v -4.798002 0.518930 -0.176993
v -4.797523 0.118892 -0.177830
v -4.797523 0.518930 -0.177830
v -4.796870 0.118892 -0.178570
v -4.796870 0.518930 -0.178570
v -4.796067 0.118892 -0.179183
v -4.796067 0.518930 -0.179183
v -4.795146 0.118892 -0.179646
v -4.795146 0.518930 -0.179646
v -4.794141 0.118892 -0.179942
v -4.794141 0.518930 -0.179942
v -4.793092 0.118892 -0.180058
v -4.793092 0.518930 -0.180058
v -4.792038 0.118892 -0.179991
v -4.792038 0.518930 -0.179991
v -4.791021 0.118892 -0.179743
v -4.791021 0.518930 -0.179743
v -4.790079 0.118892 -0.179323
v -4.790079 0.518930 -0.179323
v -4.789248 0.118892 -0.178749
v -4.789248 0.518930 -0.178749
v -4.788561 0.118892 -0.178040
v -4.788561 0.518930 -0.178040
v -4.788044 0.118892 -0.177226
v -4.788044 0.518930 -0.177226
v -4.787716 0.118892 -0.176338
v -4.787716 0.518930 -0.176338
vn 0.9962 0.0000 0.0870
vn 0.9535 0.0000 0.3015
vn 0.8681 0.0000 0.4963
vn 0.7494 0.0000 0.6621
vn 0.6069 0.0000 0.7948
vn 0.4492 0.0000 0.8934
vn 0.2822 0.0000 0.9594
vn 0.1103 0.0000 0.9939
vn -0.0636 0.0000 0.9980
vn -0.2370 0.0000 0.9715
vn -0.4067 0.0000 0.9135
vn -0.5691 0.0000 0.8223
vn -0.7176 0.0000 0.6964
vn -0.8440 0.0000 0.5364
vn -0.9383 0.0000 0.3458
vn -0.9910 0.0000 0.1337
vn -0.9962 0.0000 -0.0869
vn -0.9535 0.0000 -0.3015
vn -0.8681 0.0000 -0.4963
vn -0.7494 0.0000 -0.6621
vn -0.6069 0.0000 -0.7948
vn -0.4492 0.0000 -0.8934
vn -0.2822 0.0000 -0.9594
vn -0.1103 0.0000 -0.9939
vn 0.0636 0.0000 -0.9980
vn 0.2370 0.0000 -0.9715
vn 0.4068 0.0000 -0.9135
vn 0.5691 0.0000 -0.8223
vn 0.7176 0.0000 -0.6964
vn 0.8440 0.0000 -0.5364
vn 0.0000 1.0000 0.0000
vn 0.9383 0.0000 -0.3458
vn 0.9910 0.0000 -0.1337
vn 0.0000 -1.0000 -0.0000
usemtl None
s off
f 9//7 10//7 12//7 11//7
f 11//8 12//8 14//8 13//8
f 13//9 14//9 16//9 15//9
f 15//10 16//10 18//10 17//10
f 17//11 18//11 20//11 19//11
f 19//12 20//12 22//12 21//12
f 21//13 22//13 24//13 23//13
f 23//14 24//14 26//14 25//14
f 25//15 26//15 28//15 27//15
f 27//16 28//16 30//16 29//16
f 29//17 30//17 32//17 31//17
f 31//18 32//18 34//18 33//18
f 33//19 34//19 36//19 35//19
f 35//20 36//20 38//20 37//20
f 37//21 38//21 40//21 39//21
f 39//22 40//22 42//22 41//22
f 41//23 42//23 44//23 43//23
f 43//24 44//24 46//24 45//24
f 45//25 46//25 48//25 47//25
f 47//26 48//26 50//26 49//26
f 49//27 50//27 52//27 51//27
f 51//28 52//28 54//28 53//28
f 53//29 54//29 56//29 55//29
f 55//30 56//30 58//30 57//30
f 57//31 58//31 60//31 59//31
f 59//32 60//32 62//32 61//32
f 61//33 62//33 64//33 63//33
f 63//34 64//34 66//34 65//34
f 65//35 66//35 68//35 67//35
f 67//36 68//36 70//36 69//36
f 12//37 10//37 72//37 70//37 68//37 66//37 64//37 62//37 60//37 58//37 56//37 54//37 52//37 50//37 48//37 46//37 44//37 42//37 40//37 38//37 36//37 34//37 32//37 30//37 28//37 26//37 24//37 22//37 20//37 18//37 16//37 14//37
f 69//38 70//38 72//38 71//38
f 71//39 72//39 10//39 9//39
f 9//40 11//40 13//40 15//40 17//40 19//40 21//40 23//40 25//40 27//40 29//40 31//40 33//40 35//40 37//40 39//40 41//40 43//40 45//40 47//40 49//40 51//40 53//40 55//40 57//40 59//40 61//40 63//40 65//40 67//40 69//40 71//40
