# Blender v2.79 (sub 0) OBJ File: 'city_remodeled.blend'
# www.blender.org
mtllib board_12.mtl
o Cube.003_Cube.004
v 3.757251 0.509560 -2.506101
v 3.757251 0.840554 -2.506101
v 3.312226 0.509560 -2.484110
v 3.312226 0.840554 -2.484110
v 3.756706 0.509560 -2.517131
v 3.756706 0.840554 -2.517131
v 3.311681 0.509560 -2.495140
v 3.311681 0.840554 -2.495140
vt 0.988964 0.018848
vt 0.987598 0.018848
vt 0.987598 0.017482
vt 0.988964 0.017482
vt 0.987598 0.020214
vt 0.986232 0.020214
vt 0.986232 0.018848
vt 0.987598 0.018848
vt 0.993790 0.008434
vt 0.988962 1.001603
vt -0.004207 0.996774
vt 0.000622 0.003605
vt 0.987598 0.020214
vt 0.987598 0.018848
vt 0.988964 0.018848
vt 0.988964 0.020214
vt 0.990331 0.018848
vt 0.988964 0.018848
vt 0.988964 0.017482
vt 0.990331 0.017482
vt 0.987598 0.020214
vt 0.987598 0.021581
vt 0.986232 0.021581
vt 0.986232 0.020214
vn 0.0494 0.0000 0.9988
vn -0.9988 0.0000 0.0494
vn -0.0494 0.0000 -0.9988
vn 0.9988 0.0000 -0.0494
vn 0.0000 -1.0000 0.0000
vn 0.0000 1.0000 0.0000
usemtl Material.004
s off
f 1/1/1 2/2/1 4/3/1 3/4/1
f 3/5/2 4/6/2 8/7/2 7/8/2
f 7/9/3 8/10/3 6/11/3 5/12/3
f 5/13/4 6/14/4 2/15/4 1/16/4
f 3/17/5 7/18/5 5/19/5 1/20/5
f 8/21/6 4/22/6 2/23/6 6/24/6
o Cylinder.003
v 3.519202 0.137224 -2.496938
v 3.519202 0.727989 -2.496938
v 3.519286 0.137224 -2.498320
v 3.519286 0.727989 -2.498320
v 3.519674 0.137224 -2.499664
v 3.519674 0.727989 -2.499664
v 3.520348 0.137224 -2.500919
v 3.520348 0.727989 -2.500919
v 3.521284 0.137224 -2.502035
v 3.521284 0.727989 -2.502035
v 3.522446 0.137224 -2.502971
v 3.522446 0.727989 -2.502971
v 3.523788 0.137224 -2.503690
v 3.523788 0.727989 -2.503690
v 3.525260 0.137224 -2.504165
v 3.525260 0.727989 -2.504165
v 3.526804 0.137224 -2.504377
v 3.526804 0.727989 -2.504377
v 3.528363 0.137224 -2.504318
v 3.528363 0.727989 -2.504318
v 3.529874 0.137224 -2.503991
v 3.529874 0.727989 -2.503991
v 3.531281 0.137224 -2.503408
v 3.531281 0.727989 -2.503408
v 3.532529 0.137224 -2.502591
v 3.532529 0.727989 -2.502591
v 3.533571 0.137224 -2.501572
v 3.533571 0.727989 -2.501572
v 3.534365 0.137224 -2.500390
v 3.534365 0.727989 -2.500390
v 3.534883 0.137224 -2.499090
v 3.534883 0.727989 -2.499090
v 3.535104 0.137224 -2.497723
v 3.535104 0.727989 -2.497723
v 3.535019 0.137224 -2.496341
v 3.535019 0.727989 -2.496341
v 3.534632 0.137224 -2.494997
v 3.534632 0.727989 -2.494997
v 3.533957 0.137224 -2.493742
v 3.533957 0.727989 -2.493742
v 3.533021 0.137224 -2.492625
v 3.533021 0.727989 -2.492625
v 3.531860 0.137224 -2.491690
v 3.531860 0.727989 -2.491690
v 3.530517 0.137224 -2.490971
v 3.530517 0.727989 -2.490971
v 3.529046 0.137224 -2.490496
v 3.529046 0.727989 -2.490496
v 3.527501 0.137224 -2.490284
v 3.527501 0.727989 -2.490284
v 3.525943 0.137224 -2.490342
v 3.525943 0.727989 -2.490342
v 3.524432 0.137224 -2.490670
v 3.524432 0.727989 -2.490670
v 3.523025 0.137224 -2.491253
v 3.523025 0.727989 -2.491253
v 3.521777 0.137224 -2.492070
v 3.521777 0.727989 -2.492070
v 3.520735 0.137224 -2.493089
v 3.520735 0.727989 -2.493089
v 3.519940 0.137224 -2.494271
v 3.519940 0.727989 -2.494271
v 3.519422 0.137224 -2.495570
v 3.519422 0.727989 -2.495570
vn -0.9981 0.0000 -0.0613
vn -0.9609 0.0000 -0.2768
vn -0.8808 0.0000 -0.4735
vn -0.7664 0.0000 -0.6424
vn -0.6273 0.0000 -0.7788
vn -0.4722 0.0000 -0.8815
vn -0.3071 0.0000 -0.9517
vn -0.1359 0.0000 -0.9907
vn 0.0377 0.0000 -0.9993
vn 0.2117 0.0000 -0.9773
vn 0.3830 0.0000 -0.9237
vn 0.5475 0.0000 -0.8368
vn 0.6993 0.0000 -0.7148
vn 0.8298 0.0000 -0.5580
vn 0.9290 0.0000 -0.3702
vn 0.9872 0.0000 -0.1594
vn 0.9981 0.0000 0.0613
vn 0.9609 0.0000 0.2768
vn 0.8808 0.0000 0.4735
vn 0.7664 0.0000 0.6423
vn 0.6273 0.0000 0.7788
vn 0.4722 0.0000 0.8815
vn 0.3070 0.0000 0.9517
vn 0.1360 0.0000 0.9907
vn -0.0377 0.0000 0.9993
vn -0.2117 0.0000 0.9773
vn -0.3830 0.0000 0.9237
vn -0.5475 0.0000 0.8368
vn -0.6993 0.0000 0.7148
vn -0.8298 0.0000 0.5580
vn 0.0000 1.0000 -0.0000
vn -0.9290 0.0000 0.3701
vn -0.9872 0.0000 0.1594
vn 0.0000 -1.0000 0.0000
usemtl None
s off
f 9//7 10//7 12//7 11//7
f 11//8 12//8 14//8 13//8
f 13//9 14//9 16//9 15//9
f 15//10 16//10 18//10 17//10
f 17//11 18//11 20//11 19//11
f 19//12 20//12 22//12 21//12
f 21//13 22//13 24//13 23//13
f 23//14 24//14 26//14 25//14
f 25//15 26//15 28//15 27//15
f 27//16 28//16 30//16 29//16
f 29//17 30//17 32//17 31//17
f 31//18 32//18 34//18 33//18
f 33//19 34//19 36//19 35//19
f 35//20 36//20 38//20 37//20
f 37//21 38//21 40//21 39//21
f 39//22 40//22 42//22 41//22
f 41//23 42//23 44//23 43//23
f 43//24 44//24 46//24 45//24
f 45//25 46//25 48//25 47//25
f 47//26 48//26 50//26 49//26
f 49//27 50//27 52//27 51//27
f 51//28 52//28 54//28 53//28
f 53//29 54//29 56//29 55//29
f 55//30 56//30 58//30 57//30
f 57//31 58//31 60//31 59//31
f 59//32 60//32 62//32 61//32
f 61//33 62//33 64//33 63//33
f 63//34 64//34 66//34 65//34
f 65//35 66//35 68//35 67//35
f 67//36 68//36 70//36 69//36
f 12//37 10//37 72//37 70//37 68//37 66//37 64//37 62//37 60//37 58//37 56//37 54//37 52//37 50//37 48//37 46//37 44//37 42//37 40//37 38//37 36//37 34//37 32//37 30//37 28//37 26//37 24//37 22//37 20//37 18//37 16//37 14//37
f 69//38 70//38 72//38 71//38
f 71//39 72//39 10//39 9//39
f 9//40 11//40 13//40 15//40 17//40 19//40 21//40 23//40 25//40 27//40 29//40 31//40 33//40 35//40 37//40 39//40 41//40 43//40 45//40 47//40 49//40 51//40 53//40 55//40 57//40 59//40 61//40 63//40 65//40 67//40 69//40 71//40
