# Blender v2.79 (sub 0) OBJ File: 'city_remodeled.blend'
# www.blender.org
mtllib board_7.mtl
o Cube.021_Cube.022
v -0.451232 0.193533 1.738190
v -0.451232 0.356263 1.738190
v -0.232204 0.193533 1.734441
v -0.232204 0.356263 1.734441
v -0.451139 0.193533 1.743619
v -0.451139 0.356263 1.743619
v -0.232111 0.193533 1.739870
v -0.232111 0.356263 1.739870
vt 0.988964 0.018848
vt 0.987598 0.018848
vt 0.987598 0.017482
vt 0.988964 0.017482
vt 0.987598 0.020214
vt 0.986232 0.020214
vt 0.986232 0.018848
vt 0.987598 0.018848
vt 0.993790 0.008434
vt 0.988962 1.001603
vt -0.004207 0.996774
vt 0.000622 0.003605
vt 0.987598 0.020214
vt 0.987598 0.018848
vt 0.988964 0.018848
vt 0.988964 0.020214
vt 0.990331 0.018848
vt 0.988964 0.018848
vt 0.988964 0.017482
vt 0.990331 0.017482
vt 0.987598 0.020214
vt 0.987598 0.021581
vt 0.986232 0.021581
vt 0.986232 0.020214
vn -0.0171 0.0000 -0.9999
vn 0.9999 0.0000 -0.0171
vn 0.0171 0.0000 0.9999
vn -0.9999 0.0000 0.0171
vn 0.0000 -1.0000 0.0000
vn 0.0000 1.0000 -0.0000
usemtl Material.004
s off
f 1/1/1 2/2/1 4/3/1 3/4/1
f 3/5/2 4/6/2 8/7/2 7/8/2
f 7/9/3 8/10/3 6/11/3 5/12/3
f 5/13/4 6/14/4 2/15/4 1/16/4
f 3/17/5 7/18/5 5/19/5 1/20/5
f 8/21/6 4/22/6 2/23/6 6/24/6
o Cylinder.021
v -0.335086 0.046582 1.737664
v -0.335086 0.299653 1.737664
v -0.335141 0.046582 1.738255
v -0.335141 0.299653 1.738255
v -0.335325 0.046582 1.738825
v -0.335325 0.299653 1.738825
v -0.335631 0.046582 1.739353
v -0.335631 0.299653 1.739353
v -0.336048 0.046582 1.739818
v -0.336048 0.299653 1.739818
v -0.336558 0.046582 1.740203
v -0.336558 0.299653 1.740203
v -0.337143 0.046582 1.740492
v -0.337143 0.299653 1.740492
v -0.337779 0.046582 1.740675
v -0.337779 0.299653 1.740675
v -0.338444 0.046582 1.740744
v -0.338444 0.299653 1.740744
v -0.339110 0.046582 1.740698
v -0.339110 0.299653 1.740698
v -0.339752 0.046582 1.740537
v -0.339752 0.299653 1.740537
v -0.340347 0.046582 1.740267
v -0.340347 0.299653 1.740267
v -0.340870 0.046582 1.739900
v -0.340870 0.299653 1.739900
v -0.341302 0.046582 1.739450
v -0.341302 0.299653 1.739450
v -0.341626 0.046582 1.738933
v -0.341626 0.299653 1.738933
v -0.341830 0.046582 1.738369
v -0.341830 0.299653 1.738369
v -0.341905 0.046582 1.737781
v -0.341905 0.299653 1.737781
v -0.341850 0.046582 1.737190
v -0.341850 0.299653 1.737190
v -0.341665 0.046582 1.736620
v -0.341665 0.299653 1.736620
v -0.341359 0.046582 1.736092
v -0.341359 0.299653 1.736092
v -0.340943 0.046582 1.735627
v -0.340943 0.299653 1.735627
v -0.340433 0.046582 1.735242
v -0.340433 0.299653 1.735242
v -0.339848 0.046582 1.734953
v -0.339848 0.299653 1.734953
v -0.339211 0.046582 1.734770
v -0.339211 0.299653 1.734770
v -0.338547 0.046582 1.734700
v -0.338547 0.299653 1.734700
v -0.337881 0.046582 1.734747
v -0.337881 0.299653 1.734747
v -0.337238 0.046582 1.734908
v -0.337238 0.299653 1.734908
v -0.336644 0.046582 1.735177
v -0.336644 0.299653 1.735177
v -0.336121 0.046582 1.735544
v -0.336121 0.299653 1.735544
v -0.335689 0.046582 1.735995
v -0.335689 0.299653 1.735995
v -0.335365 0.046582 1.736512
v -0.335365 0.299653 1.736512
v -0.335161 0.046582 1.737076
v -0.335161 0.299653 1.737076
vn 0.9956 0.0000 0.0934
vn 0.9515 0.0000 0.3075
vn 0.8650 0.0000 0.5018
vn 0.7453 0.0000 0.6667
vn 0.6019 0.0000 0.7986
vn 0.4437 0.0000 0.8962
vn 0.2761 0.0000 0.9611
vn 0.1040 0.0000 0.9946
vn -0.0700 0.0000 0.9975
vn -0.2432 0.0000 0.9700
vn -0.4125 0.0000 0.9110
vn -0.5742 0.0000 0.8187
vn -0.7221 0.0000 0.6918
vn -0.8473 0.0000 0.5311
vn -0.9404 0.0000 0.3401
vn -0.9918 0.0000 0.1274
vn -0.9956 0.0000 -0.0934
vn -0.9515 0.0000 -0.3076
vn -0.8650 0.0000 -0.5018
vn -0.7453 0.0000 -0.6667
vn -0.6018 0.0000 -0.7987
vn -0.4436 0.0000 -0.8962
vn -0.2761 0.0000 -0.9611
vn -0.1040 0.0000 -0.9946
vn 0.0700 0.0000 -0.9975
vn 0.2430 0.0000 -0.9700
vn 0.4126 0.0000 -0.9109
vn 0.5742 0.0000 -0.8187
vn 0.7220 0.0000 -0.6919
vn 0.8474 0.0000 -0.5310
vn 0.0000 1.0000 -0.0000
vn 0.9404 0.0000 -0.3401
vn 0.9918 0.0000 -0.1275
vn 0.0000 -1.0000 0.0000
usemtl None
s off
f 9//7 10//7 12//7 11//7
f 11//8 12//8 14//8 13//8
f 13//9 14//9 16//9 15//9
f 15//10 16//10 18//10 17//10
f 17//11 18//11 20//11 19//11
f 19//12 20//12 22//12 21//12
f 21//13 22//13 24//13 23//13
f 23//14 24//14 26//14 25//14
f 25//15 26//15 28//15 27//15
f 27//16 28//16 30//16 29//16
f 29//17 30//17 32//17 31//17
f 31//18 32//18 34//18 33//18
f 33//19 34//19 36//19 35//19
f 35//20 36//20 38//20 37//20
f 37//21 38//21 40//21 39//21
f 39//22 40//22 42//22 41//22
f 41//23 42//23 44//23 43//23
f 43//24 44//24 46//24 45//24
f 45//25 46//25 48//25 47//25
f 47//26 48//26 50//26 49//26
f 49//27 50//27 52//27 51//27
f 51//28 52//28 54//28 53//28
f 53//29 54//29 56//29 55//29
f 55//30 56//30 58//30 57//30
f 57//31 58//31 60//31 59//31
f 59//32 60//32 62//32 61//32
f 61//33 62//33 64//33 63//33
f 63//34 64//34 66//34 65//34
f 65//35 66//35 68//35 67//35
f 67//36 68//36 70//36 69//36
f 12//37 10//37 72//37 70//37 68//37 66//37 64//37 62//37 60//37 58//37 56//37 54//37 52//37 50//37 48//37 46//37 44//37 42//37 40//37 38//37 36//37 34//37 32//37 30//37 28//37 26//37 24//37 22//37 20//37 18//37 16//37 14//37
f 69//38 70//38 72//38 71//38
f 71//39 72//39 10//39 9//39
f 9//40 11//40 13//40 15//40 17//40 19//40 21//40 23//40 25//40 27//40 29//40 31//40 33//40 35//40 37//40 39//40 41//40 43//40 45//40 47//40 49//40 51//40 53//40 55//40 57//40 59//40 61//40 63//40 65//40 67//40 69//40 71//40
